G04 #@! TF.GenerationSoftware,KiCad,Pcbnew,5.0-dev-unknown-9241a39~61~ubuntu17.10.1*
G04 #@! TF.CreationDate,2018-07-25T16:03:07+02:00*
G04 #@! TF.ProjectId,tag-connect-hat,7461672D636F6E6E6563742D6861742E,rev?*
G04 #@! TF.SameCoordinates,Original*
G04 #@! TF.FileFunction,Soldermask,Bot*
G04 #@! TF.FilePolarity,Negative*
%FSLAX46Y46*%
G04 Gerber Fmt 4.6, Leading zero omitted, Abs format (unit mm)*
G04 Created by KiCad (PCBNEW 5.0-dev-unknown-9241a39~61~ubuntu17.10.1) date Wed Jul 25 16:03:07 2018*
%MOMM*%
%LPD*%
G01*
G04 APERTURE LIST*
%ADD10C,3.600000*%
%ADD11R,2.100000X2.100000*%
%ADD12O,2.100000X2.100000*%
%ADD13O,1.920000X2.400000*%
%ADD14R,2.200000X2.200000*%
%ADD15C,2.200000*%
%ADD16C,0.100000*%
%ADD17C,1.350000*%
%ADD18C,2.600000*%
%ADD19C,4.400000*%
%ADD20C,2.100000*%
%ADD21C,3.650000*%
%ADD22C,1.920000*%
%ADD23R,1.920000X1.920000*%
%ADD24C,0.900000*%
G04 APERTURE END LIST*
D10*
X78000000Y-149000000D03*
D11*
X105200000Y-100900000D03*
D12*
X107740000Y-100900000D03*
X110280000Y-100900000D03*
X112820000Y-100900000D03*
D13*
X115360000Y-100900000D03*
D10*
X98700000Y-101250000D03*
X119400000Y-124450000D03*
X98700000Y-124450000D03*
X119400000Y-101250000D03*
D14*
X81200000Y-123300000D03*
D15*
X81200000Y-120760000D03*
X90800000Y-120760000D03*
D14*
X90800000Y-123300000D03*
D16*
G36*
X84070581Y-120651625D02*
X84103343Y-120656485D01*
X84135471Y-120664533D01*
X84166656Y-120675691D01*
X84196596Y-120689852D01*
X84225005Y-120706879D01*
X84251608Y-120726609D01*
X84276149Y-120748851D01*
X84298391Y-120773392D01*
X84318121Y-120799995D01*
X84335148Y-120828404D01*
X84349309Y-120858344D01*
X84360467Y-120889529D01*
X84368515Y-120921657D01*
X84373375Y-120954419D01*
X84375000Y-120987500D01*
X84375000Y-121762500D01*
X84373375Y-121795581D01*
X84368515Y-121828343D01*
X84360467Y-121860471D01*
X84349309Y-121891656D01*
X84335148Y-121921596D01*
X84318121Y-121950005D01*
X84298391Y-121976608D01*
X84276149Y-122001149D01*
X84251608Y-122023391D01*
X84225005Y-122043121D01*
X84196596Y-122060148D01*
X84166656Y-122074309D01*
X84135471Y-122085467D01*
X84103343Y-122093515D01*
X84070581Y-122098375D01*
X84037500Y-122100000D01*
X83362500Y-122100000D01*
X83329419Y-122098375D01*
X83296657Y-122093515D01*
X83264529Y-122085467D01*
X83233344Y-122074309D01*
X83203404Y-122060148D01*
X83174995Y-122043121D01*
X83148392Y-122023391D01*
X83123851Y-122001149D01*
X83101609Y-121976608D01*
X83081879Y-121950005D01*
X83064852Y-121921596D01*
X83050691Y-121891656D01*
X83039533Y-121860471D01*
X83031485Y-121828343D01*
X83026625Y-121795581D01*
X83025000Y-121762500D01*
X83025000Y-120987500D01*
X83026625Y-120954419D01*
X83031485Y-120921657D01*
X83039533Y-120889529D01*
X83050691Y-120858344D01*
X83064852Y-120828404D01*
X83081879Y-120799995D01*
X83101609Y-120773392D01*
X83123851Y-120748851D01*
X83148392Y-120726609D01*
X83174995Y-120706879D01*
X83203404Y-120689852D01*
X83233344Y-120675691D01*
X83264529Y-120664533D01*
X83296657Y-120656485D01*
X83329419Y-120651625D01*
X83362500Y-120650000D01*
X84037500Y-120650000D01*
X84070581Y-120651625D01*
X84070581Y-120651625D01*
G37*
D17*
X83700000Y-121375000D03*
D16*
G36*
X84070581Y-118901625D02*
X84103343Y-118906485D01*
X84135471Y-118914533D01*
X84166656Y-118925691D01*
X84196596Y-118939852D01*
X84225005Y-118956879D01*
X84251608Y-118976609D01*
X84276149Y-118998851D01*
X84298391Y-119023392D01*
X84318121Y-119049995D01*
X84335148Y-119078404D01*
X84349309Y-119108344D01*
X84360467Y-119139529D01*
X84368515Y-119171657D01*
X84373375Y-119204419D01*
X84375000Y-119237500D01*
X84375000Y-120012500D01*
X84373375Y-120045581D01*
X84368515Y-120078343D01*
X84360467Y-120110471D01*
X84349309Y-120141656D01*
X84335148Y-120171596D01*
X84318121Y-120200005D01*
X84298391Y-120226608D01*
X84276149Y-120251149D01*
X84251608Y-120273391D01*
X84225005Y-120293121D01*
X84196596Y-120310148D01*
X84166656Y-120324309D01*
X84135471Y-120335467D01*
X84103343Y-120343515D01*
X84070581Y-120348375D01*
X84037500Y-120350000D01*
X83362500Y-120350000D01*
X83329419Y-120348375D01*
X83296657Y-120343515D01*
X83264529Y-120335467D01*
X83233344Y-120324309D01*
X83203404Y-120310148D01*
X83174995Y-120293121D01*
X83148392Y-120273391D01*
X83123851Y-120251149D01*
X83101609Y-120226608D01*
X83081879Y-120200005D01*
X83064852Y-120171596D01*
X83050691Y-120141656D01*
X83039533Y-120110471D01*
X83031485Y-120078343D01*
X83026625Y-120045581D01*
X83025000Y-120012500D01*
X83025000Y-119237500D01*
X83026625Y-119204419D01*
X83031485Y-119171657D01*
X83039533Y-119139529D01*
X83050691Y-119108344D01*
X83064852Y-119078404D01*
X83081879Y-119049995D01*
X83101609Y-119023392D01*
X83123851Y-118998851D01*
X83148392Y-118976609D01*
X83174995Y-118956879D01*
X83203404Y-118939852D01*
X83233344Y-118925691D01*
X83264529Y-118914533D01*
X83296657Y-118906485D01*
X83329419Y-118901625D01*
X83362500Y-118900000D01*
X84037500Y-118900000D01*
X84070581Y-118901625D01*
X84070581Y-118901625D01*
G37*
D17*
X83700000Y-119625000D03*
D16*
G36*
X88670581Y-118901625D02*
X88703343Y-118906485D01*
X88735471Y-118914533D01*
X88766656Y-118925691D01*
X88796596Y-118939852D01*
X88825005Y-118956879D01*
X88851608Y-118976609D01*
X88876149Y-118998851D01*
X88898391Y-119023392D01*
X88918121Y-119049995D01*
X88935148Y-119078404D01*
X88949309Y-119108344D01*
X88960467Y-119139529D01*
X88968515Y-119171657D01*
X88973375Y-119204419D01*
X88975000Y-119237500D01*
X88975000Y-120012500D01*
X88973375Y-120045581D01*
X88968515Y-120078343D01*
X88960467Y-120110471D01*
X88949309Y-120141656D01*
X88935148Y-120171596D01*
X88918121Y-120200005D01*
X88898391Y-120226608D01*
X88876149Y-120251149D01*
X88851608Y-120273391D01*
X88825005Y-120293121D01*
X88796596Y-120310148D01*
X88766656Y-120324309D01*
X88735471Y-120335467D01*
X88703343Y-120343515D01*
X88670581Y-120348375D01*
X88637500Y-120350000D01*
X87962500Y-120350000D01*
X87929419Y-120348375D01*
X87896657Y-120343515D01*
X87864529Y-120335467D01*
X87833344Y-120324309D01*
X87803404Y-120310148D01*
X87774995Y-120293121D01*
X87748392Y-120273391D01*
X87723851Y-120251149D01*
X87701609Y-120226608D01*
X87681879Y-120200005D01*
X87664852Y-120171596D01*
X87650691Y-120141656D01*
X87639533Y-120110471D01*
X87631485Y-120078343D01*
X87626625Y-120045581D01*
X87625000Y-120012500D01*
X87625000Y-119237500D01*
X87626625Y-119204419D01*
X87631485Y-119171657D01*
X87639533Y-119139529D01*
X87650691Y-119108344D01*
X87664852Y-119078404D01*
X87681879Y-119049995D01*
X87701609Y-119023392D01*
X87723851Y-118998851D01*
X87748392Y-118976609D01*
X87774995Y-118956879D01*
X87803404Y-118939852D01*
X87833344Y-118925691D01*
X87864529Y-118914533D01*
X87896657Y-118906485D01*
X87929419Y-118901625D01*
X87962500Y-118900000D01*
X88637500Y-118900000D01*
X88670581Y-118901625D01*
X88670581Y-118901625D01*
G37*
D17*
X88300000Y-119625000D03*
D16*
G36*
X88670581Y-120651625D02*
X88703343Y-120656485D01*
X88735471Y-120664533D01*
X88766656Y-120675691D01*
X88796596Y-120689852D01*
X88825005Y-120706879D01*
X88851608Y-120726609D01*
X88876149Y-120748851D01*
X88898391Y-120773392D01*
X88918121Y-120799995D01*
X88935148Y-120828404D01*
X88949309Y-120858344D01*
X88960467Y-120889529D01*
X88968515Y-120921657D01*
X88973375Y-120954419D01*
X88975000Y-120987500D01*
X88975000Y-121762500D01*
X88973375Y-121795581D01*
X88968515Y-121828343D01*
X88960467Y-121860471D01*
X88949309Y-121891656D01*
X88935148Y-121921596D01*
X88918121Y-121950005D01*
X88898391Y-121976608D01*
X88876149Y-122001149D01*
X88851608Y-122023391D01*
X88825005Y-122043121D01*
X88796596Y-122060148D01*
X88766656Y-122074309D01*
X88735471Y-122085467D01*
X88703343Y-122093515D01*
X88670581Y-122098375D01*
X88637500Y-122100000D01*
X87962500Y-122100000D01*
X87929419Y-122098375D01*
X87896657Y-122093515D01*
X87864529Y-122085467D01*
X87833344Y-122074309D01*
X87803404Y-122060148D01*
X87774995Y-122043121D01*
X87748392Y-122023391D01*
X87723851Y-122001149D01*
X87701609Y-121976608D01*
X87681879Y-121950005D01*
X87664852Y-121921596D01*
X87650691Y-121891656D01*
X87639533Y-121860471D01*
X87631485Y-121828343D01*
X87626625Y-121795581D01*
X87625000Y-121762500D01*
X87625000Y-120987500D01*
X87626625Y-120954419D01*
X87631485Y-120921657D01*
X87639533Y-120889529D01*
X87650691Y-120858344D01*
X87664852Y-120828404D01*
X87681879Y-120799995D01*
X87701609Y-120773392D01*
X87723851Y-120748851D01*
X87748392Y-120726609D01*
X87774995Y-120706879D01*
X87803404Y-120689852D01*
X87833344Y-120675691D01*
X87864529Y-120664533D01*
X87896657Y-120656485D01*
X87929419Y-120651625D01*
X87962500Y-120650000D01*
X88637500Y-120650000D01*
X88670581Y-120651625D01*
X88670581Y-120651625D01*
G37*
D17*
X88300000Y-121375000D03*
D18*
X88540000Y-132920000D03*
X82190000Y-135460000D03*
D19*
X86000000Y-138000000D03*
D20*
X80920000Y-138000000D03*
X91080000Y-138000000D03*
D11*
X125000000Y-101000000D03*
D12*
X127540000Y-101000000D03*
X125000000Y-103540000D03*
X127540000Y-103540000D03*
X125000000Y-106080000D03*
X127540000Y-106080000D03*
X125000000Y-108620000D03*
X127540000Y-108620000D03*
X125000000Y-111160000D03*
X127540000Y-111160000D03*
X125000000Y-113700000D03*
X127540000Y-113700000D03*
X125000000Y-116240000D03*
X127540000Y-116240000D03*
X125000000Y-118780000D03*
X127540000Y-118780000D03*
X125000000Y-121320000D03*
X127540000Y-121320000D03*
X125000000Y-123860000D03*
X127540000Y-123860000D03*
X125000000Y-126400000D03*
X127540000Y-126400000D03*
X125000000Y-128940000D03*
X127540000Y-128940000D03*
X125000000Y-131480000D03*
X127540000Y-131480000D03*
X125000000Y-134020000D03*
X127540000Y-134020000D03*
X125000000Y-136560000D03*
X127540000Y-136560000D03*
X125000000Y-139100000D03*
X127540000Y-139100000D03*
X125000000Y-141640000D03*
X127540000Y-141640000D03*
X125000000Y-144180000D03*
X127540000Y-144180000D03*
X125000000Y-146720000D03*
X127540000Y-146720000D03*
X125000000Y-149260000D03*
X127540000Y-149260000D03*
D21*
X115750000Y-142790000D03*
D22*
X113850000Y-136440000D03*
X112580000Y-133900000D03*
X111310000Y-136440000D03*
X110040000Y-133900000D03*
X108770000Y-136440000D03*
D21*
X105590000Y-142790000D03*
D23*
X107500000Y-133900000D03*
D24*
X104200000Y-129750000D03*
D16*
G36*
X103450602Y-129750000D02*
X103450602Y-129725466D01*
X103455412Y-129676635D01*
X103464984Y-129628510D01*
X103479228Y-129581555D01*
X103498005Y-129536222D01*
X103521136Y-129492949D01*
X103548396Y-129452150D01*
X103579524Y-129414221D01*
X103614221Y-129379524D01*
X103652150Y-129348396D01*
X103692949Y-129321136D01*
X103736222Y-129298005D01*
X103750000Y-129292298D01*
X103750000Y-129050000D01*
X104650000Y-129050000D01*
X104650000Y-129292298D01*
X104663778Y-129298005D01*
X104707051Y-129321136D01*
X104747850Y-129348396D01*
X104785779Y-129379524D01*
X104820476Y-129414221D01*
X104851604Y-129452150D01*
X104878864Y-129492949D01*
X104901995Y-129536222D01*
X104920772Y-129581555D01*
X104935016Y-129628510D01*
X104944588Y-129676635D01*
X104949398Y-129725466D01*
X104949398Y-129750000D01*
X104950000Y-129750000D01*
X104950000Y-130250000D01*
X104650000Y-130250000D01*
X104650000Y-130450000D01*
X103750000Y-130450000D01*
X103750000Y-130250000D01*
X103450000Y-130250000D01*
X103450000Y-129750000D01*
X103450602Y-129750000D01*
X103450602Y-129750000D01*
G37*
D24*
X104200000Y-131050000D03*
D16*
G36*
X103750000Y-130550000D02*
X103750000Y-130350000D01*
X104650000Y-130350000D01*
X104650000Y-130550000D01*
X104950000Y-130550000D01*
X104950000Y-131050000D01*
X104949398Y-131050000D01*
X104949398Y-131074534D01*
X104944588Y-131123365D01*
X104935016Y-131171490D01*
X104920772Y-131218445D01*
X104901995Y-131263778D01*
X104878864Y-131307051D01*
X104851604Y-131347850D01*
X104820476Y-131385779D01*
X104785779Y-131420476D01*
X104747850Y-131451604D01*
X104707051Y-131478864D01*
X104663778Y-131501995D01*
X104650000Y-131507702D01*
X104650000Y-131750000D01*
X103750000Y-131750000D01*
X103750000Y-131507702D01*
X103736222Y-131501995D01*
X103692949Y-131478864D01*
X103652150Y-131451604D01*
X103614221Y-131420476D01*
X103579524Y-131385779D01*
X103548396Y-131347850D01*
X103521136Y-131307051D01*
X103498005Y-131263778D01*
X103479228Y-131218445D01*
X103464984Y-131171490D01*
X103455412Y-131123365D01*
X103450602Y-131074534D01*
X103450602Y-131050000D01*
X103450000Y-131050000D01*
X103450000Y-130550000D01*
X103750000Y-130550000D01*
X103750000Y-130550000D01*
G37*
D24*
X106800000Y-131050000D03*
D16*
G36*
X106350000Y-130550000D02*
X106350000Y-130350000D01*
X107250000Y-130350000D01*
X107250000Y-130550000D01*
X107550000Y-130550000D01*
X107550000Y-131050000D01*
X107549398Y-131050000D01*
X107549398Y-131074534D01*
X107544588Y-131123365D01*
X107535016Y-131171490D01*
X107520772Y-131218445D01*
X107501995Y-131263778D01*
X107478864Y-131307051D01*
X107451604Y-131347850D01*
X107420476Y-131385779D01*
X107385779Y-131420476D01*
X107347850Y-131451604D01*
X107307051Y-131478864D01*
X107263778Y-131501995D01*
X107250000Y-131507702D01*
X107250000Y-131750000D01*
X106350000Y-131750000D01*
X106350000Y-131507702D01*
X106336222Y-131501995D01*
X106292949Y-131478864D01*
X106252150Y-131451604D01*
X106214221Y-131420476D01*
X106179524Y-131385779D01*
X106148396Y-131347850D01*
X106121136Y-131307051D01*
X106098005Y-131263778D01*
X106079228Y-131218445D01*
X106064984Y-131171490D01*
X106055412Y-131123365D01*
X106050602Y-131074534D01*
X106050602Y-131050000D01*
X106050000Y-131050000D01*
X106050000Y-130550000D01*
X106350000Y-130550000D01*
X106350000Y-130550000D01*
G37*
D24*
X106800000Y-129750000D03*
D16*
G36*
X106050602Y-129750000D02*
X106050602Y-129725466D01*
X106055412Y-129676635D01*
X106064984Y-129628510D01*
X106079228Y-129581555D01*
X106098005Y-129536222D01*
X106121136Y-129492949D01*
X106148396Y-129452150D01*
X106179524Y-129414221D01*
X106214221Y-129379524D01*
X106252150Y-129348396D01*
X106292949Y-129321136D01*
X106336222Y-129298005D01*
X106350000Y-129292298D01*
X106350000Y-129050000D01*
X107250000Y-129050000D01*
X107250000Y-129292298D01*
X107263778Y-129298005D01*
X107307051Y-129321136D01*
X107347850Y-129348396D01*
X107385779Y-129379524D01*
X107420476Y-129414221D01*
X107451604Y-129452150D01*
X107478864Y-129492949D01*
X107501995Y-129536222D01*
X107520772Y-129581555D01*
X107535016Y-129628510D01*
X107544588Y-129676635D01*
X107549398Y-129725466D01*
X107549398Y-129750000D01*
X107550000Y-129750000D01*
X107550000Y-130250000D01*
X107250000Y-130250000D01*
X107250000Y-130450000D01*
X106350000Y-130450000D01*
X106350000Y-130250000D01*
X106050000Y-130250000D01*
X106050000Y-129750000D01*
X106050602Y-129750000D01*
X106050602Y-129750000D01*
G37*
D24*
X109400000Y-131050000D03*
D16*
G36*
X108950000Y-130550000D02*
X108950000Y-130350000D01*
X109850000Y-130350000D01*
X109850000Y-130550000D01*
X110150000Y-130550000D01*
X110150000Y-131050000D01*
X110149398Y-131050000D01*
X110149398Y-131074534D01*
X110144588Y-131123365D01*
X110135016Y-131171490D01*
X110120772Y-131218445D01*
X110101995Y-131263778D01*
X110078864Y-131307051D01*
X110051604Y-131347850D01*
X110020476Y-131385779D01*
X109985779Y-131420476D01*
X109947850Y-131451604D01*
X109907051Y-131478864D01*
X109863778Y-131501995D01*
X109850000Y-131507702D01*
X109850000Y-131750000D01*
X108950000Y-131750000D01*
X108950000Y-131507702D01*
X108936222Y-131501995D01*
X108892949Y-131478864D01*
X108852150Y-131451604D01*
X108814221Y-131420476D01*
X108779524Y-131385779D01*
X108748396Y-131347850D01*
X108721136Y-131307051D01*
X108698005Y-131263778D01*
X108679228Y-131218445D01*
X108664984Y-131171490D01*
X108655412Y-131123365D01*
X108650602Y-131074534D01*
X108650602Y-131050000D01*
X108650000Y-131050000D01*
X108650000Y-130550000D01*
X108950000Y-130550000D01*
X108950000Y-130550000D01*
G37*
D24*
X109400000Y-129750000D03*
D16*
G36*
X108650602Y-129750000D02*
X108650602Y-129725466D01*
X108655412Y-129676635D01*
X108664984Y-129628510D01*
X108679228Y-129581555D01*
X108698005Y-129536222D01*
X108721136Y-129492949D01*
X108748396Y-129452150D01*
X108779524Y-129414221D01*
X108814221Y-129379524D01*
X108852150Y-129348396D01*
X108892949Y-129321136D01*
X108936222Y-129298005D01*
X108950000Y-129292298D01*
X108950000Y-129050000D01*
X109850000Y-129050000D01*
X109850000Y-129292298D01*
X109863778Y-129298005D01*
X109907051Y-129321136D01*
X109947850Y-129348396D01*
X109985779Y-129379524D01*
X110020476Y-129414221D01*
X110051604Y-129452150D01*
X110078864Y-129492949D01*
X110101995Y-129536222D01*
X110120772Y-129581555D01*
X110135016Y-129628510D01*
X110144588Y-129676635D01*
X110149398Y-129725466D01*
X110149398Y-129750000D01*
X110150000Y-129750000D01*
X110150000Y-130250000D01*
X109850000Y-130250000D01*
X109850000Y-130450000D01*
X108950000Y-130450000D01*
X108950000Y-130250000D01*
X108650000Y-130250000D01*
X108650000Y-129750000D01*
X108650602Y-129750000D01*
X108650602Y-129750000D01*
G37*
D24*
X112000000Y-129750000D03*
D16*
G36*
X111250602Y-129750000D02*
X111250602Y-129725466D01*
X111255412Y-129676635D01*
X111264984Y-129628510D01*
X111279228Y-129581555D01*
X111298005Y-129536222D01*
X111321136Y-129492949D01*
X111348396Y-129452150D01*
X111379524Y-129414221D01*
X111414221Y-129379524D01*
X111452150Y-129348396D01*
X111492949Y-129321136D01*
X111536222Y-129298005D01*
X111550000Y-129292298D01*
X111550000Y-129050000D01*
X112450000Y-129050000D01*
X112450000Y-129292298D01*
X112463778Y-129298005D01*
X112507051Y-129321136D01*
X112547850Y-129348396D01*
X112585779Y-129379524D01*
X112620476Y-129414221D01*
X112651604Y-129452150D01*
X112678864Y-129492949D01*
X112701995Y-129536222D01*
X112720772Y-129581555D01*
X112735016Y-129628510D01*
X112744588Y-129676635D01*
X112749398Y-129725466D01*
X112749398Y-129750000D01*
X112750000Y-129750000D01*
X112750000Y-130250000D01*
X112450000Y-130250000D01*
X112450000Y-130450000D01*
X111550000Y-130450000D01*
X111550000Y-130250000D01*
X111250000Y-130250000D01*
X111250000Y-129750000D01*
X111250602Y-129750000D01*
X111250602Y-129750000D01*
G37*
D24*
X112000000Y-131050000D03*
D16*
G36*
X111550000Y-130550000D02*
X111550000Y-130350000D01*
X112450000Y-130350000D01*
X112450000Y-130550000D01*
X112750000Y-130550000D01*
X112750000Y-131050000D01*
X112749398Y-131050000D01*
X112749398Y-131074534D01*
X112744588Y-131123365D01*
X112735016Y-131171490D01*
X112720772Y-131218445D01*
X112701995Y-131263778D01*
X112678864Y-131307051D01*
X112651604Y-131347850D01*
X112620476Y-131385779D01*
X112585779Y-131420476D01*
X112547850Y-131451604D01*
X112507051Y-131478864D01*
X112463778Y-131501995D01*
X112450000Y-131507702D01*
X112450000Y-131750000D01*
X111550000Y-131750000D01*
X111550000Y-131507702D01*
X111536222Y-131501995D01*
X111492949Y-131478864D01*
X111452150Y-131451604D01*
X111414221Y-131420476D01*
X111379524Y-131385779D01*
X111348396Y-131347850D01*
X111321136Y-131307051D01*
X111298005Y-131263778D01*
X111279228Y-131218445D01*
X111264984Y-131171490D01*
X111255412Y-131123365D01*
X111250602Y-131074534D01*
X111250602Y-131050000D01*
X111250000Y-131050000D01*
X111250000Y-130550000D01*
X111550000Y-130550000D01*
X111550000Y-130550000D01*
G37*
D24*
X114600000Y-131050000D03*
D16*
G36*
X114150000Y-130550000D02*
X114150000Y-130350000D01*
X115050000Y-130350000D01*
X115050000Y-130550000D01*
X115350000Y-130550000D01*
X115350000Y-131050000D01*
X115349398Y-131050000D01*
X115349398Y-131074534D01*
X115344588Y-131123365D01*
X115335016Y-131171490D01*
X115320772Y-131218445D01*
X115301995Y-131263778D01*
X115278864Y-131307051D01*
X115251604Y-131347850D01*
X115220476Y-131385779D01*
X115185779Y-131420476D01*
X115147850Y-131451604D01*
X115107051Y-131478864D01*
X115063778Y-131501995D01*
X115050000Y-131507702D01*
X115050000Y-131750000D01*
X114150000Y-131750000D01*
X114150000Y-131507702D01*
X114136222Y-131501995D01*
X114092949Y-131478864D01*
X114052150Y-131451604D01*
X114014221Y-131420476D01*
X113979524Y-131385779D01*
X113948396Y-131347850D01*
X113921136Y-131307051D01*
X113898005Y-131263778D01*
X113879228Y-131218445D01*
X113864984Y-131171490D01*
X113855412Y-131123365D01*
X113850602Y-131074534D01*
X113850602Y-131050000D01*
X113850000Y-131050000D01*
X113850000Y-130550000D01*
X114150000Y-130550000D01*
X114150000Y-130550000D01*
G37*
D24*
X114600000Y-129750000D03*
D16*
G36*
X113850602Y-129750000D02*
X113850602Y-129725466D01*
X113855412Y-129676635D01*
X113864984Y-129628510D01*
X113879228Y-129581555D01*
X113898005Y-129536222D01*
X113921136Y-129492949D01*
X113948396Y-129452150D01*
X113979524Y-129414221D01*
X114014221Y-129379524D01*
X114052150Y-129348396D01*
X114092949Y-129321136D01*
X114136222Y-129298005D01*
X114150000Y-129292298D01*
X114150000Y-129050000D01*
X115050000Y-129050000D01*
X115050000Y-129292298D01*
X115063778Y-129298005D01*
X115107051Y-129321136D01*
X115147850Y-129348396D01*
X115185779Y-129379524D01*
X115220476Y-129414221D01*
X115251604Y-129452150D01*
X115278864Y-129492949D01*
X115301995Y-129536222D01*
X115320772Y-129581555D01*
X115335016Y-129628510D01*
X115344588Y-129676635D01*
X115349398Y-129725466D01*
X115349398Y-129750000D01*
X115350000Y-129750000D01*
X115350000Y-130250000D01*
X115050000Y-130250000D01*
X115050000Y-130450000D01*
X114150000Y-130450000D01*
X114150000Y-130250000D01*
X113850000Y-130250000D01*
X113850000Y-129750000D01*
X113850602Y-129750000D01*
X113850602Y-129750000D01*
G37*
D24*
X117200000Y-129750000D03*
D16*
G36*
X116450602Y-129750000D02*
X116450602Y-129725466D01*
X116455412Y-129676635D01*
X116464984Y-129628510D01*
X116479228Y-129581555D01*
X116498005Y-129536222D01*
X116521136Y-129492949D01*
X116548396Y-129452150D01*
X116579524Y-129414221D01*
X116614221Y-129379524D01*
X116652150Y-129348396D01*
X116692949Y-129321136D01*
X116736222Y-129298005D01*
X116750000Y-129292298D01*
X116750000Y-129050000D01*
X117650000Y-129050000D01*
X117650000Y-129292298D01*
X117663778Y-129298005D01*
X117707051Y-129321136D01*
X117747850Y-129348396D01*
X117785779Y-129379524D01*
X117820476Y-129414221D01*
X117851604Y-129452150D01*
X117878864Y-129492949D01*
X117901995Y-129536222D01*
X117920772Y-129581555D01*
X117935016Y-129628510D01*
X117944588Y-129676635D01*
X117949398Y-129725466D01*
X117949398Y-129750000D01*
X117950000Y-129750000D01*
X117950000Y-130250000D01*
X117650000Y-130250000D01*
X117650000Y-130450000D01*
X116750000Y-130450000D01*
X116750000Y-130250000D01*
X116450000Y-130250000D01*
X116450000Y-129750000D01*
X116450602Y-129750000D01*
X116450602Y-129750000D01*
G37*
D24*
X117200000Y-131050000D03*
D16*
G36*
X116750000Y-130550000D02*
X116750000Y-130350000D01*
X117650000Y-130350000D01*
X117650000Y-130550000D01*
X117950000Y-130550000D01*
X117950000Y-131050000D01*
X117949398Y-131050000D01*
X117949398Y-131074534D01*
X117944588Y-131123365D01*
X117935016Y-131171490D01*
X117920772Y-131218445D01*
X117901995Y-131263778D01*
X117878864Y-131307051D01*
X117851604Y-131347850D01*
X117820476Y-131385779D01*
X117785779Y-131420476D01*
X117747850Y-131451604D01*
X117707051Y-131478864D01*
X117663778Y-131501995D01*
X117650000Y-131507702D01*
X117650000Y-131750000D01*
X116750000Y-131750000D01*
X116750000Y-131507702D01*
X116736222Y-131501995D01*
X116692949Y-131478864D01*
X116652150Y-131451604D01*
X116614221Y-131420476D01*
X116579524Y-131385779D01*
X116548396Y-131347850D01*
X116521136Y-131307051D01*
X116498005Y-131263778D01*
X116479228Y-131218445D01*
X116464984Y-131171490D01*
X116455412Y-131123365D01*
X116450602Y-131074534D01*
X116450602Y-131050000D01*
X116450000Y-131050000D01*
X116450000Y-130550000D01*
X116750000Y-130550000D01*
X116750000Y-130550000D01*
G37*
D10*
X78000000Y-101000000D03*
M02*
