G04 #@! TF.GenerationSoftware,KiCad,Pcbnew,5.0-dev-unknown-9241a39~61~ubuntu17.10.1*
G04 #@! TF.CreationDate,2018-07-25T16:03:07+02:00*
G04 #@! TF.ProjectId,tag-connect-hat,7461672D636F6E6E6563742D6861742E,rev?*
G04 #@! TF.SameCoordinates,Original*
G04 #@! TF.FileFunction,Copper,L2,Bot,Signal*
G04 #@! TF.FilePolarity,Positive*
%FSLAX46Y46*%
G04 Gerber Fmt 4.6, Leading zero omitted, Abs format (unit mm)*
G04 Created by KiCad (PCBNEW 5.0-dev-unknown-9241a39~61~ubuntu17.10.1) date Wed Jul 25 16:03:07 2018*
%MOMM*%
%LPD*%
G01*
G04 APERTURE LIST*
%ADD10R,1.700000X1.700000*%
%ADD11O,1.700000X1.700000*%
%ADD12O,1.520000X2.000000*%
%ADD13R,1.800000X1.800000*%
%ADD14C,1.800000*%
%ADD15C,0.100000*%
%ADD16C,0.950000*%
%ADD17C,2.200000*%
%ADD18C,1.520000*%
%ADD19R,1.520000X1.520000*%
%ADD20C,0.500000*%
%ADD21C,0.800000*%
%ADD22C,0.400000*%
%ADD23C,0.600000*%
%ADD24C,0.200000*%
%ADD25C,1.000000*%
%ADD26C,1.600000*%
%ADD27C,0.800000*%
%ADD28C,1.200000*%
%ADD29C,1.400000*%
%ADD30C,0.254000*%
G04 APERTURE END LIST*
D10*
X105200000Y-100900000D03*
D11*
X107740000Y-100900000D03*
X110280000Y-100900000D03*
X112820000Y-100900000D03*
D12*
X115360000Y-100900000D03*
D13*
X81200000Y-123300000D03*
D14*
X81200000Y-120760000D03*
X90800000Y-120760000D03*
D13*
X90800000Y-123300000D03*
D15*
G36*
X83960779Y-120851144D02*
X83983834Y-120854563D01*
X84006443Y-120860227D01*
X84028387Y-120868079D01*
X84049457Y-120878044D01*
X84069448Y-120890026D01*
X84088168Y-120903910D01*
X84105438Y-120919562D01*
X84121090Y-120936832D01*
X84134974Y-120955552D01*
X84146956Y-120975543D01*
X84156921Y-120996613D01*
X84164773Y-121018557D01*
X84170437Y-121041166D01*
X84173856Y-121064221D01*
X84175000Y-121087500D01*
X84175000Y-121662500D01*
X84173856Y-121685779D01*
X84170437Y-121708834D01*
X84164773Y-121731443D01*
X84156921Y-121753387D01*
X84146956Y-121774457D01*
X84134974Y-121794448D01*
X84121090Y-121813168D01*
X84105438Y-121830438D01*
X84088168Y-121846090D01*
X84069448Y-121859974D01*
X84049457Y-121871956D01*
X84028387Y-121881921D01*
X84006443Y-121889773D01*
X83983834Y-121895437D01*
X83960779Y-121898856D01*
X83937500Y-121900000D01*
X83462500Y-121900000D01*
X83439221Y-121898856D01*
X83416166Y-121895437D01*
X83393557Y-121889773D01*
X83371613Y-121881921D01*
X83350543Y-121871956D01*
X83330552Y-121859974D01*
X83311832Y-121846090D01*
X83294562Y-121830438D01*
X83278910Y-121813168D01*
X83265026Y-121794448D01*
X83253044Y-121774457D01*
X83243079Y-121753387D01*
X83235227Y-121731443D01*
X83229563Y-121708834D01*
X83226144Y-121685779D01*
X83225000Y-121662500D01*
X83225000Y-121087500D01*
X83226144Y-121064221D01*
X83229563Y-121041166D01*
X83235227Y-121018557D01*
X83243079Y-120996613D01*
X83253044Y-120975543D01*
X83265026Y-120955552D01*
X83278910Y-120936832D01*
X83294562Y-120919562D01*
X83311832Y-120903910D01*
X83330552Y-120890026D01*
X83350543Y-120878044D01*
X83371613Y-120868079D01*
X83393557Y-120860227D01*
X83416166Y-120854563D01*
X83439221Y-120851144D01*
X83462500Y-120850000D01*
X83937500Y-120850000D01*
X83960779Y-120851144D01*
X83960779Y-120851144D01*
G37*
D16*
X83700000Y-121375000D03*
D15*
G36*
X83960779Y-119101144D02*
X83983834Y-119104563D01*
X84006443Y-119110227D01*
X84028387Y-119118079D01*
X84049457Y-119128044D01*
X84069448Y-119140026D01*
X84088168Y-119153910D01*
X84105438Y-119169562D01*
X84121090Y-119186832D01*
X84134974Y-119205552D01*
X84146956Y-119225543D01*
X84156921Y-119246613D01*
X84164773Y-119268557D01*
X84170437Y-119291166D01*
X84173856Y-119314221D01*
X84175000Y-119337500D01*
X84175000Y-119912500D01*
X84173856Y-119935779D01*
X84170437Y-119958834D01*
X84164773Y-119981443D01*
X84156921Y-120003387D01*
X84146956Y-120024457D01*
X84134974Y-120044448D01*
X84121090Y-120063168D01*
X84105438Y-120080438D01*
X84088168Y-120096090D01*
X84069448Y-120109974D01*
X84049457Y-120121956D01*
X84028387Y-120131921D01*
X84006443Y-120139773D01*
X83983834Y-120145437D01*
X83960779Y-120148856D01*
X83937500Y-120150000D01*
X83462500Y-120150000D01*
X83439221Y-120148856D01*
X83416166Y-120145437D01*
X83393557Y-120139773D01*
X83371613Y-120131921D01*
X83350543Y-120121956D01*
X83330552Y-120109974D01*
X83311832Y-120096090D01*
X83294562Y-120080438D01*
X83278910Y-120063168D01*
X83265026Y-120044448D01*
X83253044Y-120024457D01*
X83243079Y-120003387D01*
X83235227Y-119981443D01*
X83229563Y-119958834D01*
X83226144Y-119935779D01*
X83225000Y-119912500D01*
X83225000Y-119337500D01*
X83226144Y-119314221D01*
X83229563Y-119291166D01*
X83235227Y-119268557D01*
X83243079Y-119246613D01*
X83253044Y-119225543D01*
X83265026Y-119205552D01*
X83278910Y-119186832D01*
X83294562Y-119169562D01*
X83311832Y-119153910D01*
X83330552Y-119140026D01*
X83350543Y-119128044D01*
X83371613Y-119118079D01*
X83393557Y-119110227D01*
X83416166Y-119104563D01*
X83439221Y-119101144D01*
X83462500Y-119100000D01*
X83937500Y-119100000D01*
X83960779Y-119101144D01*
X83960779Y-119101144D01*
G37*
D16*
X83700000Y-119625000D03*
D15*
G36*
X88560779Y-119101144D02*
X88583834Y-119104563D01*
X88606443Y-119110227D01*
X88628387Y-119118079D01*
X88649457Y-119128044D01*
X88669448Y-119140026D01*
X88688168Y-119153910D01*
X88705438Y-119169562D01*
X88721090Y-119186832D01*
X88734974Y-119205552D01*
X88746956Y-119225543D01*
X88756921Y-119246613D01*
X88764773Y-119268557D01*
X88770437Y-119291166D01*
X88773856Y-119314221D01*
X88775000Y-119337500D01*
X88775000Y-119912500D01*
X88773856Y-119935779D01*
X88770437Y-119958834D01*
X88764773Y-119981443D01*
X88756921Y-120003387D01*
X88746956Y-120024457D01*
X88734974Y-120044448D01*
X88721090Y-120063168D01*
X88705438Y-120080438D01*
X88688168Y-120096090D01*
X88669448Y-120109974D01*
X88649457Y-120121956D01*
X88628387Y-120131921D01*
X88606443Y-120139773D01*
X88583834Y-120145437D01*
X88560779Y-120148856D01*
X88537500Y-120150000D01*
X88062500Y-120150000D01*
X88039221Y-120148856D01*
X88016166Y-120145437D01*
X87993557Y-120139773D01*
X87971613Y-120131921D01*
X87950543Y-120121956D01*
X87930552Y-120109974D01*
X87911832Y-120096090D01*
X87894562Y-120080438D01*
X87878910Y-120063168D01*
X87865026Y-120044448D01*
X87853044Y-120024457D01*
X87843079Y-120003387D01*
X87835227Y-119981443D01*
X87829563Y-119958834D01*
X87826144Y-119935779D01*
X87825000Y-119912500D01*
X87825000Y-119337500D01*
X87826144Y-119314221D01*
X87829563Y-119291166D01*
X87835227Y-119268557D01*
X87843079Y-119246613D01*
X87853044Y-119225543D01*
X87865026Y-119205552D01*
X87878910Y-119186832D01*
X87894562Y-119169562D01*
X87911832Y-119153910D01*
X87930552Y-119140026D01*
X87950543Y-119128044D01*
X87971613Y-119118079D01*
X87993557Y-119110227D01*
X88016166Y-119104563D01*
X88039221Y-119101144D01*
X88062500Y-119100000D01*
X88537500Y-119100000D01*
X88560779Y-119101144D01*
X88560779Y-119101144D01*
G37*
D16*
X88300000Y-119625000D03*
D15*
G36*
X88560779Y-120851144D02*
X88583834Y-120854563D01*
X88606443Y-120860227D01*
X88628387Y-120868079D01*
X88649457Y-120878044D01*
X88669448Y-120890026D01*
X88688168Y-120903910D01*
X88705438Y-120919562D01*
X88721090Y-120936832D01*
X88734974Y-120955552D01*
X88746956Y-120975543D01*
X88756921Y-120996613D01*
X88764773Y-121018557D01*
X88770437Y-121041166D01*
X88773856Y-121064221D01*
X88775000Y-121087500D01*
X88775000Y-121662500D01*
X88773856Y-121685779D01*
X88770437Y-121708834D01*
X88764773Y-121731443D01*
X88756921Y-121753387D01*
X88746956Y-121774457D01*
X88734974Y-121794448D01*
X88721090Y-121813168D01*
X88705438Y-121830438D01*
X88688168Y-121846090D01*
X88669448Y-121859974D01*
X88649457Y-121871956D01*
X88628387Y-121881921D01*
X88606443Y-121889773D01*
X88583834Y-121895437D01*
X88560779Y-121898856D01*
X88537500Y-121900000D01*
X88062500Y-121900000D01*
X88039221Y-121898856D01*
X88016166Y-121895437D01*
X87993557Y-121889773D01*
X87971613Y-121881921D01*
X87950543Y-121871956D01*
X87930552Y-121859974D01*
X87911832Y-121846090D01*
X87894562Y-121830438D01*
X87878910Y-121813168D01*
X87865026Y-121794448D01*
X87853044Y-121774457D01*
X87843079Y-121753387D01*
X87835227Y-121731443D01*
X87829563Y-121708834D01*
X87826144Y-121685779D01*
X87825000Y-121662500D01*
X87825000Y-121087500D01*
X87826144Y-121064221D01*
X87829563Y-121041166D01*
X87835227Y-121018557D01*
X87843079Y-120996613D01*
X87853044Y-120975543D01*
X87865026Y-120955552D01*
X87878910Y-120936832D01*
X87894562Y-120919562D01*
X87911832Y-120903910D01*
X87930552Y-120890026D01*
X87950543Y-120878044D01*
X87971613Y-120868079D01*
X87993557Y-120860227D01*
X88016166Y-120854563D01*
X88039221Y-120851144D01*
X88062500Y-120850000D01*
X88537500Y-120850000D01*
X88560779Y-120851144D01*
X88560779Y-120851144D01*
G37*
D16*
X88300000Y-121375000D03*
D17*
X88540000Y-132920000D03*
X82190000Y-135460000D03*
D10*
X125000000Y-101000000D03*
D11*
X127540000Y-101000000D03*
X125000000Y-103540000D03*
X127540000Y-103540000D03*
X125000000Y-106080000D03*
X127540000Y-106080000D03*
X125000000Y-108620000D03*
X127540000Y-108620000D03*
X125000000Y-111160000D03*
X127540000Y-111160000D03*
X125000000Y-113700000D03*
X127540000Y-113700000D03*
X125000000Y-116240000D03*
X127540000Y-116240000D03*
X125000000Y-118780000D03*
X127540000Y-118780000D03*
X125000000Y-121320000D03*
X127540000Y-121320000D03*
X125000000Y-123860000D03*
X127540000Y-123860000D03*
X125000000Y-126400000D03*
X127540000Y-126400000D03*
X125000000Y-128940000D03*
X127540000Y-128940000D03*
X125000000Y-131480000D03*
X127540000Y-131480000D03*
X125000000Y-134020000D03*
X127540000Y-134020000D03*
X125000000Y-136560000D03*
X127540000Y-136560000D03*
X125000000Y-139100000D03*
X127540000Y-139100000D03*
X125000000Y-141640000D03*
X127540000Y-141640000D03*
X125000000Y-144180000D03*
X127540000Y-144180000D03*
X125000000Y-146720000D03*
X127540000Y-146720000D03*
X125000000Y-149260000D03*
X127540000Y-149260000D03*
D18*
X113850000Y-136440000D03*
X112580000Y-133900000D03*
X111310000Y-136440000D03*
X110040000Y-133900000D03*
X108770000Y-136440000D03*
D19*
X107500000Y-133900000D03*
D20*
X104200000Y-129750000D03*
D15*
G36*
X103450602Y-129750000D02*
X103450602Y-129725466D01*
X103455412Y-129676635D01*
X103464984Y-129628510D01*
X103479228Y-129581555D01*
X103498005Y-129536222D01*
X103521136Y-129492949D01*
X103548396Y-129452150D01*
X103579524Y-129414221D01*
X103614221Y-129379524D01*
X103652150Y-129348396D01*
X103692949Y-129321136D01*
X103736222Y-129298005D01*
X103781555Y-129279228D01*
X103828510Y-129264984D01*
X103876635Y-129255412D01*
X103925466Y-129250602D01*
X103950000Y-129250602D01*
X103950000Y-129250000D01*
X104450000Y-129250000D01*
X104450000Y-129250602D01*
X104474534Y-129250602D01*
X104523365Y-129255412D01*
X104571490Y-129264984D01*
X104618445Y-129279228D01*
X104663778Y-129298005D01*
X104707051Y-129321136D01*
X104747850Y-129348396D01*
X104785779Y-129379524D01*
X104820476Y-129414221D01*
X104851604Y-129452150D01*
X104878864Y-129492949D01*
X104901995Y-129536222D01*
X104920772Y-129581555D01*
X104935016Y-129628510D01*
X104944588Y-129676635D01*
X104949398Y-129725466D01*
X104949398Y-129750000D01*
X104950000Y-129750000D01*
X104950000Y-130250000D01*
X103450000Y-130250000D01*
X103450000Y-129750000D01*
X103450602Y-129750000D01*
X103450602Y-129750000D01*
G37*
D20*
X104200000Y-131050000D03*
D15*
G36*
X104950000Y-130550000D02*
X104950000Y-131050000D01*
X104949398Y-131050000D01*
X104949398Y-131074534D01*
X104944588Y-131123365D01*
X104935016Y-131171490D01*
X104920772Y-131218445D01*
X104901995Y-131263778D01*
X104878864Y-131307051D01*
X104851604Y-131347850D01*
X104820476Y-131385779D01*
X104785779Y-131420476D01*
X104747850Y-131451604D01*
X104707051Y-131478864D01*
X104663778Y-131501995D01*
X104618445Y-131520772D01*
X104571490Y-131535016D01*
X104523365Y-131544588D01*
X104474534Y-131549398D01*
X104450000Y-131549398D01*
X104450000Y-131550000D01*
X103950000Y-131550000D01*
X103950000Y-131549398D01*
X103925466Y-131549398D01*
X103876635Y-131544588D01*
X103828510Y-131535016D01*
X103781555Y-131520772D01*
X103736222Y-131501995D01*
X103692949Y-131478864D01*
X103652150Y-131451604D01*
X103614221Y-131420476D01*
X103579524Y-131385779D01*
X103548396Y-131347850D01*
X103521136Y-131307051D01*
X103498005Y-131263778D01*
X103479228Y-131218445D01*
X103464984Y-131171490D01*
X103455412Y-131123365D01*
X103450602Y-131074534D01*
X103450602Y-131050000D01*
X103450000Y-131050000D01*
X103450000Y-130550000D01*
X104950000Y-130550000D01*
X104950000Y-130550000D01*
G37*
D20*
X106800000Y-131050000D03*
D15*
G36*
X107550000Y-130550000D02*
X107550000Y-131050000D01*
X107549398Y-131050000D01*
X107549398Y-131074534D01*
X107544588Y-131123365D01*
X107535016Y-131171490D01*
X107520772Y-131218445D01*
X107501995Y-131263778D01*
X107478864Y-131307051D01*
X107451604Y-131347850D01*
X107420476Y-131385779D01*
X107385779Y-131420476D01*
X107347850Y-131451604D01*
X107307051Y-131478864D01*
X107263778Y-131501995D01*
X107218445Y-131520772D01*
X107171490Y-131535016D01*
X107123365Y-131544588D01*
X107074534Y-131549398D01*
X107050000Y-131549398D01*
X107050000Y-131550000D01*
X106550000Y-131550000D01*
X106550000Y-131549398D01*
X106525466Y-131549398D01*
X106476635Y-131544588D01*
X106428510Y-131535016D01*
X106381555Y-131520772D01*
X106336222Y-131501995D01*
X106292949Y-131478864D01*
X106252150Y-131451604D01*
X106214221Y-131420476D01*
X106179524Y-131385779D01*
X106148396Y-131347850D01*
X106121136Y-131307051D01*
X106098005Y-131263778D01*
X106079228Y-131218445D01*
X106064984Y-131171490D01*
X106055412Y-131123365D01*
X106050602Y-131074534D01*
X106050602Y-131050000D01*
X106050000Y-131050000D01*
X106050000Y-130550000D01*
X107550000Y-130550000D01*
X107550000Y-130550000D01*
G37*
D20*
X106800000Y-129750000D03*
D15*
G36*
X106050602Y-129750000D02*
X106050602Y-129725466D01*
X106055412Y-129676635D01*
X106064984Y-129628510D01*
X106079228Y-129581555D01*
X106098005Y-129536222D01*
X106121136Y-129492949D01*
X106148396Y-129452150D01*
X106179524Y-129414221D01*
X106214221Y-129379524D01*
X106252150Y-129348396D01*
X106292949Y-129321136D01*
X106336222Y-129298005D01*
X106381555Y-129279228D01*
X106428510Y-129264984D01*
X106476635Y-129255412D01*
X106525466Y-129250602D01*
X106550000Y-129250602D01*
X106550000Y-129250000D01*
X107050000Y-129250000D01*
X107050000Y-129250602D01*
X107074534Y-129250602D01*
X107123365Y-129255412D01*
X107171490Y-129264984D01*
X107218445Y-129279228D01*
X107263778Y-129298005D01*
X107307051Y-129321136D01*
X107347850Y-129348396D01*
X107385779Y-129379524D01*
X107420476Y-129414221D01*
X107451604Y-129452150D01*
X107478864Y-129492949D01*
X107501995Y-129536222D01*
X107520772Y-129581555D01*
X107535016Y-129628510D01*
X107544588Y-129676635D01*
X107549398Y-129725466D01*
X107549398Y-129750000D01*
X107550000Y-129750000D01*
X107550000Y-130250000D01*
X106050000Y-130250000D01*
X106050000Y-129750000D01*
X106050602Y-129750000D01*
X106050602Y-129750000D01*
G37*
D20*
X109400000Y-131050000D03*
D15*
G36*
X110150000Y-130550000D02*
X110150000Y-131050000D01*
X110149398Y-131050000D01*
X110149398Y-131074534D01*
X110144588Y-131123365D01*
X110135016Y-131171490D01*
X110120772Y-131218445D01*
X110101995Y-131263778D01*
X110078864Y-131307051D01*
X110051604Y-131347850D01*
X110020476Y-131385779D01*
X109985779Y-131420476D01*
X109947850Y-131451604D01*
X109907051Y-131478864D01*
X109863778Y-131501995D01*
X109818445Y-131520772D01*
X109771490Y-131535016D01*
X109723365Y-131544588D01*
X109674534Y-131549398D01*
X109650000Y-131549398D01*
X109650000Y-131550000D01*
X109150000Y-131550000D01*
X109150000Y-131549398D01*
X109125466Y-131549398D01*
X109076635Y-131544588D01*
X109028510Y-131535016D01*
X108981555Y-131520772D01*
X108936222Y-131501995D01*
X108892949Y-131478864D01*
X108852150Y-131451604D01*
X108814221Y-131420476D01*
X108779524Y-131385779D01*
X108748396Y-131347850D01*
X108721136Y-131307051D01*
X108698005Y-131263778D01*
X108679228Y-131218445D01*
X108664984Y-131171490D01*
X108655412Y-131123365D01*
X108650602Y-131074534D01*
X108650602Y-131050000D01*
X108650000Y-131050000D01*
X108650000Y-130550000D01*
X110150000Y-130550000D01*
X110150000Y-130550000D01*
G37*
D20*
X109400000Y-129750000D03*
D15*
G36*
X108650602Y-129750000D02*
X108650602Y-129725466D01*
X108655412Y-129676635D01*
X108664984Y-129628510D01*
X108679228Y-129581555D01*
X108698005Y-129536222D01*
X108721136Y-129492949D01*
X108748396Y-129452150D01*
X108779524Y-129414221D01*
X108814221Y-129379524D01*
X108852150Y-129348396D01*
X108892949Y-129321136D01*
X108936222Y-129298005D01*
X108981555Y-129279228D01*
X109028510Y-129264984D01*
X109076635Y-129255412D01*
X109125466Y-129250602D01*
X109150000Y-129250602D01*
X109150000Y-129250000D01*
X109650000Y-129250000D01*
X109650000Y-129250602D01*
X109674534Y-129250602D01*
X109723365Y-129255412D01*
X109771490Y-129264984D01*
X109818445Y-129279228D01*
X109863778Y-129298005D01*
X109907051Y-129321136D01*
X109947850Y-129348396D01*
X109985779Y-129379524D01*
X110020476Y-129414221D01*
X110051604Y-129452150D01*
X110078864Y-129492949D01*
X110101995Y-129536222D01*
X110120772Y-129581555D01*
X110135016Y-129628510D01*
X110144588Y-129676635D01*
X110149398Y-129725466D01*
X110149398Y-129750000D01*
X110150000Y-129750000D01*
X110150000Y-130250000D01*
X108650000Y-130250000D01*
X108650000Y-129750000D01*
X108650602Y-129750000D01*
X108650602Y-129750000D01*
G37*
D20*
X112000000Y-129750000D03*
D15*
G36*
X111250602Y-129750000D02*
X111250602Y-129725466D01*
X111255412Y-129676635D01*
X111264984Y-129628510D01*
X111279228Y-129581555D01*
X111298005Y-129536222D01*
X111321136Y-129492949D01*
X111348396Y-129452150D01*
X111379524Y-129414221D01*
X111414221Y-129379524D01*
X111452150Y-129348396D01*
X111492949Y-129321136D01*
X111536222Y-129298005D01*
X111581555Y-129279228D01*
X111628510Y-129264984D01*
X111676635Y-129255412D01*
X111725466Y-129250602D01*
X111750000Y-129250602D01*
X111750000Y-129250000D01*
X112250000Y-129250000D01*
X112250000Y-129250602D01*
X112274534Y-129250602D01*
X112323365Y-129255412D01*
X112371490Y-129264984D01*
X112418445Y-129279228D01*
X112463778Y-129298005D01*
X112507051Y-129321136D01*
X112547850Y-129348396D01*
X112585779Y-129379524D01*
X112620476Y-129414221D01*
X112651604Y-129452150D01*
X112678864Y-129492949D01*
X112701995Y-129536222D01*
X112720772Y-129581555D01*
X112735016Y-129628510D01*
X112744588Y-129676635D01*
X112749398Y-129725466D01*
X112749398Y-129750000D01*
X112750000Y-129750000D01*
X112750000Y-130250000D01*
X111250000Y-130250000D01*
X111250000Y-129750000D01*
X111250602Y-129750000D01*
X111250602Y-129750000D01*
G37*
D20*
X112000000Y-131050000D03*
D15*
G36*
X112750000Y-130550000D02*
X112750000Y-131050000D01*
X112749398Y-131050000D01*
X112749398Y-131074534D01*
X112744588Y-131123365D01*
X112735016Y-131171490D01*
X112720772Y-131218445D01*
X112701995Y-131263778D01*
X112678864Y-131307051D01*
X112651604Y-131347850D01*
X112620476Y-131385779D01*
X112585779Y-131420476D01*
X112547850Y-131451604D01*
X112507051Y-131478864D01*
X112463778Y-131501995D01*
X112418445Y-131520772D01*
X112371490Y-131535016D01*
X112323365Y-131544588D01*
X112274534Y-131549398D01*
X112250000Y-131549398D01*
X112250000Y-131550000D01*
X111750000Y-131550000D01*
X111750000Y-131549398D01*
X111725466Y-131549398D01*
X111676635Y-131544588D01*
X111628510Y-131535016D01*
X111581555Y-131520772D01*
X111536222Y-131501995D01*
X111492949Y-131478864D01*
X111452150Y-131451604D01*
X111414221Y-131420476D01*
X111379524Y-131385779D01*
X111348396Y-131347850D01*
X111321136Y-131307051D01*
X111298005Y-131263778D01*
X111279228Y-131218445D01*
X111264984Y-131171490D01*
X111255412Y-131123365D01*
X111250602Y-131074534D01*
X111250602Y-131050000D01*
X111250000Y-131050000D01*
X111250000Y-130550000D01*
X112750000Y-130550000D01*
X112750000Y-130550000D01*
G37*
D20*
X114600000Y-131050000D03*
D15*
G36*
X115350000Y-130550000D02*
X115350000Y-131050000D01*
X115349398Y-131050000D01*
X115349398Y-131074534D01*
X115344588Y-131123365D01*
X115335016Y-131171490D01*
X115320772Y-131218445D01*
X115301995Y-131263778D01*
X115278864Y-131307051D01*
X115251604Y-131347850D01*
X115220476Y-131385779D01*
X115185779Y-131420476D01*
X115147850Y-131451604D01*
X115107051Y-131478864D01*
X115063778Y-131501995D01*
X115018445Y-131520772D01*
X114971490Y-131535016D01*
X114923365Y-131544588D01*
X114874534Y-131549398D01*
X114850000Y-131549398D01*
X114850000Y-131550000D01*
X114350000Y-131550000D01*
X114350000Y-131549398D01*
X114325466Y-131549398D01*
X114276635Y-131544588D01*
X114228510Y-131535016D01*
X114181555Y-131520772D01*
X114136222Y-131501995D01*
X114092949Y-131478864D01*
X114052150Y-131451604D01*
X114014221Y-131420476D01*
X113979524Y-131385779D01*
X113948396Y-131347850D01*
X113921136Y-131307051D01*
X113898005Y-131263778D01*
X113879228Y-131218445D01*
X113864984Y-131171490D01*
X113855412Y-131123365D01*
X113850602Y-131074534D01*
X113850602Y-131050000D01*
X113850000Y-131050000D01*
X113850000Y-130550000D01*
X115350000Y-130550000D01*
X115350000Y-130550000D01*
G37*
D20*
X114600000Y-129750000D03*
D15*
G36*
X113850602Y-129750000D02*
X113850602Y-129725466D01*
X113855412Y-129676635D01*
X113864984Y-129628510D01*
X113879228Y-129581555D01*
X113898005Y-129536222D01*
X113921136Y-129492949D01*
X113948396Y-129452150D01*
X113979524Y-129414221D01*
X114014221Y-129379524D01*
X114052150Y-129348396D01*
X114092949Y-129321136D01*
X114136222Y-129298005D01*
X114181555Y-129279228D01*
X114228510Y-129264984D01*
X114276635Y-129255412D01*
X114325466Y-129250602D01*
X114350000Y-129250602D01*
X114350000Y-129250000D01*
X114850000Y-129250000D01*
X114850000Y-129250602D01*
X114874534Y-129250602D01*
X114923365Y-129255412D01*
X114971490Y-129264984D01*
X115018445Y-129279228D01*
X115063778Y-129298005D01*
X115107051Y-129321136D01*
X115147850Y-129348396D01*
X115185779Y-129379524D01*
X115220476Y-129414221D01*
X115251604Y-129452150D01*
X115278864Y-129492949D01*
X115301995Y-129536222D01*
X115320772Y-129581555D01*
X115335016Y-129628510D01*
X115344588Y-129676635D01*
X115349398Y-129725466D01*
X115349398Y-129750000D01*
X115350000Y-129750000D01*
X115350000Y-130250000D01*
X113850000Y-130250000D01*
X113850000Y-129750000D01*
X113850602Y-129750000D01*
X113850602Y-129750000D01*
G37*
D20*
X117200000Y-129750000D03*
D15*
G36*
X116450602Y-129750000D02*
X116450602Y-129725466D01*
X116455412Y-129676635D01*
X116464984Y-129628510D01*
X116479228Y-129581555D01*
X116498005Y-129536222D01*
X116521136Y-129492949D01*
X116548396Y-129452150D01*
X116579524Y-129414221D01*
X116614221Y-129379524D01*
X116652150Y-129348396D01*
X116692949Y-129321136D01*
X116736222Y-129298005D01*
X116781555Y-129279228D01*
X116828510Y-129264984D01*
X116876635Y-129255412D01*
X116925466Y-129250602D01*
X116950000Y-129250602D01*
X116950000Y-129250000D01*
X117450000Y-129250000D01*
X117450000Y-129250602D01*
X117474534Y-129250602D01*
X117523365Y-129255412D01*
X117571490Y-129264984D01*
X117618445Y-129279228D01*
X117663778Y-129298005D01*
X117707051Y-129321136D01*
X117747850Y-129348396D01*
X117785779Y-129379524D01*
X117820476Y-129414221D01*
X117851604Y-129452150D01*
X117878864Y-129492949D01*
X117901995Y-129536222D01*
X117920772Y-129581555D01*
X117935016Y-129628510D01*
X117944588Y-129676635D01*
X117949398Y-129725466D01*
X117949398Y-129750000D01*
X117950000Y-129750000D01*
X117950000Y-130250000D01*
X116450000Y-130250000D01*
X116450000Y-129750000D01*
X116450602Y-129750000D01*
X116450602Y-129750000D01*
G37*
D20*
X117200000Y-131050000D03*
D15*
G36*
X117950000Y-130550000D02*
X117950000Y-131050000D01*
X117949398Y-131050000D01*
X117949398Y-131074534D01*
X117944588Y-131123365D01*
X117935016Y-131171490D01*
X117920772Y-131218445D01*
X117901995Y-131263778D01*
X117878864Y-131307051D01*
X117851604Y-131347850D01*
X117820476Y-131385779D01*
X117785779Y-131420476D01*
X117747850Y-131451604D01*
X117707051Y-131478864D01*
X117663778Y-131501995D01*
X117618445Y-131520772D01*
X117571490Y-131535016D01*
X117523365Y-131544588D01*
X117474534Y-131549398D01*
X117450000Y-131549398D01*
X117450000Y-131550000D01*
X116950000Y-131550000D01*
X116950000Y-131549398D01*
X116925466Y-131549398D01*
X116876635Y-131544588D01*
X116828510Y-131535016D01*
X116781555Y-131520772D01*
X116736222Y-131501995D01*
X116692949Y-131478864D01*
X116652150Y-131451604D01*
X116614221Y-131420476D01*
X116579524Y-131385779D01*
X116548396Y-131347850D01*
X116521136Y-131307051D01*
X116498005Y-131263778D01*
X116479228Y-131218445D01*
X116464984Y-131171490D01*
X116455412Y-131123365D01*
X116450602Y-131074534D01*
X116450602Y-131050000D01*
X116450000Y-131050000D01*
X116450000Y-130550000D01*
X117950000Y-130550000D01*
X117950000Y-130550000D01*
G37*
D21*
X88000000Y-101250000D03*
X85000000Y-101250000D03*
X88000000Y-102500000D03*
X88000000Y-100000000D03*
X87250000Y-100750000D03*
X86500000Y-101500000D03*
X85750000Y-100750000D03*
X85000000Y-102500000D03*
X85000000Y-100000000D03*
X130250000Y-134500000D03*
X121500000Y-128250000D03*
X119250000Y-128750000D03*
X112250000Y-125500000D03*
X106500000Y-125500000D03*
X112500000Y-120500000D03*
X120750000Y-119250000D03*
X119500000Y-119100000D03*
X110400000Y-121000000D03*
X104000000Y-121100000D03*
X105100000Y-115400000D03*
X111600000Y-115800000D03*
X114100000Y-115800000D03*
X107200000Y-122300000D03*
X114300000Y-122200000D03*
X101700000Y-121000000D03*
X112300000Y-122100000D03*
X105300000Y-121100000D03*
X114600000Y-128500000D03*
X122800000Y-130200000D03*
X104200000Y-129750000D03*
X107200000Y-115400000D03*
X100700000Y-115400000D03*
X121900000Y-130200000D03*
X114600000Y-129750000D03*
X117200000Y-129750000D03*
X112000000Y-129750000D03*
X109400000Y-129750000D03*
X106800000Y-129750000D03*
D22*
X110400000Y-119000000D02*
X110400000Y-115500000D01*
X110500000Y-119100000D02*
X110400000Y-119000000D01*
X110400000Y-121000000D02*
X110400000Y-119000000D01*
X119500000Y-119100000D02*
X110500000Y-119100000D01*
X111600000Y-115800000D02*
X111034315Y-115800000D01*
X111034315Y-115800000D02*
X110634315Y-115400000D01*
X110634315Y-115400000D02*
X110300000Y-115400000D01*
X110400000Y-115500000D02*
X110300000Y-115400000D01*
X104000000Y-115400000D02*
X103800000Y-115400000D01*
X104000000Y-121100000D02*
X104000000Y-115400000D01*
X105100000Y-115400000D02*
X104000000Y-115400000D01*
X107200000Y-115400000D02*
X105100000Y-115400000D01*
D23*
X103400000Y-128950000D02*
X104200000Y-129750000D01*
X96600000Y-128950000D02*
X103400000Y-128950000D01*
X98200000Y-115400000D02*
X94600000Y-119000000D01*
X94600000Y-119000000D02*
X94600000Y-126950000D01*
X100700000Y-115400000D02*
X98200000Y-115400000D01*
X94600000Y-126950000D02*
X96600000Y-128950000D01*
D22*
X107200000Y-115400000D02*
X110300000Y-115400000D01*
X103800000Y-115400000D02*
X100700000Y-115400000D01*
X107100000Y-123100000D02*
X103800000Y-123100000D01*
D24*
X107200000Y-122300000D02*
X107200000Y-122865685D01*
X107200000Y-122865685D02*
X107100000Y-122965685D01*
X107100000Y-122965685D02*
X107100000Y-123100000D01*
D22*
X114300000Y-123100000D02*
X107100000Y-123100000D01*
X115200000Y-123100000D02*
X114300000Y-123100000D01*
D24*
X114300000Y-122765685D02*
X114300000Y-123100000D01*
X114300000Y-122200000D02*
X114300000Y-122765685D01*
D22*
X103800000Y-123100000D02*
X101700000Y-121000000D01*
X117700000Y-120600000D02*
X115200000Y-123100000D01*
X118500000Y-120600000D02*
X122200000Y-120600000D01*
X118500000Y-120600000D02*
X117700000Y-120600000D01*
D24*
X126250000Y-101200000D02*
X126250000Y-120070000D01*
X126250000Y-120070000D02*
X125000000Y-121320000D01*
X125000000Y-101000000D02*
X126050000Y-101000000D01*
X126050000Y-101000000D02*
X126250000Y-101200000D01*
D25*
X123400000Y-103000000D02*
X123400000Y-102600000D01*
X123400000Y-102600000D02*
X125000000Y-101000000D01*
X120700000Y-105700000D02*
X123400000Y-103000000D01*
X108150000Y-105700000D02*
X120700000Y-105700000D01*
X105200000Y-100900000D02*
X105200000Y-102750000D01*
X105200000Y-102750000D02*
X108150000Y-105700000D01*
D22*
X122920000Y-121320000D02*
X125000000Y-121320000D01*
X122200000Y-120600000D02*
X122920000Y-121320000D01*
X109000000Y-122100000D02*
X112300000Y-122100000D01*
X108000000Y-121100000D02*
X109000000Y-122100000D01*
X105300000Y-121100000D02*
X108000000Y-121100000D01*
D26*
X127540000Y-103540000D02*
X127540000Y-101000000D01*
D25*
X114600000Y-128500000D02*
X114600000Y-129750000D01*
D27*
X83700000Y-121375000D02*
X81815000Y-121375000D01*
X81815000Y-121375000D02*
X81200000Y-120760000D01*
X88300000Y-121375000D02*
X90185000Y-121375000D01*
X90185000Y-121375000D02*
X90800000Y-120760000D01*
D28*
X121929999Y-130229999D02*
X121900000Y-130200000D01*
X123029999Y-130229999D02*
X121929999Y-130229999D01*
D22*
X130289999Y-127689999D02*
X123900000Y-127689999D01*
X123900000Y-127689999D02*
X123029999Y-128560000D01*
X123029999Y-128560000D02*
X123029999Y-130229999D01*
X123469999Y-132769999D02*
X123029999Y-132329999D01*
X123029999Y-132329999D02*
X123029999Y-130229999D01*
X130300000Y-131700000D02*
X129230001Y-132769999D01*
X129230001Y-132769999D02*
X123469999Y-132769999D01*
X130300000Y-129400000D02*
X130300000Y-131700000D01*
X129900000Y-129400000D02*
X129070001Y-130229999D01*
X129070001Y-130229999D02*
X123029999Y-130229999D01*
D26*
X130300000Y-127700000D02*
X130300000Y-129400000D01*
D22*
X130300000Y-129400000D02*
X129900000Y-129400000D01*
D26*
X130300000Y-104400000D02*
X130300000Y-127700000D01*
D22*
X130300000Y-127700000D02*
X130289999Y-127689999D01*
D26*
X129440000Y-103540000D02*
X130300000Y-104400000D01*
X127540000Y-103540000D02*
X129440000Y-103540000D01*
D22*
X88300000Y-118400000D02*
X92800000Y-113900000D01*
X88300000Y-119625000D02*
X88300000Y-118400000D01*
X92800000Y-113900000D02*
X118850000Y-113900000D01*
X118850000Y-113900000D02*
X121190000Y-116240000D01*
X121190000Y-116240000D02*
X123797919Y-116240000D01*
X123797919Y-116240000D02*
X125000000Y-116240000D01*
X88500000Y-113100000D02*
X120300000Y-113100000D01*
X83700000Y-117900000D02*
X88500000Y-113100000D01*
X83700000Y-119625000D02*
X83700000Y-117900000D01*
X120900000Y-113700000D02*
X125000000Y-113700000D01*
X120300000Y-113100000D02*
X120900000Y-113700000D01*
D24*
X82190000Y-135460000D02*
X93400000Y-124250000D01*
X95950000Y-114500000D02*
X118050000Y-114500000D01*
X93400000Y-124250000D02*
X93400000Y-117050000D01*
X93400000Y-117050000D02*
X95950000Y-114500000D01*
X118050000Y-114500000D02*
X122330000Y-118780000D01*
X122330000Y-118780000D02*
X125000000Y-118780000D01*
X113850000Y-136440000D02*
X117200000Y-133090000D01*
X117200000Y-133090000D02*
X117200000Y-131050000D01*
D23*
X114600000Y-131700000D02*
X114600000Y-131050000D01*
D29*
X114600000Y-132954802D02*
X114600000Y-131700000D01*
X112580000Y-133900000D02*
X113654802Y-133900000D01*
X113654802Y-133900000D02*
X114600000Y-132954802D01*
D24*
X111310000Y-132890000D02*
X112000000Y-132200000D01*
X111310000Y-136440000D02*
X111310000Y-132890000D01*
X112000000Y-132200000D02*
X112000000Y-131050000D01*
X110040000Y-133900000D02*
X110040000Y-131690000D01*
X110040000Y-131690000D02*
X109400000Y-131050000D01*
X107200000Y-132400000D02*
X106800000Y-132000000D01*
X106800000Y-132000000D02*
X106800000Y-131050000D01*
X108400000Y-132400000D02*
X107200000Y-132400000D01*
X108770000Y-132770000D02*
X108400000Y-132400000D01*
X108770000Y-136440000D02*
X108770000Y-132770000D01*
D23*
X104200000Y-131600000D02*
X104200000Y-131050000D01*
D29*
X104200000Y-132760000D02*
X104200000Y-131600000D01*
X107500000Y-133900000D02*
X105340000Y-133900000D01*
X105340000Y-133900000D02*
X104200000Y-132760000D01*
D30*
G36*
X129871023Y-98897167D02*
X130609439Y-99390561D01*
X131102833Y-100128977D01*
X131290000Y-101069931D01*
X131290000Y-103335638D01*
X131214759Y-103285364D01*
X130554638Y-102625243D01*
X130474577Y-102505423D01*
X129999909Y-102188260D01*
X129581333Y-102105000D01*
X129581328Y-102105000D01*
X129440000Y-102076888D01*
X129298672Y-102105000D01*
X128975000Y-102105000D01*
X128975000Y-101397624D01*
X129054092Y-101000000D01*
X128938839Y-100420582D01*
X128610625Y-99929375D01*
X128119418Y-99601161D01*
X127686256Y-99515000D01*
X127393744Y-99515000D01*
X126960582Y-99601161D01*
X126469375Y-99929375D01*
X126457184Y-99947619D01*
X126448157Y-99902235D01*
X126307809Y-99692191D01*
X126097765Y-99551843D01*
X125850000Y-99502560D01*
X124150000Y-99502560D01*
X123902235Y-99551843D01*
X123692191Y-99692191D01*
X123551843Y-99902235D01*
X123502560Y-100150000D01*
X123502560Y-100892308D01*
X122676480Y-101718389D01*
X122581712Y-101781711D01*
X122330854Y-102157145D01*
X122292860Y-102348157D01*
X122254658Y-102540210D01*
X120229869Y-104565000D01*
X108620132Y-104565000D01*
X106361021Y-102305890D01*
X106507809Y-102207809D01*
X106648157Y-101997765D01*
X106668739Y-101894292D01*
X106973076Y-102171645D01*
X107383110Y-102341476D01*
X107613000Y-102220155D01*
X107613000Y-101027000D01*
X107593000Y-101027000D01*
X107593000Y-100773000D01*
X107613000Y-100773000D01*
X107613000Y-99579845D01*
X107867000Y-99579845D01*
X107867000Y-100773000D01*
X107887000Y-100773000D01*
X107887000Y-101027000D01*
X107867000Y-101027000D01*
X107867000Y-102220155D01*
X108096890Y-102341476D01*
X108506924Y-102171645D01*
X108935183Y-101781358D01*
X108996157Y-101651522D01*
X109209375Y-101970625D01*
X109700582Y-102298839D01*
X110133744Y-102385000D01*
X110426256Y-102385000D01*
X110859418Y-102298839D01*
X111350625Y-101970625D01*
X111550000Y-101672239D01*
X111749375Y-101970625D01*
X112240582Y-102298839D01*
X112673744Y-102385000D01*
X112966256Y-102385000D01*
X113399418Y-102298839D01*
X113890625Y-101970625D01*
X114063940Y-101711241D01*
X114354263Y-102145738D01*
X114815699Y-102454061D01*
X115360000Y-102562329D01*
X115904302Y-102454061D01*
X116365738Y-102145738D01*
X116674061Y-101684301D01*
X116755000Y-101277392D01*
X116755000Y-100805431D01*
X117165000Y-100805431D01*
X117165000Y-101694569D01*
X117505259Y-102516026D01*
X118133974Y-103144741D01*
X118955431Y-103485000D01*
X119844569Y-103485000D01*
X120666026Y-103144741D01*
X121294741Y-102516026D01*
X121635000Y-101694569D01*
X121635000Y-100805431D01*
X121294741Y-99983974D01*
X120666026Y-99355259D01*
X119844569Y-99015000D01*
X118955431Y-99015000D01*
X118133974Y-99355259D01*
X117505259Y-99983974D01*
X117165000Y-100805431D01*
X116755000Y-100805431D01*
X116755000Y-100522607D01*
X116674061Y-100115698D01*
X116365737Y-99654262D01*
X115904301Y-99345939D01*
X115360000Y-99237671D01*
X114815698Y-99345939D01*
X114354262Y-99654263D01*
X114063940Y-100088759D01*
X113890625Y-99829375D01*
X113399418Y-99501161D01*
X112966256Y-99415000D01*
X112673744Y-99415000D01*
X112240582Y-99501161D01*
X111749375Y-99829375D01*
X111550000Y-100127761D01*
X111350625Y-99829375D01*
X110859418Y-99501161D01*
X110426256Y-99415000D01*
X110133744Y-99415000D01*
X109700582Y-99501161D01*
X109209375Y-99829375D01*
X108996157Y-100148478D01*
X108935183Y-100018642D01*
X108506924Y-99628355D01*
X108096890Y-99458524D01*
X107867000Y-99579845D01*
X107613000Y-99579845D01*
X107383110Y-99458524D01*
X106973076Y-99628355D01*
X106668739Y-99905708D01*
X106648157Y-99802235D01*
X106507809Y-99592191D01*
X106297765Y-99451843D01*
X106050000Y-99402560D01*
X104350000Y-99402560D01*
X104102235Y-99451843D01*
X103892191Y-99592191D01*
X103751843Y-99802235D01*
X103702560Y-100050000D01*
X103702560Y-101750000D01*
X103751843Y-101997765D01*
X103892191Y-102207809D01*
X104065001Y-102323278D01*
X104065001Y-102638212D01*
X104042765Y-102750000D01*
X104130854Y-103192854D01*
X104130855Y-103192855D01*
X104381712Y-103568289D01*
X104476480Y-103631611D01*
X107268389Y-106423521D01*
X107331711Y-106518289D01*
X107707145Y-106769146D01*
X108149999Y-106857235D01*
X108261782Y-106835000D01*
X120588217Y-106835000D01*
X120700000Y-106857235D01*
X120811783Y-106835000D01*
X121142855Y-106769146D01*
X121518289Y-106518289D01*
X121581613Y-106423518D01*
X123715137Y-104289995D01*
X123929375Y-104610625D01*
X124227761Y-104810000D01*
X123929375Y-105009375D01*
X123601161Y-105500582D01*
X123485908Y-106080000D01*
X123601161Y-106659418D01*
X123929375Y-107150625D01*
X124227761Y-107350000D01*
X123929375Y-107549375D01*
X123601161Y-108040582D01*
X123485908Y-108620000D01*
X123601161Y-109199418D01*
X123929375Y-109690625D01*
X124248478Y-109903843D01*
X124118642Y-109964817D01*
X123728355Y-110393076D01*
X123558524Y-110803110D01*
X123679845Y-111033000D01*
X124873000Y-111033000D01*
X124873000Y-111013000D01*
X125127000Y-111013000D01*
X125127000Y-111033000D01*
X125147000Y-111033000D01*
X125147000Y-111287000D01*
X125127000Y-111287000D01*
X125127000Y-111307000D01*
X124873000Y-111307000D01*
X124873000Y-111287000D01*
X123679845Y-111287000D01*
X123558524Y-111516890D01*
X123728355Y-111926924D01*
X124118642Y-112355183D01*
X124248478Y-112416157D01*
X123929375Y-112629375D01*
X123771935Y-112865000D01*
X121245868Y-112865000D01*
X120948587Y-112567720D01*
X120902001Y-112497999D01*
X120625801Y-112313448D01*
X120382237Y-112265000D01*
X120382233Y-112265000D01*
X120300000Y-112248643D01*
X120217767Y-112265000D01*
X88582232Y-112265000D01*
X88499999Y-112248643D01*
X88417766Y-112265000D01*
X88417763Y-112265000D01*
X88174199Y-112313448D01*
X87897999Y-112497999D01*
X87851415Y-112567717D01*
X83167718Y-117251415D01*
X83098000Y-117297999D01*
X83051416Y-117367717D01*
X82913448Y-117574200D01*
X82848643Y-117900000D01*
X82865001Y-117982238D01*
X82865001Y-118692879D01*
X82836753Y-118711753D01*
X82644922Y-118998848D01*
X82577560Y-119337500D01*
X82577560Y-119912500D01*
X82639584Y-120224315D01*
X82501310Y-119890493D01*
X82069507Y-119458690D01*
X81505330Y-119225000D01*
X80894670Y-119225000D01*
X80330493Y-119458690D01*
X79898690Y-119890493D01*
X79665000Y-120454670D01*
X79665000Y-121065330D01*
X79898690Y-121629507D01*
X80075044Y-121805861D01*
X79940301Y-121861673D01*
X79761673Y-122040302D01*
X79665000Y-122273691D01*
X79665000Y-123014250D01*
X79823750Y-123173000D01*
X81073000Y-123173000D01*
X81073000Y-123153000D01*
X81327000Y-123153000D01*
X81327000Y-123173000D01*
X82576250Y-123173000D01*
X82735000Y-123014250D01*
X82735000Y-122410000D01*
X83018969Y-122410000D01*
X83123848Y-122480078D01*
X83462500Y-122547440D01*
X83937500Y-122547440D01*
X84276152Y-122480078D01*
X84563247Y-122288247D01*
X84755078Y-122001152D01*
X84822440Y-121662500D01*
X84822440Y-121087500D01*
X84755078Y-120748848D01*
X84588803Y-120500000D01*
X84755078Y-120251152D01*
X84822440Y-119912500D01*
X84822440Y-119337500D01*
X84755078Y-118998848D01*
X84563247Y-118711753D01*
X84535000Y-118692879D01*
X84535000Y-118245867D01*
X88845868Y-113935000D01*
X91584132Y-113935000D01*
X87767718Y-117751415D01*
X87698000Y-117797999D01*
X87651416Y-117867717D01*
X87513448Y-118074200D01*
X87448643Y-118400000D01*
X87465001Y-118482237D01*
X87465001Y-118692878D01*
X87436753Y-118711753D01*
X87244922Y-118998848D01*
X87177560Y-119337500D01*
X87177560Y-119912500D01*
X87244922Y-120251152D01*
X87411197Y-120500000D01*
X87244922Y-120748848D01*
X87177560Y-121087500D01*
X87177560Y-121662500D01*
X87244922Y-122001152D01*
X87436753Y-122288247D01*
X87723848Y-122480078D01*
X88062500Y-122547440D01*
X88537500Y-122547440D01*
X88876152Y-122480078D01*
X88981031Y-122410000D01*
X89265000Y-122410000D01*
X89265000Y-123014250D01*
X89423750Y-123173000D01*
X90673000Y-123173000D01*
X90673000Y-123153000D01*
X90927000Y-123153000D01*
X90927000Y-123173000D01*
X92176250Y-123173000D01*
X92335000Y-123014250D01*
X92335000Y-122273691D01*
X92238327Y-122040302D01*
X92059699Y-121861673D01*
X91924956Y-121805861D01*
X92101310Y-121629507D01*
X92335000Y-121065330D01*
X92335000Y-120454670D01*
X92101310Y-119890493D01*
X91669507Y-119458690D01*
X91105330Y-119225000D01*
X90494670Y-119225000D01*
X89930493Y-119458690D01*
X89498690Y-119890493D01*
X89360416Y-120224315D01*
X89422440Y-119912500D01*
X89422440Y-119337500D01*
X89355078Y-118998848D01*
X89165597Y-118715270D01*
X93145868Y-114735000D01*
X94675553Y-114735000D01*
X92931463Y-116479091D01*
X92870096Y-116520095D01*
X92829092Y-116581462D01*
X92829091Y-116581463D01*
X92707646Y-116763218D01*
X92650602Y-117050000D01*
X92665001Y-117122389D01*
X92665000Y-123945553D01*
X92335000Y-124275553D01*
X92335000Y-123585750D01*
X92176250Y-123427000D01*
X90927000Y-123427000D01*
X90927000Y-124676250D01*
X91085750Y-124835000D01*
X91775553Y-124835000D01*
X82782912Y-133827642D01*
X82535113Y-133725000D01*
X81844887Y-133725000D01*
X81207201Y-133989138D01*
X80719138Y-134477201D01*
X80455000Y-135114887D01*
X80455000Y-135805113D01*
X80719138Y-136442799D01*
X80791339Y-136515000D01*
X80624615Y-136515000D01*
X80078815Y-136741078D01*
X79661078Y-137158815D01*
X79435000Y-137704615D01*
X79435000Y-138295385D01*
X79661078Y-138841185D01*
X80078815Y-139258922D01*
X80624615Y-139485000D01*
X81215385Y-139485000D01*
X81761185Y-139258922D01*
X82178922Y-138841185D01*
X82405000Y-138295385D01*
X82405000Y-137704615D01*
X82310249Y-137475866D01*
X83365000Y-137475866D01*
X83365000Y-138524134D01*
X83766155Y-139492608D01*
X84507392Y-140233845D01*
X85475866Y-140635000D01*
X86524134Y-140635000D01*
X87492608Y-140233845D01*
X88233845Y-139492608D01*
X88635000Y-138524134D01*
X88635000Y-137704615D01*
X89595000Y-137704615D01*
X89595000Y-138295385D01*
X89821078Y-138841185D01*
X90238815Y-139258922D01*
X90784615Y-139485000D01*
X91375385Y-139485000D01*
X91921185Y-139258922D01*
X92338922Y-138841185D01*
X92565000Y-138295385D01*
X92565000Y-137704615D01*
X92338922Y-137158815D01*
X91921185Y-136741078D01*
X91375385Y-136515000D01*
X90784615Y-136515000D01*
X90238815Y-136741078D01*
X89821078Y-137158815D01*
X89595000Y-137704615D01*
X88635000Y-137704615D01*
X88635000Y-137475866D01*
X88233845Y-136507392D01*
X87492608Y-135766155D01*
X86524134Y-135365000D01*
X85475866Y-135365000D01*
X84507392Y-135766155D01*
X83766155Y-136507392D01*
X83365000Y-137475866D01*
X82310249Y-137475866D01*
X82193910Y-137195000D01*
X82535113Y-137195000D01*
X83172799Y-136930862D01*
X83660862Y-136442799D01*
X83925000Y-135805113D01*
X83925000Y-135114887D01*
X83822358Y-134867088D01*
X84544578Y-134144868D01*
X87494737Y-134144868D01*
X87605641Y-134422099D01*
X88251593Y-134665323D01*
X88941453Y-134642836D01*
X89474359Y-134422099D01*
X89585263Y-134144868D01*
X88540000Y-133099605D01*
X87494737Y-134144868D01*
X84544578Y-134144868D01*
X86057853Y-132631593D01*
X86794677Y-132631593D01*
X86817164Y-133321453D01*
X87037901Y-133854359D01*
X87315132Y-133965263D01*
X88360395Y-132920000D01*
X88719605Y-132920000D01*
X89764868Y-133965263D01*
X90042099Y-133854359D01*
X90285323Y-133208407D01*
X90262836Y-132518547D01*
X90042099Y-131985641D01*
X89764868Y-131874737D01*
X88719605Y-132920000D01*
X88360395Y-132920000D01*
X87315132Y-131874737D01*
X87037901Y-131985641D01*
X86794677Y-132631593D01*
X86057853Y-132631593D01*
X86994314Y-131695132D01*
X87494737Y-131695132D01*
X88540000Y-132740395D01*
X89585263Y-131695132D01*
X89474359Y-131417901D01*
X88828407Y-131174677D01*
X88138547Y-131197164D01*
X87605641Y-131417901D01*
X87494737Y-131695132D01*
X86994314Y-131695132D01*
X88939446Y-129750000D01*
X102802560Y-129750000D01*
X102802560Y-130250000D01*
X102832397Y-130400000D01*
X102802560Y-130550000D01*
X102802560Y-131050000D01*
X102804968Y-131062106D01*
X102804968Y-131099009D01*
X102817408Y-131225318D01*
X102836530Y-131321451D01*
X102871392Y-131436378D01*
X102865000Y-131468515D01*
X102865000Y-132628519D01*
X102838847Y-132760000D01*
X102865000Y-132891481D01*
X102865000Y-132891484D01*
X102921750Y-133176782D01*
X102942458Y-133280890D01*
X103072621Y-133475692D01*
X103237519Y-133722480D01*
X103348986Y-133796960D01*
X104303039Y-134751014D01*
X104377519Y-134862481D01*
X104819109Y-135157542D01*
X105208515Y-135235000D01*
X105208519Y-135235000D01*
X105339999Y-135261153D01*
X105471479Y-135235000D01*
X106457578Y-135235000D01*
X106492235Y-135258157D01*
X106740000Y-135307440D01*
X107929732Y-135307440D01*
X107587376Y-135649796D01*
X107375000Y-136162517D01*
X107375000Y-136717483D01*
X107587376Y-137230204D01*
X107979796Y-137622624D01*
X108492517Y-137835000D01*
X109047483Y-137835000D01*
X109560204Y-137622624D01*
X109952624Y-137230204D01*
X110040000Y-137019260D01*
X110127376Y-137230204D01*
X110519796Y-137622624D01*
X111032517Y-137835000D01*
X111587483Y-137835000D01*
X112100204Y-137622624D01*
X112492624Y-137230204D01*
X112580000Y-137019260D01*
X112667376Y-137230204D01*
X113059796Y-137622624D01*
X113572517Y-137835000D01*
X114127483Y-137835000D01*
X114640204Y-137622624D01*
X115032624Y-137230204D01*
X115245000Y-136717483D01*
X115245000Y-136162517D01*
X115222134Y-136107313D01*
X117668538Y-133660909D01*
X117729905Y-133619905D01*
X117892354Y-133376783D01*
X117935000Y-133162388D01*
X117935000Y-133162385D01*
X117949398Y-133090001D01*
X117935000Y-133017617D01*
X117935000Y-132088296D01*
X118045397Y-132029287D01*
X118126896Y-131974831D01*
X118225006Y-131894314D01*
X118294314Y-131825006D01*
X118374831Y-131726896D01*
X118429287Y-131645397D01*
X118489119Y-131533460D01*
X118526628Y-131442904D01*
X118563470Y-131321451D01*
X118582592Y-131225318D01*
X118595032Y-131099009D01*
X118595032Y-131062106D01*
X118597440Y-131050000D01*
X118597440Y-130550000D01*
X118567603Y-130400000D01*
X118597440Y-130250000D01*
X118597440Y-129750000D01*
X118595032Y-129737894D01*
X118595032Y-129700991D01*
X118582592Y-129574682D01*
X118563470Y-129478549D01*
X118526628Y-129357096D01*
X118489119Y-129266540D01*
X118429287Y-129154603D01*
X118374831Y-129073104D01*
X118294314Y-128974994D01*
X118225006Y-128905686D01*
X118126896Y-128825169D01*
X118045397Y-128770713D01*
X117933460Y-128710881D01*
X117842904Y-128673372D01*
X117721451Y-128636530D01*
X117625318Y-128617408D01*
X117499009Y-128604968D01*
X117462106Y-128604968D01*
X117450000Y-128602560D01*
X116950000Y-128602560D01*
X116937894Y-128604968D01*
X116900991Y-128604968D01*
X116774682Y-128617408D01*
X116678549Y-128636530D01*
X116557096Y-128673372D01*
X116466540Y-128710881D01*
X116354603Y-128770713D01*
X116273104Y-128825169D01*
X116174994Y-128905686D01*
X116105686Y-128974994D01*
X116025169Y-129073104D01*
X115970713Y-129154603D01*
X115910881Y-129266540D01*
X115900000Y-129292809D01*
X115889119Y-129266540D01*
X115829287Y-129154603D01*
X115774831Y-129073104D01*
X115735000Y-129024570D01*
X115735000Y-128388217D01*
X115669146Y-128057145D01*
X115418289Y-127681711D01*
X115042854Y-127430854D01*
X114600000Y-127342765D01*
X114157145Y-127430854D01*
X113781711Y-127681711D01*
X113530854Y-128057146D01*
X113465000Y-128388218D01*
X113465000Y-129024570D01*
X113425169Y-129073104D01*
X113370713Y-129154603D01*
X113310881Y-129266540D01*
X113300000Y-129292809D01*
X113289119Y-129266540D01*
X113229287Y-129154603D01*
X113174831Y-129073104D01*
X113094314Y-128974994D01*
X113025006Y-128905686D01*
X112926896Y-128825169D01*
X112845397Y-128770713D01*
X112733460Y-128710881D01*
X112642904Y-128673372D01*
X112521451Y-128636530D01*
X112425318Y-128617408D01*
X112299009Y-128604968D01*
X112262106Y-128604968D01*
X112250000Y-128602560D01*
X111750000Y-128602560D01*
X111737894Y-128604968D01*
X111700991Y-128604968D01*
X111574682Y-128617408D01*
X111478549Y-128636530D01*
X111357096Y-128673372D01*
X111266540Y-128710881D01*
X111154603Y-128770713D01*
X111073104Y-128825169D01*
X110974994Y-128905686D01*
X110905686Y-128974994D01*
X110825169Y-129073104D01*
X110770713Y-129154603D01*
X110710881Y-129266540D01*
X110700000Y-129292809D01*
X110689119Y-129266540D01*
X110629287Y-129154603D01*
X110574831Y-129073104D01*
X110494314Y-128974994D01*
X110425006Y-128905686D01*
X110326896Y-128825169D01*
X110245397Y-128770713D01*
X110133460Y-128710881D01*
X110042904Y-128673372D01*
X109921451Y-128636530D01*
X109825318Y-128617408D01*
X109699009Y-128604968D01*
X109662106Y-128604968D01*
X109650000Y-128602560D01*
X109150000Y-128602560D01*
X109137894Y-128604968D01*
X109100991Y-128604968D01*
X108974682Y-128617408D01*
X108878549Y-128636530D01*
X108757096Y-128673372D01*
X108666540Y-128710881D01*
X108554603Y-128770713D01*
X108473104Y-128825169D01*
X108374994Y-128905686D01*
X108305686Y-128974994D01*
X108225169Y-129073104D01*
X108170713Y-129154603D01*
X108110881Y-129266540D01*
X108100000Y-129292809D01*
X108089119Y-129266540D01*
X108029287Y-129154603D01*
X107974831Y-129073104D01*
X107894314Y-128974994D01*
X107825006Y-128905686D01*
X107726896Y-128825169D01*
X107645397Y-128770713D01*
X107533460Y-128710881D01*
X107442904Y-128673372D01*
X107321451Y-128636530D01*
X107225318Y-128617408D01*
X107099009Y-128604968D01*
X107062106Y-128604968D01*
X107050000Y-128602560D01*
X106550000Y-128602560D01*
X106537894Y-128604968D01*
X106500991Y-128604968D01*
X106374682Y-128617408D01*
X106278549Y-128636530D01*
X106157096Y-128673372D01*
X106066540Y-128710881D01*
X105954603Y-128770713D01*
X105873104Y-128825169D01*
X105774994Y-128905686D01*
X105705686Y-128974994D01*
X105625169Y-129073104D01*
X105570713Y-129154603D01*
X105510881Y-129266540D01*
X105500000Y-129292809D01*
X105489119Y-129266540D01*
X105429287Y-129154603D01*
X105374831Y-129073104D01*
X105294314Y-128974994D01*
X105225006Y-128905686D01*
X105126896Y-128825169D01*
X105045397Y-128770713D01*
X104933460Y-128710881D01*
X104842904Y-128673372D01*
X104721451Y-128636530D01*
X104625318Y-128617408D01*
X104499009Y-128604968D01*
X104462106Y-128604968D01*
X104450000Y-128602560D01*
X103950000Y-128602560D01*
X103937894Y-128604968D01*
X103900991Y-128604968D01*
X103774682Y-128617408D01*
X103678549Y-128636530D01*
X103557096Y-128673372D01*
X103466540Y-128710881D01*
X103354603Y-128770713D01*
X103273104Y-128825169D01*
X103174994Y-128905686D01*
X103105686Y-128974994D01*
X103025169Y-129073104D01*
X102970713Y-129154603D01*
X102910881Y-129266540D01*
X102873372Y-129357096D01*
X102836530Y-129478549D01*
X102817408Y-129574682D01*
X102804968Y-129700991D01*
X102804968Y-129737894D01*
X102802560Y-129750000D01*
X88939446Y-129750000D01*
X93868538Y-124820909D01*
X93929905Y-124779905D01*
X94092354Y-124536783D01*
X94135000Y-124322388D01*
X94135000Y-124322385D01*
X94149398Y-124250001D01*
X94135000Y-124177617D01*
X94135000Y-124005431D01*
X96465000Y-124005431D01*
X96465000Y-124894569D01*
X96805259Y-125716026D01*
X97433974Y-126344741D01*
X98255431Y-126685000D01*
X99144569Y-126685000D01*
X99966026Y-126344741D01*
X100594741Y-125716026D01*
X100935000Y-124894569D01*
X100935000Y-124005431D01*
X117165000Y-124005431D01*
X117165000Y-124894569D01*
X117505259Y-125716026D01*
X118133974Y-126344741D01*
X118955431Y-126685000D01*
X119844569Y-126685000D01*
X120666026Y-126344741D01*
X121294741Y-125716026D01*
X121635000Y-124894569D01*
X121635000Y-124005431D01*
X121294741Y-123183974D01*
X120666026Y-122555259D01*
X119844569Y-122215000D01*
X118955431Y-122215000D01*
X118133974Y-122555259D01*
X117505259Y-123183974D01*
X117165000Y-124005431D01*
X100935000Y-124005431D01*
X100594741Y-123183974D01*
X99966026Y-122555259D01*
X99144569Y-122215000D01*
X98255431Y-122215000D01*
X97433974Y-122555259D01*
X96805259Y-123183974D01*
X96465000Y-124005431D01*
X94135000Y-124005431D01*
X94135000Y-117354446D01*
X96254447Y-115235000D01*
X117745554Y-115235000D01*
X121759091Y-119248538D01*
X121800095Y-119309905D01*
X122043217Y-119472354D01*
X122257612Y-119515000D01*
X122257615Y-119515000D01*
X122329999Y-119529398D01*
X122402383Y-119515000D01*
X123705118Y-119515000D01*
X123929375Y-119850625D01*
X124227761Y-120050000D01*
X123929375Y-120249375D01*
X123771935Y-120485000D01*
X123265868Y-120485000D01*
X122848587Y-120067720D01*
X122802001Y-119997999D01*
X122525801Y-119813448D01*
X122282237Y-119765000D01*
X122282233Y-119765000D01*
X122200000Y-119748643D01*
X122117767Y-119765000D01*
X117782237Y-119765000D01*
X117700000Y-119748642D01*
X117617763Y-119765000D01*
X117374199Y-119813448D01*
X117097999Y-119997999D01*
X117051415Y-120067717D01*
X115273494Y-121845638D01*
X115177431Y-121613720D01*
X114886280Y-121322569D01*
X114505874Y-121165000D01*
X114094126Y-121165000D01*
X113713720Y-121322569D01*
X113422569Y-121613720D01*
X113320711Y-121859628D01*
X113177431Y-121513720D01*
X112886280Y-121222569D01*
X112505874Y-121065000D01*
X112094126Y-121065000D01*
X111713720Y-121222569D01*
X111671289Y-121265000D01*
X109345868Y-121265000D01*
X108648587Y-120567720D01*
X108602001Y-120497999D01*
X108325801Y-120313448D01*
X108082237Y-120265000D01*
X108082233Y-120265000D01*
X108000000Y-120248643D01*
X107917767Y-120265000D01*
X105928711Y-120265000D01*
X105886280Y-120222569D01*
X105505874Y-120065000D01*
X105094126Y-120065000D01*
X104713720Y-120222569D01*
X104422569Y-120513720D01*
X104265000Y-120894126D01*
X104265000Y-121305874D01*
X104422569Y-121686280D01*
X104713720Y-121977431D01*
X105094126Y-122135000D01*
X105505874Y-122135000D01*
X105886280Y-121977431D01*
X105928711Y-121935000D01*
X106230912Y-121935000D01*
X106165000Y-122094126D01*
X106165000Y-122265000D01*
X104145869Y-122265000D01*
X102735000Y-120854133D01*
X102735000Y-120794126D01*
X102577431Y-120413720D01*
X102286280Y-120122569D01*
X101905874Y-119965000D01*
X101494126Y-119965000D01*
X101113720Y-120122569D01*
X100822569Y-120413720D01*
X100665000Y-120794126D01*
X100665000Y-121205874D01*
X100822569Y-121586280D01*
X101113720Y-121877431D01*
X101494126Y-122035000D01*
X101554133Y-122035000D01*
X103151417Y-123632285D01*
X103197999Y-123702001D01*
X103474199Y-123886552D01*
X103717763Y-123935000D01*
X103717766Y-123935000D01*
X103799999Y-123951357D01*
X103882232Y-123935000D01*
X115117767Y-123935000D01*
X115200000Y-123951357D01*
X115282233Y-123935000D01*
X115282237Y-123935000D01*
X115525801Y-123886552D01*
X115802001Y-123702001D01*
X115848587Y-123632280D01*
X118045868Y-121435000D01*
X121854133Y-121435000D01*
X122271414Y-121852282D01*
X122317999Y-121922001D01*
X122594199Y-122106552D01*
X122837763Y-122155000D01*
X122920000Y-122171358D01*
X123002237Y-122155000D01*
X123771935Y-122155000D01*
X123929375Y-122390625D01*
X124227761Y-122590000D01*
X123929375Y-122789375D01*
X123601161Y-123280582D01*
X123485908Y-123860000D01*
X123601161Y-124439418D01*
X123929375Y-124930625D01*
X124227761Y-125130000D01*
X123929375Y-125329375D01*
X123601161Y-125820582D01*
X123485908Y-126400000D01*
X123585598Y-126901180D01*
X123574199Y-126903447D01*
X123297999Y-127087998D01*
X123251414Y-127157717D01*
X122497719Y-127911413D01*
X122427998Y-127957999D01*
X122243447Y-128234200D01*
X122194999Y-128477764D01*
X122194999Y-128477767D01*
X122178642Y-128560000D01*
X122194999Y-128642233D01*
X122194999Y-128994999D01*
X122172447Y-128994999D01*
X121900000Y-128940806D01*
X121418128Y-129036656D01*
X121009615Y-129309615D01*
X120736656Y-129718128D01*
X120640806Y-130200000D01*
X120736656Y-130681872D01*
X120940714Y-130987267D01*
X120970712Y-131017265D01*
X121039614Y-131120384D01*
X121448126Y-131393343D01*
X121808363Y-131464999D01*
X121808367Y-131464999D01*
X121929999Y-131489193D01*
X122051631Y-131464999D01*
X122194999Y-131464999D01*
X122194999Y-132247766D01*
X122178642Y-132329999D01*
X122194999Y-132412232D01*
X122194999Y-132412235D01*
X122243447Y-132655799D01*
X122427998Y-132932000D01*
X122497719Y-132978586D01*
X122821412Y-133302279D01*
X122867998Y-133372000D01*
X123088595Y-133519398D01*
X123144198Y-133556551D01*
X123469999Y-133621357D01*
X123552236Y-133604999D01*
X123568457Y-133604999D01*
X123485908Y-134020000D01*
X123601161Y-134599418D01*
X123929375Y-135090625D01*
X124227761Y-135290000D01*
X123929375Y-135489375D01*
X123601161Y-135980582D01*
X123485908Y-136560000D01*
X123601161Y-137139418D01*
X123929375Y-137630625D01*
X124227761Y-137830000D01*
X123929375Y-138029375D01*
X123601161Y-138520582D01*
X123485908Y-139100000D01*
X123601161Y-139679418D01*
X123929375Y-140170625D01*
X124227761Y-140370000D01*
X123929375Y-140569375D01*
X123601161Y-141060582D01*
X123485908Y-141640000D01*
X123601161Y-142219418D01*
X123929375Y-142710625D01*
X124227761Y-142910000D01*
X123929375Y-143109375D01*
X123601161Y-143600582D01*
X123485908Y-144180000D01*
X123601161Y-144759418D01*
X123929375Y-145250625D01*
X124227761Y-145450000D01*
X123929375Y-145649375D01*
X123601161Y-146140582D01*
X123485908Y-146720000D01*
X123601161Y-147299418D01*
X123929375Y-147790625D01*
X124248478Y-148003843D01*
X124118642Y-148064817D01*
X123728355Y-148493076D01*
X123558524Y-148903110D01*
X123679845Y-149133000D01*
X124873000Y-149133000D01*
X124873000Y-149113000D01*
X125127000Y-149113000D01*
X125127000Y-149133000D01*
X125147000Y-149133000D01*
X125147000Y-149387000D01*
X125127000Y-149387000D01*
X125127000Y-150580819D01*
X125356892Y-150701486D01*
X125881358Y-150455183D01*
X126268647Y-150030214D01*
X126469375Y-150330625D01*
X126960582Y-150658839D01*
X127393744Y-150745000D01*
X127686256Y-150745000D01*
X128119418Y-150658839D01*
X128610625Y-150330625D01*
X128938839Y-149839418D01*
X129054092Y-149260000D01*
X128938839Y-148680582D01*
X128610625Y-148189375D01*
X128312239Y-147990000D01*
X128610625Y-147790625D01*
X128938839Y-147299418D01*
X129054092Y-146720000D01*
X128938839Y-146140582D01*
X128610625Y-145649375D01*
X128312239Y-145450000D01*
X128610625Y-145250625D01*
X128938839Y-144759418D01*
X129054092Y-144180000D01*
X128938839Y-143600582D01*
X128610625Y-143109375D01*
X128291522Y-142896157D01*
X128421358Y-142835183D01*
X128811645Y-142406924D01*
X128981476Y-141996890D01*
X128860155Y-141767000D01*
X127667000Y-141767000D01*
X127667000Y-141787000D01*
X127413000Y-141787000D01*
X127413000Y-141767000D01*
X127393000Y-141767000D01*
X127393000Y-141513000D01*
X127413000Y-141513000D01*
X127413000Y-141493000D01*
X127667000Y-141493000D01*
X127667000Y-141513000D01*
X128860155Y-141513000D01*
X128981476Y-141283110D01*
X128811645Y-140873076D01*
X128421358Y-140444817D01*
X128291522Y-140383843D01*
X128610625Y-140170625D01*
X128938839Y-139679418D01*
X129054092Y-139100000D01*
X128938839Y-138520582D01*
X128610625Y-138029375D01*
X128291522Y-137816157D01*
X128421358Y-137755183D01*
X128811645Y-137326924D01*
X128981476Y-136916890D01*
X128860155Y-136687000D01*
X127667000Y-136687000D01*
X127667000Y-136707000D01*
X127413000Y-136707000D01*
X127413000Y-136687000D01*
X127393000Y-136687000D01*
X127393000Y-136433000D01*
X127413000Y-136433000D01*
X127413000Y-136413000D01*
X127667000Y-136413000D01*
X127667000Y-136433000D01*
X128860155Y-136433000D01*
X128981476Y-136203110D01*
X128811645Y-135793076D01*
X128421358Y-135364817D01*
X128291522Y-135303843D01*
X128610625Y-135090625D01*
X128938839Y-134599418D01*
X129054092Y-134020000D01*
X128971543Y-133604999D01*
X129147768Y-133604999D01*
X129230001Y-133621356D01*
X129312234Y-133604999D01*
X129312238Y-133604999D01*
X129555802Y-133556551D01*
X129832002Y-133372000D01*
X129878588Y-133302279D01*
X130832282Y-132348585D01*
X130902001Y-132302001D01*
X131086552Y-132025801D01*
X131135000Y-131782237D01*
X131135000Y-131782234D01*
X131151357Y-131700001D01*
X131135000Y-131617768D01*
X131135000Y-130567930D01*
X131290001Y-130464362D01*
X131290001Y-148930064D01*
X131102833Y-149871023D01*
X130609439Y-150609439D01*
X129871023Y-151102833D01*
X128930069Y-151290000D01*
X78069931Y-151290000D01*
X77793427Y-151235000D01*
X78444569Y-151235000D01*
X79266026Y-150894741D01*
X79894741Y-150266026D01*
X80163622Y-149616890D01*
X123558524Y-149616890D01*
X123728355Y-150026924D01*
X124118642Y-150455183D01*
X124643108Y-150701486D01*
X124873000Y-150580819D01*
X124873000Y-149387000D01*
X123679845Y-149387000D01*
X123558524Y-149616890D01*
X80163622Y-149616890D01*
X80235000Y-149444569D01*
X80235000Y-148555431D01*
X79894741Y-147733974D01*
X79266026Y-147105259D01*
X78444569Y-146765000D01*
X77555431Y-146765000D01*
X76733974Y-147105259D01*
X76105259Y-147733974D01*
X75765000Y-148555431D01*
X75765000Y-149206573D01*
X75710000Y-148930069D01*
X75710000Y-142340458D01*
X103330000Y-142340458D01*
X103330000Y-143239542D01*
X103674065Y-144070187D01*
X104309813Y-144705935D01*
X105140458Y-145050000D01*
X106039542Y-145050000D01*
X106870187Y-144705935D01*
X107505935Y-144070187D01*
X107850000Y-143239542D01*
X107850000Y-142340458D01*
X113490000Y-142340458D01*
X113490000Y-143239542D01*
X113834065Y-144070187D01*
X114469813Y-144705935D01*
X115300458Y-145050000D01*
X116199542Y-145050000D01*
X117030187Y-144705935D01*
X117665935Y-144070187D01*
X118010000Y-143239542D01*
X118010000Y-142340458D01*
X117665935Y-141509813D01*
X117030187Y-140874065D01*
X116199542Y-140530000D01*
X115300458Y-140530000D01*
X114469813Y-140874065D01*
X113834065Y-141509813D01*
X113490000Y-142340458D01*
X107850000Y-142340458D01*
X107505935Y-141509813D01*
X106870187Y-140874065D01*
X106039542Y-140530000D01*
X105140458Y-140530000D01*
X104309813Y-140874065D01*
X103674065Y-141509813D01*
X103330000Y-142340458D01*
X75710000Y-142340458D01*
X75710000Y-123585750D01*
X79665000Y-123585750D01*
X79665000Y-124326309D01*
X79761673Y-124559698D01*
X79940301Y-124738327D01*
X80173690Y-124835000D01*
X80914250Y-124835000D01*
X81073000Y-124676250D01*
X81073000Y-123427000D01*
X81327000Y-123427000D01*
X81327000Y-124676250D01*
X81485750Y-124835000D01*
X82226310Y-124835000D01*
X82459699Y-124738327D01*
X82638327Y-124559698D01*
X82735000Y-124326309D01*
X82735000Y-123585750D01*
X89265000Y-123585750D01*
X89265000Y-124326309D01*
X89361673Y-124559698D01*
X89540301Y-124738327D01*
X89773690Y-124835000D01*
X90514250Y-124835000D01*
X90673000Y-124676250D01*
X90673000Y-123427000D01*
X89423750Y-123427000D01*
X89265000Y-123585750D01*
X82735000Y-123585750D01*
X82576250Y-123427000D01*
X81327000Y-123427000D01*
X81073000Y-123427000D01*
X79823750Y-123427000D01*
X79665000Y-123585750D01*
X75710000Y-123585750D01*
X75710000Y-101069931D01*
X75765000Y-100793427D01*
X75765000Y-101444569D01*
X76105259Y-102266026D01*
X76733974Y-102894741D01*
X77555431Y-103235000D01*
X78444569Y-103235000D01*
X79266026Y-102894741D01*
X79894741Y-102266026D01*
X80235000Y-101444569D01*
X80235000Y-100805431D01*
X96465000Y-100805431D01*
X96465000Y-101694569D01*
X96805259Y-102516026D01*
X97433974Y-103144741D01*
X98255431Y-103485000D01*
X99144569Y-103485000D01*
X99966026Y-103144741D01*
X100594741Y-102516026D01*
X100935000Y-101694569D01*
X100935000Y-100805431D01*
X100594741Y-99983974D01*
X99966026Y-99355259D01*
X99144569Y-99015000D01*
X98255431Y-99015000D01*
X97433974Y-99355259D01*
X96805259Y-99983974D01*
X96465000Y-100805431D01*
X80235000Y-100805431D01*
X80235000Y-100555431D01*
X79894741Y-99733974D01*
X79266026Y-99105259D01*
X78444569Y-98765000D01*
X77793427Y-98765000D01*
X78069931Y-98710000D01*
X128930069Y-98710000D01*
X129871023Y-98897167D01*
X129871023Y-98897167D01*
G37*
X129871023Y-98897167D02*
X130609439Y-99390561D01*
X131102833Y-100128977D01*
X131290000Y-101069931D01*
X131290000Y-103335638D01*
X131214759Y-103285364D01*
X130554638Y-102625243D01*
X130474577Y-102505423D01*
X129999909Y-102188260D01*
X129581333Y-102105000D01*
X129581328Y-102105000D01*
X129440000Y-102076888D01*
X129298672Y-102105000D01*
X128975000Y-102105000D01*
X128975000Y-101397624D01*
X129054092Y-101000000D01*
X128938839Y-100420582D01*
X128610625Y-99929375D01*
X128119418Y-99601161D01*
X127686256Y-99515000D01*
X127393744Y-99515000D01*
X126960582Y-99601161D01*
X126469375Y-99929375D01*
X126457184Y-99947619D01*
X126448157Y-99902235D01*
X126307809Y-99692191D01*
X126097765Y-99551843D01*
X125850000Y-99502560D01*
X124150000Y-99502560D01*
X123902235Y-99551843D01*
X123692191Y-99692191D01*
X123551843Y-99902235D01*
X123502560Y-100150000D01*
X123502560Y-100892308D01*
X122676480Y-101718389D01*
X122581712Y-101781711D01*
X122330854Y-102157145D01*
X122292860Y-102348157D01*
X122254658Y-102540210D01*
X120229869Y-104565000D01*
X108620132Y-104565000D01*
X106361021Y-102305890D01*
X106507809Y-102207809D01*
X106648157Y-101997765D01*
X106668739Y-101894292D01*
X106973076Y-102171645D01*
X107383110Y-102341476D01*
X107613000Y-102220155D01*
X107613000Y-101027000D01*
X107593000Y-101027000D01*
X107593000Y-100773000D01*
X107613000Y-100773000D01*
X107613000Y-99579845D01*
X107867000Y-99579845D01*
X107867000Y-100773000D01*
X107887000Y-100773000D01*
X107887000Y-101027000D01*
X107867000Y-101027000D01*
X107867000Y-102220155D01*
X108096890Y-102341476D01*
X108506924Y-102171645D01*
X108935183Y-101781358D01*
X108996157Y-101651522D01*
X109209375Y-101970625D01*
X109700582Y-102298839D01*
X110133744Y-102385000D01*
X110426256Y-102385000D01*
X110859418Y-102298839D01*
X111350625Y-101970625D01*
X111550000Y-101672239D01*
X111749375Y-101970625D01*
X112240582Y-102298839D01*
X112673744Y-102385000D01*
X112966256Y-102385000D01*
X113399418Y-102298839D01*
X113890625Y-101970625D01*
X114063940Y-101711241D01*
X114354263Y-102145738D01*
X114815699Y-102454061D01*
X115360000Y-102562329D01*
X115904302Y-102454061D01*
X116365738Y-102145738D01*
X116674061Y-101684301D01*
X116755000Y-101277392D01*
X116755000Y-100805431D01*
X117165000Y-100805431D01*
X117165000Y-101694569D01*
X117505259Y-102516026D01*
X118133974Y-103144741D01*
X118955431Y-103485000D01*
X119844569Y-103485000D01*
X120666026Y-103144741D01*
X121294741Y-102516026D01*
X121635000Y-101694569D01*
X121635000Y-100805431D01*
X121294741Y-99983974D01*
X120666026Y-99355259D01*
X119844569Y-99015000D01*
X118955431Y-99015000D01*
X118133974Y-99355259D01*
X117505259Y-99983974D01*
X117165000Y-100805431D01*
X116755000Y-100805431D01*
X116755000Y-100522607D01*
X116674061Y-100115698D01*
X116365737Y-99654262D01*
X115904301Y-99345939D01*
X115360000Y-99237671D01*
X114815698Y-99345939D01*
X114354262Y-99654263D01*
X114063940Y-100088759D01*
X113890625Y-99829375D01*
X113399418Y-99501161D01*
X112966256Y-99415000D01*
X112673744Y-99415000D01*
X112240582Y-99501161D01*
X111749375Y-99829375D01*
X111550000Y-100127761D01*
X111350625Y-99829375D01*
X110859418Y-99501161D01*
X110426256Y-99415000D01*
X110133744Y-99415000D01*
X109700582Y-99501161D01*
X109209375Y-99829375D01*
X108996157Y-100148478D01*
X108935183Y-100018642D01*
X108506924Y-99628355D01*
X108096890Y-99458524D01*
X107867000Y-99579845D01*
X107613000Y-99579845D01*
X107383110Y-99458524D01*
X106973076Y-99628355D01*
X106668739Y-99905708D01*
X106648157Y-99802235D01*
X106507809Y-99592191D01*
X106297765Y-99451843D01*
X106050000Y-99402560D01*
X104350000Y-99402560D01*
X104102235Y-99451843D01*
X103892191Y-99592191D01*
X103751843Y-99802235D01*
X103702560Y-100050000D01*
X103702560Y-101750000D01*
X103751843Y-101997765D01*
X103892191Y-102207809D01*
X104065001Y-102323278D01*
X104065001Y-102638212D01*
X104042765Y-102750000D01*
X104130854Y-103192854D01*
X104130855Y-103192855D01*
X104381712Y-103568289D01*
X104476480Y-103631611D01*
X107268389Y-106423521D01*
X107331711Y-106518289D01*
X107707145Y-106769146D01*
X108149999Y-106857235D01*
X108261782Y-106835000D01*
X120588217Y-106835000D01*
X120700000Y-106857235D01*
X120811783Y-106835000D01*
X121142855Y-106769146D01*
X121518289Y-106518289D01*
X121581613Y-106423518D01*
X123715137Y-104289995D01*
X123929375Y-104610625D01*
X124227761Y-104810000D01*
X123929375Y-105009375D01*
X123601161Y-105500582D01*
X123485908Y-106080000D01*
X123601161Y-106659418D01*
X123929375Y-107150625D01*
X124227761Y-107350000D01*
X123929375Y-107549375D01*
X123601161Y-108040582D01*
X123485908Y-108620000D01*
X123601161Y-109199418D01*
X123929375Y-109690625D01*
X124248478Y-109903843D01*
X124118642Y-109964817D01*
X123728355Y-110393076D01*
X123558524Y-110803110D01*
X123679845Y-111033000D01*
X124873000Y-111033000D01*
X124873000Y-111013000D01*
X125127000Y-111013000D01*
X125127000Y-111033000D01*
X125147000Y-111033000D01*
X125147000Y-111287000D01*
X125127000Y-111287000D01*
X125127000Y-111307000D01*
X124873000Y-111307000D01*
X124873000Y-111287000D01*
X123679845Y-111287000D01*
X123558524Y-111516890D01*
X123728355Y-111926924D01*
X124118642Y-112355183D01*
X124248478Y-112416157D01*
X123929375Y-112629375D01*
X123771935Y-112865000D01*
X121245868Y-112865000D01*
X120948587Y-112567720D01*
X120902001Y-112497999D01*
X120625801Y-112313448D01*
X120382237Y-112265000D01*
X120382233Y-112265000D01*
X120300000Y-112248643D01*
X120217767Y-112265000D01*
X88582232Y-112265000D01*
X88499999Y-112248643D01*
X88417766Y-112265000D01*
X88417763Y-112265000D01*
X88174199Y-112313448D01*
X87897999Y-112497999D01*
X87851415Y-112567717D01*
X83167718Y-117251415D01*
X83098000Y-117297999D01*
X83051416Y-117367717D01*
X82913448Y-117574200D01*
X82848643Y-117900000D01*
X82865001Y-117982238D01*
X82865001Y-118692879D01*
X82836753Y-118711753D01*
X82644922Y-118998848D01*
X82577560Y-119337500D01*
X82577560Y-119912500D01*
X82639584Y-120224315D01*
X82501310Y-119890493D01*
X82069507Y-119458690D01*
X81505330Y-119225000D01*
X80894670Y-119225000D01*
X80330493Y-119458690D01*
X79898690Y-119890493D01*
X79665000Y-120454670D01*
X79665000Y-121065330D01*
X79898690Y-121629507D01*
X80075044Y-121805861D01*
X79940301Y-121861673D01*
X79761673Y-122040302D01*
X79665000Y-122273691D01*
X79665000Y-123014250D01*
X79823750Y-123173000D01*
X81073000Y-123173000D01*
X81073000Y-123153000D01*
X81327000Y-123153000D01*
X81327000Y-123173000D01*
X82576250Y-123173000D01*
X82735000Y-123014250D01*
X82735000Y-122410000D01*
X83018969Y-122410000D01*
X83123848Y-122480078D01*
X83462500Y-122547440D01*
X83937500Y-122547440D01*
X84276152Y-122480078D01*
X84563247Y-122288247D01*
X84755078Y-122001152D01*
X84822440Y-121662500D01*
X84822440Y-121087500D01*
X84755078Y-120748848D01*
X84588803Y-120500000D01*
X84755078Y-120251152D01*
X84822440Y-119912500D01*
X84822440Y-119337500D01*
X84755078Y-118998848D01*
X84563247Y-118711753D01*
X84535000Y-118692879D01*
X84535000Y-118245867D01*
X88845868Y-113935000D01*
X91584132Y-113935000D01*
X87767718Y-117751415D01*
X87698000Y-117797999D01*
X87651416Y-117867717D01*
X87513448Y-118074200D01*
X87448643Y-118400000D01*
X87465001Y-118482237D01*
X87465001Y-118692878D01*
X87436753Y-118711753D01*
X87244922Y-118998848D01*
X87177560Y-119337500D01*
X87177560Y-119912500D01*
X87244922Y-120251152D01*
X87411197Y-120500000D01*
X87244922Y-120748848D01*
X87177560Y-121087500D01*
X87177560Y-121662500D01*
X87244922Y-122001152D01*
X87436753Y-122288247D01*
X87723848Y-122480078D01*
X88062500Y-122547440D01*
X88537500Y-122547440D01*
X88876152Y-122480078D01*
X88981031Y-122410000D01*
X89265000Y-122410000D01*
X89265000Y-123014250D01*
X89423750Y-123173000D01*
X90673000Y-123173000D01*
X90673000Y-123153000D01*
X90927000Y-123153000D01*
X90927000Y-123173000D01*
X92176250Y-123173000D01*
X92335000Y-123014250D01*
X92335000Y-122273691D01*
X92238327Y-122040302D01*
X92059699Y-121861673D01*
X91924956Y-121805861D01*
X92101310Y-121629507D01*
X92335000Y-121065330D01*
X92335000Y-120454670D01*
X92101310Y-119890493D01*
X91669507Y-119458690D01*
X91105330Y-119225000D01*
X90494670Y-119225000D01*
X89930493Y-119458690D01*
X89498690Y-119890493D01*
X89360416Y-120224315D01*
X89422440Y-119912500D01*
X89422440Y-119337500D01*
X89355078Y-118998848D01*
X89165597Y-118715270D01*
X93145868Y-114735000D01*
X94675553Y-114735000D01*
X92931463Y-116479091D01*
X92870096Y-116520095D01*
X92829092Y-116581462D01*
X92829091Y-116581463D01*
X92707646Y-116763218D01*
X92650602Y-117050000D01*
X92665001Y-117122389D01*
X92665000Y-123945553D01*
X92335000Y-124275553D01*
X92335000Y-123585750D01*
X92176250Y-123427000D01*
X90927000Y-123427000D01*
X90927000Y-124676250D01*
X91085750Y-124835000D01*
X91775553Y-124835000D01*
X82782912Y-133827642D01*
X82535113Y-133725000D01*
X81844887Y-133725000D01*
X81207201Y-133989138D01*
X80719138Y-134477201D01*
X80455000Y-135114887D01*
X80455000Y-135805113D01*
X80719138Y-136442799D01*
X80791339Y-136515000D01*
X80624615Y-136515000D01*
X80078815Y-136741078D01*
X79661078Y-137158815D01*
X79435000Y-137704615D01*
X79435000Y-138295385D01*
X79661078Y-138841185D01*
X80078815Y-139258922D01*
X80624615Y-139485000D01*
X81215385Y-139485000D01*
X81761185Y-139258922D01*
X82178922Y-138841185D01*
X82405000Y-138295385D01*
X82405000Y-137704615D01*
X82310249Y-137475866D01*
X83365000Y-137475866D01*
X83365000Y-138524134D01*
X83766155Y-139492608D01*
X84507392Y-140233845D01*
X85475866Y-140635000D01*
X86524134Y-140635000D01*
X87492608Y-140233845D01*
X88233845Y-139492608D01*
X88635000Y-138524134D01*
X88635000Y-137704615D01*
X89595000Y-137704615D01*
X89595000Y-138295385D01*
X89821078Y-138841185D01*
X90238815Y-139258922D01*
X90784615Y-139485000D01*
X91375385Y-139485000D01*
X91921185Y-139258922D01*
X92338922Y-138841185D01*
X92565000Y-138295385D01*
X92565000Y-137704615D01*
X92338922Y-137158815D01*
X91921185Y-136741078D01*
X91375385Y-136515000D01*
X90784615Y-136515000D01*
X90238815Y-136741078D01*
X89821078Y-137158815D01*
X89595000Y-137704615D01*
X88635000Y-137704615D01*
X88635000Y-137475866D01*
X88233845Y-136507392D01*
X87492608Y-135766155D01*
X86524134Y-135365000D01*
X85475866Y-135365000D01*
X84507392Y-135766155D01*
X83766155Y-136507392D01*
X83365000Y-137475866D01*
X82310249Y-137475866D01*
X82193910Y-137195000D01*
X82535113Y-137195000D01*
X83172799Y-136930862D01*
X83660862Y-136442799D01*
X83925000Y-135805113D01*
X83925000Y-135114887D01*
X83822358Y-134867088D01*
X84544578Y-134144868D01*
X87494737Y-134144868D01*
X87605641Y-134422099D01*
X88251593Y-134665323D01*
X88941453Y-134642836D01*
X89474359Y-134422099D01*
X89585263Y-134144868D01*
X88540000Y-133099605D01*
X87494737Y-134144868D01*
X84544578Y-134144868D01*
X86057853Y-132631593D01*
X86794677Y-132631593D01*
X86817164Y-133321453D01*
X87037901Y-133854359D01*
X87315132Y-133965263D01*
X88360395Y-132920000D01*
X88719605Y-132920000D01*
X89764868Y-133965263D01*
X90042099Y-133854359D01*
X90285323Y-133208407D01*
X90262836Y-132518547D01*
X90042099Y-131985641D01*
X89764868Y-131874737D01*
X88719605Y-132920000D01*
X88360395Y-132920000D01*
X87315132Y-131874737D01*
X87037901Y-131985641D01*
X86794677Y-132631593D01*
X86057853Y-132631593D01*
X86994314Y-131695132D01*
X87494737Y-131695132D01*
X88540000Y-132740395D01*
X89585263Y-131695132D01*
X89474359Y-131417901D01*
X88828407Y-131174677D01*
X88138547Y-131197164D01*
X87605641Y-131417901D01*
X87494737Y-131695132D01*
X86994314Y-131695132D01*
X88939446Y-129750000D01*
X102802560Y-129750000D01*
X102802560Y-130250000D01*
X102832397Y-130400000D01*
X102802560Y-130550000D01*
X102802560Y-131050000D01*
X102804968Y-131062106D01*
X102804968Y-131099009D01*
X102817408Y-131225318D01*
X102836530Y-131321451D01*
X102871392Y-131436378D01*
X102865000Y-131468515D01*
X102865000Y-132628519D01*
X102838847Y-132760000D01*
X102865000Y-132891481D01*
X102865000Y-132891484D01*
X102921750Y-133176782D01*
X102942458Y-133280890D01*
X103072621Y-133475692D01*
X103237519Y-133722480D01*
X103348986Y-133796960D01*
X104303039Y-134751014D01*
X104377519Y-134862481D01*
X104819109Y-135157542D01*
X105208515Y-135235000D01*
X105208519Y-135235000D01*
X105339999Y-135261153D01*
X105471479Y-135235000D01*
X106457578Y-135235000D01*
X106492235Y-135258157D01*
X106740000Y-135307440D01*
X107929732Y-135307440D01*
X107587376Y-135649796D01*
X107375000Y-136162517D01*
X107375000Y-136717483D01*
X107587376Y-137230204D01*
X107979796Y-137622624D01*
X108492517Y-137835000D01*
X109047483Y-137835000D01*
X109560204Y-137622624D01*
X109952624Y-137230204D01*
X110040000Y-137019260D01*
X110127376Y-137230204D01*
X110519796Y-137622624D01*
X111032517Y-137835000D01*
X111587483Y-137835000D01*
X112100204Y-137622624D01*
X112492624Y-137230204D01*
X112580000Y-137019260D01*
X112667376Y-137230204D01*
X113059796Y-137622624D01*
X113572517Y-137835000D01*
X114127483Y-137835000D01*
X114640204Y-137622624D01*
X115032624Y-137230204D01*
X115245000Y-136717483D01*
X115245000Y-136162517D01*
X115222134Y-136107313D01*
X117668538Y-133660909D01*
X117729905Y-133619905D01*
X117892354Y-133376783D01*
X117935000Y-133162388D01*
X117935000Y-133162385D01*
X117949398Y-133090001D01*
X117935000Y-133017617D01*
X117935000Y-132088296D01*
X118045397Y-132029287D01*
X118126896Y-131974831D01*
X118225006Y-131894314D01*
X118294314Y-131825006D01*
X118374831Y-131726896D01*
X118429287Y-131645397D01*
X118489119Y-131533460D01*
X118526628Y-131442904D01*
X118563470Y-131321451D01*
X118582592Y-131225318D01*
X118595032Y-131099009D01*
X118595032Y-131062106D01*
X118597440Y-131050000D01*
X118597440Y-130550000D01*
X118567603Y-130400000D01*
X118597440Y-130250000D01*
X118597440Y-129750000D01*
X118595032Y-129737894D01*
X118595032Y-129700991D01*
X118582592Y-129574682D01*
X118563470Y-129478549D01*
X118526628Y-129357096D01*
X118489119Y-129266540D01*
X118429287Y-129154603D01*
X118374831Y-129073104D01*
X118294314Y-128974994D01*
X118225006Y-128905686D01*
X118126896Y-128825169D01*
X118045397Y-128770713D01*
X117933460Y-128710881D01*
X117842904Y-128673372D01*
X117721451Y-128636530D01*
X117625318Y-128617408D01*
X117499009Y-128604968D01*
X117462106Y-128604968D01*
X117450000Y-128602560D01*
X116950000Y-128602560D01*
X116937894Y-128604968D01*
X116900991Y-128604968D01*
X116774682Y-128617408D01*
X116678549Y-128636530D01*
X116557096Y-128673372D01*
X116466540Y-128710881D01*
X116354603Y-128770713D01*
X116273104Y-128825169D01*
X116174994Y-128905686D01*
X116105686Y-128974994D01*
X116025169Y-129073104D01*
X115970713Y-129154603D01*
X115910881Y-129266540D01*
X115900000Y-129292809D01*
X115889119Y-129266540D01*
X115829287Y-129154603D01*
X115774831Y-129073104D01*
X115735000Y-129024570D01*
X115735000Y-128388217D01*
X115669146Y-128057145D01*
X115418289Y-127681711D01*
X115042854Y-127430854D01*
X114600000Y-127342765D01*
X114157145Y-127430854D01*
X113781711Y-127681711D01*
X113530854Y-128057146D01*
X113465000Y-128388218D01*
X113465000Y-129024570D01*
X113425169Y-129073104D01*
X113370713Y-129154603D01*
X113310881Y-129266540D01*
X113300000Y-129292809D01*
X113289119Y-129266540D01*
X113229287Y-129154603D01*
X113174831Y-129073104D01*
X113094314Y-128974994D01*
X113025006Y-128905686D01*
X112926896Y-128825169D01*
X112845397Y-128770713D01*
X112733460Y-128710881D01*
X112642904Y-128673372D01*
X112521451Y-128636530D01*
X112425318Y-128617408D01*
X112299009Y-128604968D01*
X112262106Y-128604968D01*
X112250000Y-128602560D01*
X111750000Y-128602560D01*
X111737894Y-128604968D01*
X111700991Y-128604968D01*
X111574682Y-128617408D01*
X111478549Y-128636530D01*
X111357096Y-128673372D01*
X111266540Y-128710881D01*
X111154603Y-128770713D01*
X111073104Y-128825169D01*
X110974994Y-128905686D01*
X110905686Y-128974994D01*
X110825169Y-129073104D01*
X110770713Y-129154603D01*
X110710881Y-129266540D01*
X110700000Y-129292809D01*
X110689119Y-129266540D01*
X110629287Y-129154603D01*
X110574831Y-129073104D01*
X110494314Y-128974994D01*
X110425006Y-128905686D01*
X110326896Y-128825169D01*
X110245397Y-128770713D01*
X110133460Y-128710881D01*
X110042904Y-128673372D01*
X109921451Y-128636530D01*
X109825318Y-128617408D01*
X109699009Y-128604968D01*
X109662106Y-128604968D01*
X109650000Y-128602560D01*
X109150000Y-128602560D01*
X109137894Y-128604968D01*
X109100991Y-128604968D01*
X108974682Y-128617408D01*
X108878549Y-128636530D01*
X108757096Y-128673372D01*
X108666540Y-128710881D01*
X108554603Y-128770713D01*
X108473104Y-128825169D01*
X108374994Y-128905686D01*
X108305686Y-128974994D01*
X108225169Y-129073104D01*
X108170713Y-129154603D01*
X108110881Y-129266540D01*
X108100000Y-129292809D01*
X108089119Y-129266540D01*
X108029287Y-129154603D01*
X107974831Y-129073104D01*
X107894314Y-128974994D01*
X107825006Y-128905686D01*
X107726896Y-128825169D01*
X107645397Y-128770713D01*
X107533460Y-128710881D01*
X107442904Y-128673372D01*
X107321451Y-128636530D01*
X107225318Y-128617408D01*
X107099009Y-128604968D01*
X107062106Y-128604968D01*
X107050000Y-128602560D01*
X106550000Y-128602560D01*
X106537894Y-128604968D01*
X106500991Y-128604968D01*
X106374682Y-128617408D01*
X106278549Y-128636530D01*
X106157096Y-128673372D01*
X106066540Y-128710881D01*
X105954603Y-128770713D01*
X105873104Y-128825169D01*
X105774994Y-128905686D01*
X105705686Y-128974994D01*
X105625169Y-129073104D01*
X105570713Y-129154603D01*
X105510881Y-129266540D01*
X105500000Y-129292809D01*
X105489119Y-129266540D01*
X105429287Y-129154603D01*
X105374831Y-129073104D01*
X105294314Y-128974994D01*
X105225006Y-128905686D01*
X105126896Y-128825169D01*
X105045397Y-128770713D01*
X104933460Y-128710881D01*
X104842904Y-128673372D01*
X104721451Y-128636530D01*
X104625318Y-128617408D01*
X104499009Y-128604968D01*
X104462106Y-128604968D01*
X104450000Y-128602560D01*
X103950000Y-128602560D01*
X103937894Y-128604968D01*
X103900991Y-128604968D01*
X103774682Y-128617408D01*
X103678549Y-128636530D01*
X103557096Y-128673372D01*
X103466540Y-128710881D01*
X103354603Y-128770713D01*
X103273104Y-128825169D01*
X103174994Y-128905686D01*
X103105686Y-128974994D01*
X103025169Y-129073104D01*
X102970713Y-129154603D01*
X102910881Y-129266540D01*
X102873372Y-129357096D01*
X102836530Y-129478549D01*
X102817408Y-129574682D01*
X102804968Y-129700991D01*
X102804968Y-129737894D01*
X102802560Y-129750000D01*
X88939446Y-129750000D01*
X93868538Y-124820909D01*
X93929905Y-124779905D01*
X94092354Y-124536783D01*
X94135000Y-124322388D01*
X94135000Y-124322385D01*
X94149398Y-124250001D01*
X94135000Y-124177617D01*
X94135000Y-124005431D01*
X96465000Y-124005431D01*
X96465000Y-124894569D01*
X96805259Y-125716026D01*
X97433974Y-126344741D01*
X98255431Y-126685000D01*
X99144569Y-126685000D01*
X99966026Y-126344741D01*
X100594741Y-125716026D01*
X100935000Y-124894569D01*
X100935000Y-124005431D01*
X117165000Y-124005431D01*
X117165000Y-124894569D01*
X117505259Y-125716026D01*
X118133974Y-126344741D01*
X118955431Y-126685000D01*
X119844569Y-126685000D01*
X120666026Y-126344741D01*
X121294741Y-125716026D01*
X121635000Y-124894569D01*
X121635000Y-124005431D01*
X121294741Y-123183974D01*
X120666026Y-122555259D01*
X119844569Y-122215000D01*
X118955431Y-122215000D01*
X118133974Y-122555259D01*
X117505259Y-123183974D01*
X117165000Y-124005431D01*
X100935000Y-124005431D01*
X100594741Y-123183974D01*
X99966026Y-122555259D01*
X99144569Y-122215000D01*
X98255431Y-122215000D01*
X97433974Y-122555259D01*
X96805259Y-123183974D01*
X96465000Y-124005431D01*
X94135000Y-124005431D01*
X94135000Y-117354446D01*
X96254447Y-115235000D01*
X117745554Y-115235000D01*
X121759091Y-119248538D01*
X121800095Y-119309905D01*
X122043217Y-119472354D01*
X122257612Y-119515000D01*
X122257615Y-119515000D01*
X122329999Y-119529398D01*
X122402383Y-119515000D01*
X123705118Y-119515000D01*
X123929375Y-119850625D01*
X124227761Y-120050000D01*
X123929375Y-120249375D01*
X123771935Y-120485000D01*
X123265868Y-120485000D01*
X122848587Y-120067720D01*
X122802001Y-119997999D01*
X122525801Y-119813448D01*
X122282237Y-119765000D01*
X122282233Y-119765000D01*
X122200000Y-119748643D01*
X122117767Y-119765000D01*
X117782237Y-119765000D01*
X117700000Y-119748642D01*
X117617763Y-119765000D01*
X117374199Y-119813448D01*
X117097999Y-119997999D01*
X117051415Y-120067717D01*
X115273494Y-121845638D01*
X115177431Y-121613720D01*
X114886280Y-121322569D01*
X114505874Y-121165000D01*
X114094126Y-121165000D01*
X113713720Y-121322569D01*
X113422569Y-121613720D01*
X113320711Y-121859628D01*
X113177431Y-121513720D01*
X112886280Y-121222569D01*
X112505874Y-121065000D01*
X112094126Y-121065000D01*
X111713720Y-121222569D01*
X111671289Y-121265000D01*
X109345868Y-121265000D01*
X108648587Y-120567720D01*
X108602001Y-120497999D01*
X108325801Y-120313448D01*
X108082237Y-120265000D01*
X108082233Y-120265000D01*
X108000000Y-120248643D01*
X107917767Y-120265000D01*
X105928711Y-120265000D01*
X105886280Y-120222569D01*
X105505874Y-120065000D01*
X105094126Y-120065000D01*
X104713720Y-120222569D01*
X104422569Y-120513720D01*
X104265000Y-120894126D01*
X104265000Y-121305874D01*
X104422569Y-121686280D01*
X104713720Y-121977431D01*
X105094126Y-122135000D01*
X105505874Y-122135000D01*
X105886280Y-121977431D01*
X105928711Y-121935000D01*
X106230912Y-121935000D01*
X106165000Y-122094126D01*
X106165000Y-122265000D01*
X104145869Y-122265000D01*
X102735000Y-120854133D01*
X102735000Y-120794126D01*
X102577431Y-120413720D01*
X102286280Y-120122569D01*
X101905874Y-119965000D01*
X101494126Y-119965000D01*
X101113720Y-120122569D01*
X100822569Y-120413720D01*
X100665000Y-120794126D01*
X100665000Y-121205874D01*
X100822569Y-121586280D01*
X101113720Y-121877431D01*
X101494126Y-122035000D01*
X101554133Y-122035000D01*
X103151417Y-123632285D01*
X103197999Y-123702001D01*
X103474199Y-123886552D01*
X103717763Y-123935000D01*
X103717766Y-123935000D01*
X103799999Y-123951357D01*
X103882232Y-123935000D01*
X115117767Y-123935000D01*
X115200000Y-123951357D01*
X115282233Y-123935000D01*
X115282237Y-123935000D01*
X115525801Y-123886552D01*
X115802001Y-123702001D01*
X115848587Y-123632280D01*
X118045868Y-121435000D01*
X121854133Y-121435000D01*
X122271414Y-121852282D01*
X122317999Y-121922001D01*
X122594199Y-122106552D01*
X122837763Y-122155000D01*
X122920000Y-122171358D01*
X123002237Y-122155000D01*
X123771935Y-122155000D01*
X123929375Y-122390625D01*
X124227761Y-122590000D01*
X123929375Y-122789375D01*
X123601161Y-123280582D01*
X123485908Y-123860000D01*
X123601161Y-124439418D01*
X123929375Y-124930625D01*
X124227761Y-125130000D01*
X123929375Y-125329375D01*
X123601161Y-125820582D01*
X123485908Y-126400000D01*
X123585598Y-126901180D01*
X123574199Y-126903447D01*
X123297999Y-127087998D01*
X123251414Y-127157717D01*
X122497719Y-127911413D01*
X122427998Y-127957999D01*
X122243447Y-128234200D01*
X122194999Y-128477764D01*
X122194999Y-128477767D01*
X122178642Y-128560000D01*
X122194999Y-128642233D01*
X122194999Y-128994999D01*
X122172447Y-128994999D01*
X121900000Y-128940806D01*
X121418128Y-129036656D01*
X121009615Y-129309615D01*
X120736656Y-129718128D01*
X120640806Y-130200000D01*
X120736656Y-130681872D01*
X120940714Y-130987267D01*
X120970712Y-131017265D01*
X121039614Y-131120384D01*
X121448126Y-131393343D01*
X121808363Y-131464999D01*
X121808367Y-131464999D01*
X121929999Y-131489193D01*
X122051631Y-131464999D01*
X122194999Y-131464999D01*
X122194999Y-132247766D01*
X122178642Y-132329999D01*
X122194999Y-132412232D01*
X122194999Y-132412235D01*
X122243447Y-132655799D01*
X122427998Y-132932000D01*
X122497719Y-132978586D01*
X122821412Y-133302279D01*
X122867998Y-133372000D01*
X123088595Y-133519398D01*
X123144198Y-133556551D01*
X123469999Y-133621357D01*
X123552236Y-133604999D01*
X123568457Y-133604999D01*
X123485908Y-134020000D01*
X123601161Y-134599418D01*
X123929375Y-135090625D01*
X124227761Y-135290000D01*
X123929375Y-135489375D01*
X123601161Y-135980582D01*
X123485908Y-136560000D01*
X123601161Y-137139418D01*
X123929375Y-137630625D01*
X124227761Y-137830000D01*
X123929375Y-138029375D01*
X123601161Y-138520582D01*
X123485908Y-139100000D01*
X123601161Y-139679418D01*
X123929375Y-140170625D01*
X124227761Y-140370000D01*
X123929375Y-140569375D01*
X123601161Y-141060582D01*
X123485908Y-141640000D01*
X123601161Y-142219418D01*
X123929375Y-142710625D01*
X124227761Y-142910000D01*
X123929375Y-143109375D01*
X123601161Y-143600582D01*
X123485908Y-144180000D01*
X123601161Y-144759418D01*
X123929375Y-145250625D01*
X124227761Y-145450000D01*
X123929375Y-145649375D01*
X123601161Y-146140582D01*
X123485908Y-146720000D01*
X123601161Y-147299418D01*
X123929375Y-147790625D01*
X124248478Y-148003843D01*
X124118642Y-148064817D01*
X123728355Y-148493076D01*
X123558524Y-148903110D01*
X123679845Y-149133000D01*
X124873000Y-149133000D01*
X124873000Y-149113000D01*
X125127000Y-149113000D01*
X125127000Y-149133000D01*
X125147000Y-149133000D01*
X125147000Y-149387000D01*
X125127000Y-149387000D01*
X125127000Y-150580819D01*
X125356892Y-150701486D01*
X125881358Y-150455183D01*
X126268647Y-150030214D01*
X126469375Y-150330625D01*
X126960582Y-150658839D01*
X127393744Y-150745000D01*
X127686256Y-150745000D01*
X128119418Y-150658839D01*
X128610625Y-150330625D01*
X128938839Y-149839418D01*
X129054092Y-149260000D01*
X128938839Y-148680582D01*
X128610625Y-148189375D01*
X128312239Y-147990000D01*
X128610625Y-147790625D01*
X128938839Y-147299418D01*
X129054092Y-146720000D01*
X128938839Y-146140582D01*
X128610625Y-145649375D01*
X128312239Y-145450000D01*
X128610625Y-145250625D01*
X128938839Y-144759418D01*
X129054092Y-144180000D01*
X128938839Y-143600582D01*
X128610625Y-143109375D01*
X128291522Y-142896157D01*
X128421358Y-142835183D01*
X128811645Y-142406924D01*
X128981476Y-141996890D01*
X128860155Y-141767000D01*
X127667000Y-141767000D01*
X127667000Y-141787000D01*
X127413000Y-141787000D01*
X127413000Y-141767000D01*
X127393000Y-141767000D01*
X127393000Y-141513000D01*
X127413000Y-141513000D01*
X127413000Y-141493000D01*
X127667000Y-141493000D01*
X127667000Y-141513000D01*
X128860155Y-141513000D01*
X128981476Y-141283110D01*
X128811645Y-140873076D01*
X128421358Y-140444817D01*
X128291522Y-140383843D01*
X128610625Y-140170625D01*
X128938839Y-139679418D01*
X129054092Y-139100000D01*
X128938839Y-138520582D01*
X128610625Y-138029375D01*
X128291522Y-137816157D01*
X128421358Y-137755183D01*
X128811645Y-137326924D01*
X128981476Y-136916890D01*
X128860155Y-136687000D01*
X127667000Y-136687000D01*
X127667000Y-136707000D01*
X127413000Y-136707000D01*
X127413000Y-136687000D01*
X127393000Y-136687000D01*
X127393000Y-136433000D01*
X127413000Y-136433000D01*
X127413000Y-136413000D01*
X127667000Y-136413000D01*
X127667000Y-136433000D01*
X128860155Y-136433000D01*
X128981476Y-136203110D01*
X128811645Y-135793076D01*
X128421358Y-135364817D01*
X128291522Y-135303843D01*
X128610625Y-135090625D01*
X128938839Y-134599418D01*
X129054092Y-134020000D01*
X128971543Y-133604999D01*
X129147768Y-133604999D01*
X129230001Y-133621356D01*
X129312234Y-133604999D01*
X129312238Y-133604999D01*
X129555802Y-133556551D01*
X129832002Y-133372000D01*
X129878588Y-133302279D01*
X130832282Y-132348585D01*
X130902001Y-132302001D01*
X131086552Y-132025801D01*
X131135000Y-131782237D01*
X131135000Y-131782234D01*
X131151357Y-131700001D01*
X131135000Y-131617768D01*
X131135000Y-130567930D01*
X131290001Y-130464362D01*
X131290001Y-148930064D01*
X131102833Y-149871023D01*
X130609439Y-150609439D01*
X129871023Y-151102833D01*
X128930069Y-151290000D01*
X78069931Y-151290000D01*
X77793427Y-151235000D01*
X78444569Y-151235000D01*
X79266026Y-150894741D01*
X79894741Y-150266026D01*
X80163622Y-149616890D01*
X123558524Y-149616890D01*
X123728355Y-150026924D01*
X124118642Y-150455183D01*
X124643108Y-150701486D01*
X124873000Y-150580819D01*
X124873000Y-149387000D01*
X123679845Y-149387000D01*
X123558524Y-149616890D01*
X80163622Y-149616890D01*
X80235000Y-149444569D01*
X80235000Y-148555431D01*
X79894741Y-147733974D01*
X79266026Y-147105259D01*
X78444569Y-146765000D01*
X77555431Y-146765000D01*
X76733974Y-147105259D01*
X76105259Y-147733974D01*
X75765000Y-148555431D01*
X75765000Y-149206573D01*
X75710000Y-148930069D01*
X75710000Y-142340458D01*
X103330000Y-142340458D01*
X103330000Y-143239542D01*
X103674065Y-144070187D01*
X104309813Y-144705935D01*
X105140458Y-145050000D01*
X106039542Y-145050000D01*
X106870187Y-144705935D01*
X107505935Y-144070187D01*
X107850000Y-143239542D01*
X107850000Y-142340458D01*
X113490000Y-142340458D01*
X113490000Y-143239542D01*
X113834065Y-144070187D01*
X114469813Y-144705935D01*
X115300458Y-145050000D01*
X116199542Y-145050000D01*
X117030187Y-144705935D01*
X117665935Y-144070187D01*
X118010000Y-143239542D01*
X118010000Y-142340458D01*
X117665935Y-141509813D01*
X117030187Y-140874065D01*
X116199542Y-140530000D01*
X115300458Y-140530000D01*
X114469813Y-140874065D01*
X113834065Y-141509813D01*
X113490000Y-142340458D01*
X107850000Y-142340458D01*
X107505935Y-141509813D01*
X106870187Y-140874065D01*
X106039542Y-140530000D01*
X105140458Y-140530000D01*
X104309813Y-140874065D01*
X103674065Y-141509813D01*
X103330000Y-142340458D01*
X75710000Y-142340458D01*
X75710000Y-123585750D01*
X79665000Y-123585750D01*
X79665000Y-124326309D01*
X79761673Y-124559698D01*
X79940301Y-124738327D01*
X80173690Y-124835000D01*
X80914250Y-124835000D01*
X81073000Y-124676250D01*
X81073000Y-123427000D01*
X81327000Y-123427000D01*
X81327000Y-124676250D01*
X81485750Y-124835000D01*
X82226310Y-124835000D01*
X82459699Y-124738327D01*
X82638327Y-124559698D01*
X82735000Y-124326309D01*
X82735000Y-123585750D01*
X89265000Y-123585750D01*
X89265000Y-124326309D01*
X89361673Y-124559698D01*
X89540301Y-124738327D01*
X89773690Y-124835000D01*
X90514250Y-124835000D01*
X90673000Y-124676250D01*
X90673000Y-123427000D01*
X89423750Y-123427000D01*
X89265000Y-123585750D01*
X82735000Y-123585750D01*
X82576250Y-123427000D01*
X81327000Y-123427000D01*
X81073000Y-123427000D01*
X79823750Y-123427000D01*
X79665000Y-123585750D01*
X75710000Y-123585750D01*
X75710000Y-101069931D01*
X75765000Y-100793427D01*
X75765000Y-101444569D01*
X76105259Y-102266026D01*
X76733974Y-102894741D01*
X77555431Y-103235000D01*
X78444569Y-103235000D01*
X79266026Y-102894741D01*
X79894741Y-102266026D01*
X80235000Y-101444569D01*
X80235000Y-100805431D01*
X96465000Y-100805431D01*
X96465000Y-101694569D01*
X96805259Y-102516026D01*
X97433974Y-103144741D01*
X98255431Y-103485000D01*
X99144569Y-103485000D01*
X99966026Y-103144741D01*
X100594741Y-102516026D01*
X100935000Y-101694569D01*
X100935000Y-100805431D01*
X100594741Y-99983974D01*
X99966026Y-99355259D01*
X99144569Y-99015000D01*
X98255431Y-99015000D01*
X97433974Y-99355259D01*
X96805259Y-99983974D01*
X96465000Y-100805431D01*
X80235000Y-100805431D01*
X80235000Y-100555431D01*
X79894741Y-99733974D01*
X79266026Y-99105259D01*
X78444569Y-98765000D01*
X77793427Y-98765000D01*
X78069931Y-98710000D01*
X128930069Y-98710000D01*
X129871023Y-98897167D01*
G36*
X125127000Y-131353000D02*
X125147000Y-131353000D01*
X125147000Y-131607000D01*
X125127000Y-131607000D01*
X125127000Y-131627000D01*
X124873000Y-131627000D01*
X124873000Y-131607000D01*
X124853000Y-131607000D01*
X124853000Y-131353000D01*
X124873000Y-131353000D01*
X124873000Y-131333000D01*
X125127000Y-131333000D01*
X125127000Y-131353000D01*
X125127000Y-131353000D01*
G37*
X125127000Y-131353000D02*
X125147000Y-131353000D01*
X125147000Y-131607000D01*
X125127000Y-131607000D01*
X125127000Y-131627000D01*
X124873000Y-131627000D01*
X124873000Y-131607000D01*
X124853000Y-131607000D01*
X124853000Y-131353000D01*
X124873000Y-131353000D01*
X124873000Y-131333000D01*
X125127000Y-131333000D01*
X125127000Y-131353000D01*
G36*
X127667000Y-123733000D02*
X127687000Y-123733000D01*
X127687000Y-123987000D01*
X127667000Y-123987000D01*
X127667000Y-124007000D01*
X127413000Y-124007000D01*
X127413000Y-123987000D01*
X127393000Y-123987000D01*
X127393000Y-123733000D01*
X127413000Y-123733000D01*
X127413000Y-123713000D01*
X127667000Y-123713000D01*
X127667000Y-123733000D01*
X127667000Y-123733000D01*
G37*
X127667000Y-123733000D02*
X127687000Y-123733000D01*
X127687000Y-123987000D01*
X127667000Y-123987000D01*
X127667000Y-124007000D01*
X127413000Y-124007000D01*
X127413000Y-123987000D01*
X127393000Y-123987000D01*
X127393000Y-123733000D01*
X127413000Y-123733000D01*
X127413000Y-123713000D01*
X127667000Y-123713000D01*
X127667000Y-123733000D01*
G36*
X127667000Y-116113000D02*
X127687000Y-116113000D01*
X127687000Y-116367000D01*
X127667000Y-116367000D01*
X127667000Y-116387000D01*
X127413000Y-116387000D01*
X127413000Y-116367000D01*
X127393000Y-116367000D01*
X127393000Y-116113000D01*
X127413000Y-116113000D01*
X127413000Y-116093000D01*
X127667000Y-116093000D01*
X127667000Y-116113000D01*
X127667000Y-116113000D01*
G37*
X127667000Y-116113000D02*
X127687000Y-116113000D01*
X127687000Y-116367000D01*
X127667000Y-116367000D01*
X127667000Y-116387000D01*
X127413000Y-116387000D01*
X127413000Y-116367000D01*
X127393000Y-116367000D01*
X127393000Y-116113000D01*
X127413000Y-116113000D01*
X127413000Y-116093000D01*
X127667000Y-116093000D01*
X127667000Y-116113000D01*
G36*
X127667000Y-105953000D02*
X127687000Y-105953000D01*
X127687000Y-106207000D01*
X127667000Y-106207000D01*
X127667000Y-106227000D01*
X127413000Y-106227000D01*
X127413000Y-106207000D01*
X127393000Y-106207000D01*
X127393000Y-105953000D01*
X127413000Y-105953000D01*
X127413000Y-105933000D01*
X127667000Y-105933000D01*
X127667000Y-105953000D01*
X127667000Y-105953000D01*
G37*
X127667000Y-105953000D02*
X127687000Y-105953000D01*
X127687000Y-106207000D01*
X127667000Y-106207000D01*
X127667000Y-106227000D01*
X127413000Y-106227000D01*
X127413000Y-106207000D01*
X127393000Y-106207000D01*
X127393000Y-105953000D01*
X127413000Y-105953000D01*
X127413000Y-105933000D01*
X127667000Y-105933000D01*
X127667000Y-105953000D01*
M02*
