M48
;DRILL file {KiCad 5.0-dev-unknown-9241a39~61~ubuntu17.10.1} date Wed Jul 25 16:03:09 2018
;FORMAT={-:-/ absolute / inch / decimal}
FMAT,2
INCH,TZ
T1C0.0157
T2C0.0299
T3C0.0354
T4C0.0394
T5C0.0591
T6C0.0669
T7C0.1260
T8C0.1280
T9C0.1575
%
G90
G05
M72
T1
X3.3465Y-3.937
X3.3465Y-3.9862
X3.3465Y-4.0354
X3.376Y-3.9665
X3.4055Y-3.9961
X3.435Y-3.9665
X3.4646Y-3.937
X3.4646Y-3.9862
X3.4646Y-4.0354
X3.9646Y-4.5433
X4.0039Y-4.7638
X4.0945Y-4.7677
X4.1024Y-5.1083
X4.1378Y-4.5433
X4.1457Y-4.7677
X4.1929Y-4.9409
X4.2047Y-5.1083
X4.2205Y-4.5433
X4.2205Y-4.815
X4.3071Y-5.1083
X4.3465Y-4.7638
X4.3937Y-4.5591
X4.4094Y-5.1083
X4.4193Y-4.9409
X4.4213Y-4.8071
X4.4291Y-4.7441
X4.4921Y-4.5591
X4.5Y-4.811
X4.5118Y-5.0591
X4.5118Y-5.1083
X4.6142Y-5.1083
X4.6949Y-5.0689
X4.7047Y-4.689
X4.7539Y-4.6949
X4.7835Y-5.0492
X4.7992Y-5.126
X4.8346Y-5.126
X5.128Y-5.2953
T2
X4.2323Y-5.2717
X4.2823Y-5.3717
X4.3323Y-5.2717
X4.3823Y-5.3717
X4.4323Y-5.2717
X4.4823Y-5.3717
T3
X3.5748Y-4.7543
X3.5748Y-4.8543
X3.1969Y-4.7543
X3.1969Y-4.8543
T4
X4.1417Y-3.9724
X4.2417Y-3.9724
X4.3417Y-3.9724
X4.4417Y-3.9724
X4.5417Y-3.9724
X4.9213Y-3.9764
X4.9213Y-4.0764
X4.9213Y-4.1764
X4.9213Y-4.2764
X4.9213Y-4.3764
X4.9213Y-4.4764
X4.9213Y-4.5764
X4.9213Y-4.6764
X4.9213Y-4.7764
X4.9213Y-4.8764
X4.9213Y-4.9764
X4.9213Y-5.0764
X4.9213Y-5.1764
X4.9213Y-5.2764
X4.9213Y-5.3764
X4.9213Y-5.4764
X4.9213Y-5.5764
X4.9213Y-5.6764
X4.9213Y-5.7764
X4.9213Y-5.8764
X5.0213Y-3.9764
X5.0213Y-4.0764
X5.0213Y-4.1764
X5.0213Y-4.2764
X5.0213Y-4.3764
X5.0213Y-4.4764
X5.0213Y-4.5764
X5.0213Y-4.6764
X5.0213Y-4.7764
X5.0213Y-4.8764
X5.0213Y-4.9764
X5.0213Y-5.0764
X5.0213Y-5.1764
X5.0213Y-5.2764
X5.0213Y-5.3764
X5.0213Y-5.4764
X5.0213Y-5.5764
X5.0213Y-5.6764
X5.0213Y-5.7764
X5.0213Y-5.8764
T5
X3.2358Y-5.3331
X3.4858Y-5.2331
T6
X3.1858Y-5.4331
X3.5858Y-5.4331
T7
X4.7008Y-4.8996
X3.8858Y-4.8996
X3.8858Y-3.9862
X4.7008Y-3.9862
X3.0709Y-5.8661
X3.0709Y-3.9764
T8
X4.1571Y-5.6217
X4.5571Y-5.6217
T9
X3.3858Y-5.4331
T0
M30
