G04 #@! TF.GenerationSoftware,KiCad,Pcbnew,5.0-dev-unknown-9241a39~61~ubuntu17.10.1*
G04 #@! TF.CreationDate,2018-07-25T16:03:07+02:00*
G04 #@! TF.ProjectId,tag-connect-hat,7461672D636F6E6E6563742D6861742E,rev?*
G04 #@! TF.SameCoordinates,Original*
G04 #@! TF.FileFunction,Paste,Top*
G04 #@! TF.FilePolarity,Positive*
%FSLAX46Y46*%
G04 Gerber Fmt 4.6, Leading zero omitted, Abs format (unit mm)*
G04 Created by KiCad (PCBNEW 5.0-dev-unknown-9241a39~61~ubuntu17.10.1) date Wed Jul 25 16:03:07 2018*
%MOMM*%
%LPD*%
G01*
G04 APERTURE LIST*
%ADD10R,0.250000X0.750000*%
%ADD11C,0.100000*%
%ADD12C,0.950000*%
G04 APERTURE END LIST*
D10*
X115150000Y-116650000D03*
X115650000Y-116650000D03*
X116150000Y-116650000D03*
X116650000Y-116650000D03*
X116650000Y-119750000D03*
X116150000Y-119750000D03*
X115650000Y-119750000D03*
X115150000Y-119750000D03*
X108650000Y-116650000D03*
X109150000Y-116650000D03*
X109650000Y-116650000D03*
X110150000Y-116650000D03*
X110150000Y-119750000D03*
X109650000Y-119750000D03*
X109150000Y-119750000D03*
X108650000Y-119750000D03*
X102150000Y-119750000D03*
X102650000Y-119750000D03*
X103150000Y-119750000D03*
X103650000Y-119750000D03*
X103650000Y-116650000D03*
X103150000Y-116650000D03*
X102650000Y-116650000D03*
X102150000Y-116650000D03*
D11*
G36*
X118360779Y-118551144D02*
X118383834Y-118554563D01*
X118406443Y-118560227D01*
X118428387Y-118568079D01*
X118449457Y-118578044D01*
X118469448Y-118590026D01*
X118488168Y-118603910D01*
X118505438Y-118619562D01*
X118521090Y-118636832D01*
X118534974Y-118655552D01*
X118546956Y-118675543D01*
X118556921Y-118696613D01*
X118564773Y-118718557D01*
X118570437Y-118741166D01*
X118573856Y-118764221D01*
X118575000Y-118787500D01*
X118575000Y-119362500D01*
X118573856Y-119385779D01*
X118570437Y-119408834D01*
X118564773Y-119431443D01*
X118556921Y-119453387D01*
X118546956Y-119474457D01*
X118534974Y-119494448D01*
X118521090Y-119513168D01*
X118505438Y-119530438D01*
X118488168Y-119546090D01*
X118469448Y-119559974D01*
X118449457Y-119571956D01*
X118428387Y-119581921D01*
X118406443Y-119589773D01*
X118383834Y-119595437D01*
X118360779Y-119598856D01*
X118337500Y-119600000D01*
X117862500Y-119600000D01*
X117839221Y-119598856D01*
X117816166Y-119595437D01*
X117793557Y-119589773D01*
X117771613Y-119581921D01*
X117750543Y-119571956D01*
X117730552Y-119559974D01*
X117711832Y-119546090D01*
X117694562Y-119530438D01*
X117678910Y-119513168D01*
X117665026Y-119494448D01*
X117653044Y-119474457D01*
X117643079Y-119453387D01*
X117635227Y-119431443D01*
X117629563Y-119408834D01*
X117626144Y-119385779D01*
X117625000Y-119362500D01*
X117625000Y-118787500D01*
X117626144Y-118764221D01*
X117629563Y-118741166D01*
X117635227Y-118718557D01*
X117643079Y-118696613D01*
X117653044Y-118675543D01*
X117665026Y-118655552D01*
X117678910Y-118636832D01*
X117694562Y-118619562D01*
X117711832Y-118603910D01*
X117730552Y-118590026D01*
X117750543Y-118578044D01*
X117771613Y-118568079D01*
X117793557Y-118560227D01*
X117816166Y-118554563D01*
X117839221Y-118551144D01*
X117862500Y-118550000D01*
X118337500Y-118550000D01*
X118360779Y-118551144D01*
X118360779Y-118551144D01*
G37*
D12*
X118100000Y-119075000D03*
D11*
G36*
X118360779Y-116801144D02*
X118383834Y-116804563D01*
X118406443Y-116810227D01*
X118428387Y-116818079D01*
X118449457Y-116828044D01*
X118469448Y-116840026D01*
X118488168Y-116853910D01*
X118505438Y-116869562D01*
X118521090Y-116886832D01*
X118534974Y-116905552D01*
X118546956Y-116925543D01*
X118556921Y-116946613D01*
X118564773Y-116968557D01*
X118570437Y-116991166D01*
X118573856Y-117014221D01*
X118575000Y-117037500D01*
X118575000Y-117612500D01*
X118573856Y-117635779D01*
X118570437Y-117658834D01*
X118564773Y-117681443D01*
X118556921Y-117703387D01*
X118546956Y-117724457D01*
X118534974Y-117744448D01*
X118521090Y-117763168D01*
X118505438Y-117780438D01*
X118488168Y-117796090D01*
X118469448Y-117809974D01*
X118449457Y-117821956D01*
X118428387Y-117831921D01*
X118406443Y-117839773D01*
X118383834Y-117845437D01*
X118360779Y-117848856D01*
X118337500Y-117850000D01*
X117862500Y-117850000D01*
X117839221Y-117848856D01*
X117816166Y-117845437D01*
X117793557Y-117839773D01*
X117771613Y-117831921D01*
X117750543Y-117821956D01*
X117730552Y-117809974D01*
X117711832Y-117796090D01*
X117694562Y-117780438D01*
X117678910Y-117763168D01*
X117665026Y-117744448D01*
X117653044Y-117724457D01*
X117643079Y-117703387D01*
X117635227Y-117681443D01*
X117629563Y-117658834D01*
X117626144Y-117635779D01*
X117625000Y-117612500D01*
X117625000Y-117037500D01*
X117626144Y-117014221D01*
X117629563Y-116991166D01*
X117635227Y-116968557D01*
X117643079Y-116946613D01*
X117653044Y-116925543D01*
X117665026Y-116905552D01*
X117678910Y-116886832D01*
X117694562Y-116869562D01*
X117711832Y-116853910D01*
X117730552Y-116840026D01*
X117750543Y-116828044D01*
X117771613Y-116818079D01*
X117793557Y-116810227D01*
X117816166Y-116804563D01*
X117839221Y-116801144D01*
X117862500Y-116800000D01*
X118337500Y-116800000D01*
X118360779Y-116801144D01*
X118360779Y-116801144D01*
G37*
D12*
X118100000Y-117325000D03*
D11*
G36*
X111860779Y-116801144D02*
X111883834Y-116804563D01*
X111906443Y-116810227D01*
X111928387Y-116818079D01*
X111949457Y-116828044D01*
X111969448Y-116840026D01*
X111988168Y-116853910D01*
X112005438Y-116869562D01*
X112021090Y-116886832D01*
X112034974Y-116905552D01*
X112046956Y-116925543D01*
X112056921Y-116946613D01*
X112064773Y-116968557D01*
X112070437Y-116991166D01*
X112073856Y-117014221D01*
X112075000Y-117037500D01*
X112075000Y-117612500D01*
X112073856Y-117635779D01*
X112070437Y-117658834D01*
X112064773Y-117681443D01*
X112056921Y-117703387D01*
X112046956Y-117724457D01*
X112034974Y-117744448D01*
X112021090Y-117763168D01*
X112005438Y-117780438D01*
X111988168Y-117796090D01*
X111969448Y-117809974D01*
X111949457Y-117821956D01*
X111928387Y-117831921D01*
X111906443Y-117839773D01*
X111883834Y-117845437D01*
X111860779Y-117848856D01*
X111837500Y-117850000D01*
X111362500Y-117850000D01*
X111339221Y-117848856D01*
X111316166Y-117845437D01*
X111293557Y-117839773D01*
X111271613Y-117831921D01*
X111250543Y-117821956D01*
X111230552Y-117809974D01*
X111211832Y-117796090D01*
X111194562Y-117780438D01*
X111178910Y-117763168D01*
X111165026Y-117744448D01*
X111153044Y-117724457D01*
X111143079Y-117703387D01*
X111135227Y-117681443D01*
X111129563Y-117658834D01*
X111126144Y-117635779D01*
X111125000Y-117612500D01*
X111125000Y-117037500D01*
X111126144Y-117014221D01*
X111129563Y-116991166D01*
X111135227Y-116968557D01*
X111143079Y-116946613D01*
X111153044Y-116925543D01*
X111165026Y-116905552D01*
X111178910Y-116886832D01*
X111194562Y-116869562D01*
X111211832Y-116853910D01*
X111230552Y-116840026D01*
X111250543Y-116828044D01*
X111271613Y-116818079D01*
X111293557Y-116810227D01*
X111316166Y-116804563D01*
X111339221Y-116801144D01*
X111362500Y-116800000D01*
X111837500Y-116800000D01*
X111860779Y-116801144D01*
X111860779Y-116801144D01*
G37*
D12*
X111600000Y-117325000D03*
D11*
G36*
X111860779Y-118551144D02*
X111883834Y-118554563D01*
X111906443Y-118560227D01*
X111928387Y-118568079D01*
X111949457Y-118578044D01*
X111969448Y-118590026D01*
X111988168Y-118603910D01*
X112005438Y-118619562D01*
X112021090Y-118636832D01*
X112034974Y-118655552D01*
X112046956Y-118675543D01*
X112056921Y-118696613D01*
X112064773Y-118718557D01*
X112070437Y-118741166D01*
X112073856Y-118764221D01*
X112075000Y-118787500D01*
X112075000Y-119362500D01*
X112073856Y-119385779D01*
X112070437Y-119408834D01*
X112064773Y-119431443D01*
X112056921Y-119453387D01*
X112046956Y-119474457D01*
X112034974Y-119494448D01*
X112021090Y-119513168D01*
X112005438Y-119530438D01*
X111988168Y-119546090D01*
X111969448Y-119559974D01*
X111949457Y-119571956D01*
X111928387Y-119581921D01*
X111906443Y-119589773D01*
X111883834Y-119595437D01*
X111860779Y-119598856D01*
X111837500Y-119600000D01*
X111362500Y-119600000D01*
X111339221Y-119598856D01*
X111316166Y-119595437D01*
X111293557Y-119589773D01*
X111271613Y-119581921D01*
X111250543Y-119571956D01*
X111230552Y-119559974D01*
X111211832Y-119546090D01*
X111194562Y-119530438D01*
X111178910Y-119513168D01*
X111165026Y-119494448D01*
X111153044Y-119474457D01*
X111143079Y-119453387D01*
X111135227Y-119431443D01*
X111129563Y-119408834D01*
X111126144Y-119385779D01*
X111125000Y-119362500D01*
X111125000Y-118787500D01*
X111126144Y-118764221D01*
X111129563Y-118741166D01*
X111135227Y-118718557D01*
X111143079Y-118696613D01*
X111153044Y-118675543D01*
X111165026Y-118655552D01*
X111178910Y-118636832D01*
X111194562Y-118619562D01*
X111211832Y-118603910D01*
X111230552Y-118590026D01*
X111250543Y-118578044D01*
X111271613Y-118568079D01*
X111293557Y-118560227D01*
X111316166Y-118554563D01*
X111339221Y-118551144D01*
X111362500Y-118550000D01*
X111837500Y-118550000D01*
X111860779Y-118551144D01*
X111860779Y-118551144D01*
G37*
D12*
X111600000Y-119075000D03*
D11*
G36*
X113960779Y-116801144D02*
X113983834Y-116804563D01*
X114006443Y-116810227D01*
X114028387Y-116818079D01*
X114049457Y-116828044D01*
X114069448Y-116840026D01*
X114088168Y-116853910D01*
X114105438Y-116869562D01*
X114121090Y-116886832D01*
X114134974Y-116905552D01*
X114146956Y-116925543D01*
X114156921Y-116946613D01*
X114164773Y-116968557D01*
X114170437Y-116991166D01*
X114173856Y-117014221D01*
X114175000Y-117037500D01*
X114175000Y-117612500D01*
X114173856Y-117635779D01*
X114170437Y-117658834D01*
X114164773Y-117681443D01*
X114156921Y-117703387D01*
X114146956Y-117724457D01*
X114134974Y-117744448D01*
X114121090Y-117763168D01*
X114105438Y-117780438D01*
X114088168Y-117796090D01*
X114069448Y-117809974D01*
X114049457Y-117821956D01*
X114028387Y-117831921D01*
X114006443Y-117839773D01*
X113983834Y-117845437D01*
X113960779Y-117848856D01*
X113937500Y-117850000D01*
X113462500Y-117850000D01*
X113439221Y-117848856D01*
X113416166Y-117845437D01*
X113393557Y-117839773D01*
X113371613Y-117831921D01*
X113350543Y-117821956D01*
X113330552Y-117809974D01*
X113311832Y-117796090D01*
X113294562Y-117780438D01*
X113278910Y-117763168D01*
X113265026Y-117744448D01*
X113253044Y-117724457D01*
X113243079Y-117703387D01*
X113235227Y-117681443D01*
X113229563Y-117658834D01*
X113226144Y-117635779D01*
X113225000Y-117612500D01*
X113225000Y-117037500D01*
X113226144Y-117014221D01*
X113229563Y-116991166D01*
X113235227Y-116968557D01*
X113243079Y-116946613D01*
X113253044Y-116925543D01*
X113265026Y-116905552D01*
X113278910Y-116886832D01*
X113294562Y-116869562D01*
X113311832Y-116853910D01*
X113330552Y-116840026D01*
X113350543Y-116828044D01*
X113371613Y-116818079D01*
X113393557Y-116810227D01*
X113416166Y-116804563D01*
X113439221Y-116801144D01*
X113462500Y-116800000D01*
X113937500Y-116800000D01*
X113960779Y-116801144D01*
X113960779Y-116801144D01*
G37*
D12*
X113700000Y-117325000D03*
D11*
G36*
X113960779Y-118551144D02*
X113983834Y-118554563D01*
X114006443Y-118560227D01*
X114028387Y-118568079D01*
X114049457Y-118578044D01*
X114069448Y-118590026D01*
X114088168Y-118603910D01*
X114105438Y-118619562D01*
X114121090Y-118636832D01*
X114134974Y-118655552D01*
X114146956Y-118675543D01*
X114156921Y-118696613D01*
X114164773Y-118718557D01*
X114170437Y-118741166D01*
X114173856Y-118764221D01*
X114175000Y-118787500D01*
X114175000Y-119362500D01*
X114173856Y-119385779D01*
X114170437Y-119408834D01*
X114164773Y-119431443D01*
X114156921Y-119453387D01*
X114146956Y-119474457D01*
X114134974Y-119494448D01*
X114121090Y-119513168D01*
X114105438Y-119530438D01*
X114088168Y-119546090D01*
X114069448Y-119559974D01*
X114049457Y-119571956D01*
X114028387Y-119581921D01*
X114006443Y-119589773D01*
X113983834Y-119595437D01*
X113960779Y-119598856D01*
X113937500Y-119600000D01*
X113462500Y-119600000D01*
X113439221Y-119598856D01*
X113416166Y-119595437D01*
X113393557Y-119589773D01*
X113371613Y-119581921D01*
X113350543Y-119571956D01*
X113330552Y-119559974D01*
X113311832Y-119546090D01*
X113294562Y-119530438D01*
X113278910Y-119513168D01*
X113265026Y-119494448D01*
X113253044Y-119474457D01*
X113243079Y-119453387D01*
X113235227Y-119431443D01*
X113229563Y-119408834D01*
X113226144Y-119385779D01*
X113225000Y-119362500D01*
X113225000Y-118787500D01*
X113226144Y-118764221D01*
X113229563Y-118741166D01*
X113235227Y-118718557D01*
X113243079Y-118696613D01*
X113253044Y-118675543D01*
X113265026Y-118655552D01*
X113278910Y-118636832D01*
X113294562Y-118619562D01*
X113311832Y-118603910D01*
X113330552Y-118590026D01*
X113350543Y-118578044D01*
X113371613Y-118568079D01*
X113393557Y-118560227D01*
X113416166Y-118554563D01*
X113439221Y-118551144D01*
X113462500Y-118550000D01*
X113937500Y-118550000D01*
X113960779Y-118551144D01*
X113960779Y-118551144D01*
G37*
D12*
X113700000Y-119075000D03*
D11*
G36*
X107460779Y-116801144D02*
X107483834Y-116804563D01*
X107506443Y-116810227D01*
X107528387Y-116818079D01*
X107549457Y-116828044D01*
X107569448Y-116840026D01*
X107588168Y-116853910D01*
X107605438Y-116869562D01*
X107621090Y-116886832D01*
X107634974Y-116905552D01*
X107646956Y-116925543D01*
X107656921Y-116946613D01*
X107664773Y-116968557D01*
X107670437Y-116991166D01*
X107673856Y-117014221D01*
X107675000Y-117037500D01*
X107675000Y-117612500D01*
X107673856Y-117635779D01*
X107670437Y-117658834D01*
X107664773Y-117681443D01*
X107656921Y-117703387D01*
X107646956Y-117724457D01*
X107634974Y-117744448D01*
X107621090Y-117763168D01*
X107605438Y-117780438D01*
X107588168Y-117796090D01*
X107569448Y-117809974D01*
X107549457Y-117821956D01*
X107528387Y-117831921D01*
X107506443Y-117839773D01*
X107483834Y-117845437D01*
X107460779Y-117848856D01*
X107437500Y-117850000D01*
X106962500Y-117850000D01*
X106939221Y-117848856D01*
X106916166Y-117845437D01*
X106893557Y-117839773D01*
X106871613Y-117831921D01*
X106850543Y-117821956D01*
X106830552Y-117809974D01*
X106811832Y-117796090D01*
X106794562Y-117780438D01*
X106778910Y-117763168D01*
X106765026Y-117744448D01*
X106753044Y-117724457D01*
X106743079Y-117703387D01*
X106735227Y-117681443D01*
X106729563Y-117658834D01*
X106726144Y-117635779D01*
X106725000Y-117612500D01*
X106725000Y-117037500D01*
X106726144Y-117014221D01*
X106729563Y-116991166D01*
X106735227Y-116968557D01*
X106743079Y-116946613D01*
X106753044Y-116925543D01*
X106765026Y-116905552D01*
X106778910Y-116886832D01*
X106794562Y-116869562D01*
X106811832Y-116853910D01*
X106830552Y-116840026D01*
X106850543Y-116828044D01*
X106871613Y-116818079D01*
X106893557Y-116810227D01*
X106916166Y-116804563D01*
X106939221Y-116801144D01*
X106962500Y-116800000D01*
X107437500Y-116800000D01*
X107460779Y-116801144D01*
X107460779Y-116801144D01*
G37*
D12*
X107200000Y-117325000D03*
D11*
G36*
X107460779Y-118551144D02*
X107483834Y-118554563D01*
X107506443Y-118560227D01*
X107528387Y-118568079D01*
X107549457Y-118578044D01*
X107569448Y-118590026D01*
X107588168Y-118603910D01*
X107605438Y-118619562D01*
X107621090Y-118636832D01*
X107634974Y-118655552D01*
X107646956Y-118675543D01*
X107656921Y-118696613D01*
X107664773Y-118718557D01*
X107670437Y-118741166D01*
X107673856Y-118764221D01*
X107675000Y-118787500D01*
X107675000Y-119362500D01*
X107673856Y-119385779D01*
X107670437Y-119408834D01*
X107664773Y-119431443D01*
X107656921Y-119453387D01*
X107646956Y-119474457D01*
X107634974Y-119494448D01*
X107621090Y-119513168D01*
X107605438Y-119530438D01*
X107588168Y-119546090D01*
X107569448Y-119559974D01*
X107549457Y-119571956D01*
X107528387Y-119581921D01*
X107506443Y-119589773D01*
X107483834Y-119595437D01*
X107460779Y-119598856D01*
X107437500Y-119600000D01*
X106962500Y-119600000D01*
X106939221Y-119598856D01*
X106916166Y-119595437D01*
X106893557Y-119589773D01*
X106871613Y-119581921D01*
X106850543Y-119571956D01*
X106830552Y-119559974D01*
X106811832Y-119546090D01*
X106794562Y-119530438D01*
X106778910Y-119513168D01*
X106765026Y-119494448D01*
X106753044Y-119474457D01*
X106743079Y-119453387D01*
X106735227Y-119431443D01*
X106729563Y-119408834D01*
X106726144Y-119385779D01*
X106725000Y-119362500D01*
X106725000Y-118787500D01*
X106726144Y-118764221D01*
X106729563Y-118741166D01*
X106735227Y-118718557D01*
X106743079Y-118696613D01*
X106753044Y-118675543D01*
X106765026Y-118655552D01*
X106778910Y-118636832D01*
X106794562Y-118619562D01*
X106811832Y-118603910D01*
X106830552Y-118590026D01*
X106850543Y-118578044D01*
X106871613Y-118568079D01*
X106893557Y-118560227D01*
X106916166Y-118554563D01*
X106939221Y-118551144D01*
X106962500Y-118550000D01*
X107437500Y-118550000D01*
X107460779Y-118551144D01*
X107460779Y-118551144D01*
G37*
D12*
X107200000Y-119075000D03*
D11*
G36*
X105360779Y-118551144D02*
X105383834Y-118554563D01*
X105406443Y-118560227D01*
X105428387Y-118568079D01*
X105449457Y-118578044D01*
X105469448Y-118590026D01*
X105488168Y-118603910D01*
X105505438Y-118619562D01*
X105521090Y-118636832D01*
X105534974Y-118655552D01*
X105546956Y-118675543D01*
X105556921Y-118696613D01*
X105564773Y-118718557D01*
X105570437Y-118741166D01*
X105573856Y-118764221D01*
X105575000Y-118787500D01*
X105575000Y-119362500D01*
X105573856Y-119385779D01*
X105570437Y-119408834D01*
X105564773Y-119431443D01*
X105556921Y-119453387D01*
X105546956Y-119474457D01*
X105534974Y-119494448D01*
X105521090Y-119513168D01*
X105505438Y-119530438D01*
X105488168Y-119546090D01*
X105469448Y-119559974D01*
X105449457Y-119571956D01*
X105428387Y-119581921D01*
X105406443Y-119589773D01*
X105383834Y-119595437D01*
X105360779Y-119598856D01*
X105337500Y-119600000D01*
X104862500Y-119600000D01*
X104839221Y-119598856D01*
X104816166Y-119595437D01*
X104793557Y-119589773D01*
X104771613Y-119581921D01*
X104750543Y-119571956D01*
X104730552Y-119559974D01*
X104711832Y-119546090D01*
X104694562Y-119530438D01*
X104678910Y-119513168D01*
X104665026Y-119494448D01*
X104653044Y-119474457D01*
X104643079Y-119453387D01*
X104635227Y-119431443D01*
X104629563Y-119408834D01*
X104626144Y-119385779D01*
X104625000Y-119362500D01*
X104625000Y-118787500D01*
X104626144Y-118764221D01*
X104629563Y-118741166D01*
X104635227Y-118718557D01*
X104643079Y-118696613D01*
X104653044Y-118675543D01*
X104665026Y-118655552D01*
X104678910Y-118636832D01*
X104694562Y-118619562D01*
X104711832Y-118603910D01*
X104730552Y-118590026D01*
X104750543Y-118578044D01*
X104771613Y-118568079D01*
X104793557Y-118560227D01*
X104816166Y-118554563D01*
X104839221Y-118551144D01*
X104862500Y-118550000D01*
X105337500Y-118550000D01*
X105360779Y-118551144D01*
X105360779Y-118551144D01*
G37*
D12*
X105100000Y-119075000D03*
D11*
G36*
X105360779Y-116801144D02*
X105383834Y-116804563D01*
X105406443Y-116810227D01*
X105428387Y-116818079D01*
X105449457Y-116828044D01*
X105469448Y-116840026D01*
X105488168Y-116853910D01*
X105505438Y-116869562D01*
X105521090Y-116886832D01*
X105534974Y-116905552D01*
X105546956Y-116925543D01*
X105556921Y-116946613D01*
X105564773Y-116968557D01*
X105570437Y-116991166D01*
X105573856Y-117014221D01*
X105575000Y-117037500D01*
X105575000Y-117612500D01*
X105573856Y-117635779D01*
X105570437Y-117658834D01*
X105564773Y-117681443D01*
X105556921Y-117703387D01*
X105546956Y-117724457D01*
X105534974Y-117744448D01*
X105521090Y-117763168D01*
X105505438Y-117780438D01*
X105488168Y-117796090D01*
X105469448Y-117809974D01*
X105449457Y-117821956D01*
X105428387Y-117831921D01*
X105406443Y-117839773D01*
X105383834Y-117845437D01*
X105360779Y-117848856D01*
X105337500Y-117850000D01*
X104862500Y-117850000D01*
X104839221Y-117848856D01*
X104816166Y-117845437D01*
X104793557Y-117839773D01*
X104771613Y-117831921D01*
X104750543Y-117821956D01*
X104730552Y-117809974D01*
X104711832Y-117796090D01*
X104694562Y-117780438D01*
X104678910Y-117763168D01*
X104665026Y-117744448D01*
X104653044Y-117724457D01*
X104643079Y-117703387D01*
X104635227Y-117681443D01*
X104629563Y-117658834D01*
X104626144Y-117635779D01*
X104625000Y-117612500D01*
X104625000Y-117037500D01*
X104626144Y-117014221D01*
X104629563Y-116991166D01*
X104635227Y-116968557D01*
X104643079Y-116946613D01*
X104653044Y-116925543D01*
X104665026Y-116905552D01*
X104678910Y-116886832D01*
X104694562Y-116869562D01*
X104711832Y-116853910D01*
X104730552Y-116840026D01*
X104750543Y-116828044D01*
X104771613Y-116818079D01*
X104793557Y-116810227D01*
X104816166Y-116804563D01*
X104839221Y-116801144D01*
X104862500Y-116800000D01*
X105337500Y-116800000D01*
X105360779Y-116801144D01*
X105360779Y-116801144D01*
G37*
D12*
X105100000Y-117325000D03*
D11*
G36*
X100960779Y-118551144D02*
X100983834Y-118554563D01*
X101006443Y-118560227D01*
X101028387Y-118568079D01*
X101049457Y-118578044D01*
X101069448Y-118590026D01*
X101088168Y-118603910D01*
X101105438Y-118619562D01*
X101121090Y-118636832D01*
X101134974Y-118655552D01*
X101146956Y-118675543D01*
X101156921Y-118696613D01*
X101164773Y-118718557D01*
X101170437Y-118741166D01*
X101173856Y-118764221D01*
X101175000Y-118787500D01*
X101175000Y-119362500D01*
X101173856Y-119385779D01*
X101170437Y-119408834D01*
X101164773Y-119431443D01*
X101156921Y-119453387D01*
X101146956Y-119474457D01*
X101134974Y-119494448D01*
X101121090Y-119513168D01*
X101105438Y-119530438D01*
X101088168Y-119546090D01*
X101069448Y-119559974D01*
X101049457Y-119571956D01*
X101028387Y-119581921D01*
X101006443Y-119589773D01*
X100983834Y-119595437D01*
X100960779Y-119598856D01*
X100937500Y-119600000D01*
X100462500Y-119600000D01*
X100439221Y-119598856D01*
X100416166Y-119595437D01*
X100393557Y-119589773D01*
X100371613Y-119581921D01*
X100350543Y-119571956D01*
X100330552Y-119559974D01*
X100311832Y-119546090D01*
X100294562Y-119530438D01*
X100278910Y-119513168D01*
X100265026Y-119494448D01*
X100253044Y-119474457D01*
X100243079Y-119453387D01*
X100235227Y-119431443D01*
X100229563Y-119408834D01*
X100226144Y-119385779D01*
X100225000Y-119362500D01*
X100225000Y-118787500D01*
X100226144Y-118764221D01*
X100229563Y-118741166D01*
X100235227Y-118718557D01*
X100243079Y-118696613D01*
X100253044Y-118675543D01*
X100265026Y-118655552D01*
X100278910Y-118636832D01*
X100294562Y-118619562D01*
X100311832Y-118603910D01*
X100330552Y-118590026D01*
X100350543Y-118578044D01*
X100371613Y-118568079D01*
X100393557Y-118560227D01*
X100416166Y-118554563D01*
X100439221Y-118551144D01*
X100462500Y-118550000D01*
X100937500Y-118550000D01*
X100960779Y-118551144D01*
X100960779Y-118551144D01*
G37*
D12*
X100700000Y-119075000D03*
D11*
G36*
X100960779Y-116801144D02*
X100983834Y-116804563D01*
X101006443Y-116810227D01*
X101028387Y-116818079D01*
X101049457Y-116828044D01*
X101069448Y-116840026D01*
X101088168Y-116853910D01*
X101105438Y-116869562D01*
X101121090Y-116886832D01*
X101134974Y-116905552D01*
X101146956Y-116925543D01*
X101156921Y-116946613D01*
X101164773Y-116968557D01*
X101170437Y-116991166D01*
X101173856Y-117014221D01*
X101175000Y-117037500D01*
X101175000Y-117612500D01*
X101173856Y-117635779D01*
X101170437Y-117658834D01*
X101164773Y-117681443D01*
X101156921Y-117703387D01*
X101146956Y-117724457D01*
X101134974Y-117744448D01*
X101121090Y-117763168D01*
X101105438Y-117780438D01*
X101088168Y-117796090D01*
X101069448Y-117809974D01*
X101049457Y-117821956D01*
X101028387Y-117831921D01*
X101006443Y-117839773D01*
X100983834Y-117845437D01*
X100960779Y-117848856D01*
X100937500Y-117850000D01*
X100462500Y-117850000D01*
X100439221Y-117848856D01*
X100416166Y-117845437D01*
X100393557Y-117839773D01*
X100371613Y-117831921D01*
X100350543Y-117821956D01*
X100330552Y-117809974D01*
X100311832Y-117796090D01*
X100294562Y-117780438D01*
X100278910Y-117763168D01*
X100265026Y-117744448D01*
X100253044Y-117724457D01*
X100243079Y-117703387D01*
X100235227Y-117681443D01*
X100229563Y-117658834D01*
X100226144Y-117635779D01*
X100225000Y-117612500D01*
X100225000Y-117037500D01*
X100226144Y-117014221D01*
X100229563Y-116991166D01*
X100235227Y-116968557D01*
X100243079Y-116946613D01*
X100253044Y-116925543D01*
X100265026Y-116905552D01*
X100278910Y-116886832D01*
X100294562Y-116869562D01*
X100311832Y-116853910D01*
X100330552Y-116840026D01*
X100350543Y-116828044D01*
X100371613Y-116818079D01*
X100393557Y-116810227D01*
X100416166Y-116804563D01*
X100439221Y-116801144D01*
X100462500Y-116800000D01*
X100937500Y-116800000D01*
X100960779Y-116801144D01*
X100960779Y-116801144D01*
G37*
D12*
X100700000Y-117325000D03*
M02*
