G04 #@! TF.GenerationSoftware,KiCad,Pcbnew,5.0-dev-unknown-9241a39~61~ubuntu17.10.1*
G04 #@! TF.CreationDate,2018-07-25T16:03:07+02:00*
G04 #@! TF.ProjectId,tag-connect-hat,7461672D636F6E6E6563742D6861742E,rev?*
G04 #@! TF.SameCoordinates,Original*
G04 #@! TF.FileFunction,Legend,Bot*
G04 #@! TF.FilePolarity,Positive*
%FSLAX46Y46*%
G04 Gerber Fmt 4.6, Leading zero omitted, Abs format (unit mm)*
G04 Created by KiCad (PCBNEW 5.0-dev-unknown-9241a39~61~ubuntu17.10.1) date Wed Jul 25 16:03:07 2018*
%MOMM*%
%LPD*%
G01*
G04 APERTURE LIST*
%ADD10C,0.300000*%
%ADD11C,0.120000*%
%ADD12C,0.150000*%
G04 APERTURE END LIST*
D10*
X91147857Y-103067857D02*
X91647857Y-103067857D01*
X91647857Y-103853571D02*
X91647857Y-102353571D01*
X90933571Y-102353571D01*
X90147857Y-103853571D02*
X90290714Y-103782142D01*
X90362142Y-103710714D01*
X90433571Y-103567857D01*
X90433571Y-103139285D01*
X90362142Y-102996428D01*
X90290714Y-102925000D01*
X90147857Y-102853571D01*
X89933571Y-102853571D01*
X89790714Y-102925000D01*
X89719285Y-102996428D01*
X89647857Y-103139285D01*
X89647857Y-103567857D01*
X89719285Y-103710714D01*
X89790714Y-103782142D01*
X89933571Y-103853571D01*
X90147857Y-103853571D01*
X89005000Y-103853571D02*
X89005000Y-102853571D01*
X89005000Y-103139285D02*
X88933571Y-102996428D01*
X88862142Y-102925000D01*
X88719285Y-102853571D01*
X88576428Y-102853571D01*
X91862142Y-104903571D02*
X91005000Y-104903571D01*
X91433571Y-106403571D02*
X91433571Y-104903571D01*
X89647857Y-106260714D02*
X89719285Y-106332142D01*
X89933571Y-106403571D01*
X90076428Y-106403571D01*
X90290714Y-106332142D01*
X90433571Y-106189285D01*
X90505000Y-106046428D01*
X90576428Y-105760714D01*
X90576428Y-105546428D01*
X90505000Y-105260714D01*
X90433571Y-105117857D01*
X90290714Y-104975000D01*
X90076428Y-104903571D01*
X89933571Y-104903571D01*
X89719285Y-104975000D01*
X89647857Y-105046428D01*
X89076428Y-105046428D02*
X89005000Y-104975000D01*
X88862142Y-104903571D01*
X88505000Y-104903571D01*
X88362142Y-104975000D01*
X88290714Y-105046428D01*
X88219285Y-105189285D01*
X88219285Y-105332142D01*
X88290714Y-105546428D01*
X89147857Y-106403571D01*
X88219285Y-106403571D01*
X87290714Y-104903571D02*
X87147857Y-104903571D01*
X87005000Y-104975000D01*
X86933571Y-105046428D01*
X86862142Y-105189285D01*
X86790714Y-105475000D01*
X86790714Y-105832142D01*
X86862142Y-106117857D01*
X86933571Y-106260714D01*
X87005000Y-106332142D01*
X87147857Y-106403571D01*
X87290714Y-106403571D01*
X87433571Y-106332142D01*
X87505000Y-106260714D01*
X87576428Y-106117857D01*
X87647857Y-105832142D01*
X87647857Y-105475000D01*
X87576428Y-105189285D01*
X87505000Y-105046428D01*
X87433571Y-104975000D01*
X87290714Y-104903571D01*
X86290714Y-104903571D02*
X85362142Y-104903571D01*
X85862142Y-105475000D01*
X85647857Y-105475000D01*
X85505000Y-105546428D01*
X85433571Y-105617857D01*
X85362142Y-105760714D01*
X85362142Y-106117857D01*
X85433571Y-106260714D01*
X85505000Y-106332142D01*
X85647857Y-106403571D01*
X86076428Y-106403571D01*
X86219285Y-106332142D01*
X86290714Y-106260714D01*
X84433571Y-104903571D02*
X84290714Y-104903571D01*
X84147857Y-104975000D01*
X84076428Y-105046428D01*
X84005000Y-105189285D01*
X83933571Y-105475000D01*
X83933571Y-105832142D01*
X84005000Y-106117857D01*
X84076428Y-106260714D01*
X84147857Y-106332142D01*
X84290714Y-106403571D01*
X84433571Y-106403571D01*
X84576428Y-106332142D01*
X84647857Y-106260714D01*
X84719285Y-106117857D01*
X84790714Y-105832142D01*
X84790714Y-105475000D01*
X84719285Y-105189285D01*
X84647857Y-105046428D01*
X84576428Y-104975000D01*
X84433571Y-104903571D01*
X83290714Y-105832142D02*
X82147857Y-105832142D01*
X81433571Y-106403571D02*
X81433571Y-104903571D01*
X80933571Y-105975000D01*
X80433571Y-104903571D01*
X80433571Y-106403571D01*
X78862142Y-106260714D02*
X78933571Y-106332142D01*
X79147857Y-106403571D01*
X79290714Y-106403571D01*
X79505000Y-106332142D01*
X79647857Y-106189285D01*
X79719285Y-106046428D01*
X79790714Y-105760714D01*
X79790714Y-105546428D01*
X79719285Y-105260714D01*
X79647857Y-105117857D01*
X79505000Y-104975000D01*
X79290714Y-104903571D01*
X79147857Y-104903571D01*
X78933571Y-104975000D01*
X78862142Y-105046428D01*
X78219285Y-106403571D02*
X78219285Y-104903571D01*
X77647857Y-104903571D01*
X77505000Y-104975000D01*
X77433571Y-105046428D01*
X77362142Y-105189285D01*
X77362142Y-105403571D01*
X77433571Y-105546428D01*
X77505000Y-105617857D01*
X77647857Y-105689285D01*
X78219285Y-105689285D01*
X91647857Y-107953571D02*
X91647857Y-109453571D01*
X91647857Y-108025000D02*
X91505000Y-107953571D01*
X91219285Y-107953571D01*
X91076428Y-108025000D01*
X91005000Y-108096428D01*
X90933571Y-108239285D01*
X90933571Y-108667857D01*
X91005000Y-108810714D01*
X91076428Y-108882142D01*
X91219285Y-108953571D01*
X91505000Y-108953571D01*
X91647857Y-108882142D01*
X90290714Y-108953571D02*
X90290714Y-107953571D01*
X90290714Y-108239285D02*
X90219285Y-108096428D01*
X90147857Y-108025000D01*
X90005000Y-107953571D01*
X89862142Y-107953571D01*
X89147857Y-108953571D02*
X89290714Y-108882142D01*
X89362142Y-108810714D01*
X89433571Y-108667857D01*
X89433571Y-108239285D01*
X89362142Y-108096428D01*
X89290714Y-108025000D01*
X89147857Y-107953571D01*
X88933571Y-107953571D01*
X88790714Y-108025000D01*
X88719285Y-108096428D01*
X88647857Y-108239285D01*
X88647857Y-108667857D01*
X88719285Y-108810714D01*
X88790714Y-108882142D01*
X88933571Y-108953571D01*
X89147857Y-108953571D01*
X87362142Y-107953571D02*
X87362142Y-109167857D01*
X87433571Y-109310714D01*
X87505000Y-109382142D01*
X87647857Y-109453571D01*
X87862142Y-109453571D01*
X88005000Y-109382142D01*
X87362142Y-108882142D02*
X87505000Y-108953571D01*
X87790714Y-108953571D01*
X87933571Y-108882142D01*
X88005000Y-108810714D01*
X88076428Y-108667857D01*
X88076428Y-108239285D01*
X88005000Y-108096428D01*
X87933571Y-108025000D01*
X87790714Y-107953571D01*
X87505000Y-107953571D01*
X87362142Y-108025000D01*
X86647857Y-108953571D02*
X86647857Y-107953571D01*
X86647857Y-108239285D02*
X86576428Y-108096428D01*
X86505000Y-108025000D01*
X86362142Y-107953571D01*
X86219285Y-107953571D01*
X85076428Y-108953571D02*
X85076428Y-108167857D01*
X85147857Y-108025000D01*
X85290714Y-107953571D01*
X85576428Y-107953571D01*
X85719285Y-108025000D01*
X85076428Y-108882142D02*
X85219285Y-108953571D01*
X85576428Y-108953571D01*
X85719285Y-108882142D01*
X85790714Y-108739285D01*
X85790714Y-108596428D01*
X85719285Y-108453571D01*
X85576428Y-108382142D01*
X85219285Y-108382142D01*
X85076428Y-108310714D01*
X84362142Y-108953571D02*
X84362142Y-107953571D01*
X84362142Y-108096428D02*
X84290714Y-108025000D01*
X84147857Y-107953571D01*
X83933571Y-107953571D01*
X83790714Y-108025000D01*
X83719285Y-108167857D01*
X83719285Y-108953571D01*
X83719285Y-108167857D02*
X83647857Y-108025000D01*
X83505000Y-107953571D01*
X83290714Y-107953571D01*
X83147857Y-108025000D01*
X83076428Y-108167857D01*
X83076428Y-108953571D01*
X82362142Y-108953571D02*
X82362142Y-107953571D01*
X82362142Y-108096428D02*
X82290714Y-108025000D01*
X82147857Y-107953571D01*
X81933571Y-107953571D01*
X81790714Y-108025000D01*
X81719285Y-108167857D01*
X81719285Y-108953571D01*
X81719285Y-108167857D02*
X81647857Y-108025000D01*
X81505000Y-107953571D01*
X81290714Y-107953571D01*
X81147857Y-108025000D01*
X81076428Y-108167857D01*
X81076428Y-108953571D01*
X80362142Y-108953571D02*
X80362142Y-107953571D01*
X80362142Y-107453571D02*
X80433571Y-107525000D01*
X80362142Y-107596428D01*
X80290714Y-107525000D01*
X80362142Y-107453571D01*
X80362142Y-107596428D01*
X79647857Y-107953571D02*
X79647857Y-108953571D01*
X79647857Y-108096428D02*
X79576428Y-108025000D01*
X79433571Y-107953571D01*
X79219285Y-107953571D01*
X79076428Y-108025000D01*
X79005000Y-108167857D01*
X79005000Y-108953571D01*
X77647857Y-107953571D02*
X77647857Y-109167857D01*
X77719285Y-109310714D01*
X77790714Y-109382142D01*
X77933571Y-109453571D01*
X78147857Y-109453571D01*
X78290714Y-109382142D01*
X77647857Y-108882142D02*
X77790714Y-108953571D01*
X78076428Y-108953571D01*
X78219285Y-108882142D01*
X78290714Y-108810714D01*
X78362142Y-108667857D01*
X78362142Y-108239285D01*
X78290714Y-108096428D01*
X78219285Y-108025000D01*
X78076428Y-107953571D01*
X77790714Y-107953571D01*
X77647857Y-108025000D01*
X91005000Y-111432142D02*
X91147857Y-111503571D01*
X91433571Y-111503571D01*
X91576428Y-111432142D01*
X91647857Y-111360714D01*
X91719285Y-111217857D01*
X91719285Y-110789285D01*
X91647857Y-110646428D01*
X91576428Y-110575000D01*
X91433571Y-110503571D01*
X91147857Y-110503571D01*
X91005000Y-110575000D01*
X89719285Y-111503571D02*
X89719285Y-110717857D01*
X89790714Y-110575000D01*
X89933571Y-110503571D01*
X90219285Y-110503571D01*
X90362142Y-110575000D01*
X89719285Y-111432142D02*
X89862142Y-111503571D01*
X90219285Y-111503571D01*
X90362142Y-111432142D01*
X90433571Y-111289285D01*
X90433571Y-111146428D01*
X90362142Y-111003571D01*
X90219285Y-110932142D01*
X89862142Y-110932142D01*
X89719285Y-110860714D01*
X89005000Y-111503571D02*
X89005000Y-110003571D01*
X89005000Y-110575000D02*
X88862142Y-110503571D01*
X88576428Y-110503571D01*
X88433571Y-110575000D01*
X88362142Y-110646428D01*
X88290714Y-110789285D01*
X88290714Y-111217857D01*
X88362142Y-111360714D01*
X88433571Y-111432142D01*
X88576428Y-111503571D01*
X88862142Y-111503571D01*
X89005000Y-111432142D01*
X87433571Y-111503571D02*
X87576428Y-111432142D01*
X87647857Y-111289285D01*
X87647857Y-110003571D01*
X86290714Y-111432142D02*
X86433571Y-111503571D01*
X86719285Y-111503571D01*
X86862142Y-111432142D01*
X86933571Y-111289285D01*
X86933571Y-110717857D01*
X86862142Y-110575000D01*
X86719285Y-110503571D01*
X86433571Y-110503571D01*
X86290714Y-110575000D01*
X86219285Y-110717857D01*
X86219285Y-110860714D01*
X86933571Y-111003571D01*
X85647857Y-111432142D02*
X85505000Y-111503571D01*
X85219285Y-111503571D01*
X85076428Y-111432142D01*
X85005000Y-111289285D01*
X85005000Y-111217857D01*
X85076428Y-111075000D01*
X85219285Y-111003571D01*
X85433571Y-111003571D01*
X85576428Y-110932142D01*
X85647857Y-110789285D01*
X85647857Y-110717857D01*
X85576428Y-110575000D01*
X85433571Y-110503571D01*
X85219285Y-110503571D01*
X85076428Y-110575000D01*
D11*
X84210000Y-120328733D02*
X84210000Y-120671267D01*
X83190000Y-120328733D02*
X83190000Y-120671267D01*
X87790000Y-120328733D02*
X87790000Y-120671267D01*
X88810000Y-120328733D02*
X88810000Y-120671267D01*
X128870000Y-99670000D02*
X126270000Y-99670000D01*
X128870000Y-99670000D02*
X128870000Y-150590000D01*
X128870000Y-150590000D02*
X123670000Y-150590000D01*
X123670000Y-102270000D02*
X123670000Y-150590000D01*
X126270000Y-102270000D02*
X123670000Y-102270000D01*
X126270000Y-99670000D02*
X126270000Y-102270000D01*
X123670000Y-99670000D02*
X123670000Y-101000000D01*
X125000000Y-99670000D02*
X123670000Y-99670000D01*
X105200000Y-131100000D02*
X105200000Y-129700000D01*
X104500000Y-129000000D02*
X103900000Y-129000000D01*
X103200000Y-129700000D02*
X103200000Y-131100000D01*
X103900000Y-131800000D02*
X104500000Y-131800000D01*
X104500000Y-131800000D02*
G75*
G03X105200000Y-131100000I0J700000D01*
G01*
X103200000Y-131100000D02*
G75*
G03X103900000Y-131800000I700000J0D01*
G01*
X103900000Y-129000000D02*
G75*
G03X103200000Y-129700000I0J-700000D01*
G01*
X105200000Y-129700000D02*
G75*
G03X104500000Y-129000000I-700000J0D01*
G01*
X107800000Y-129700000D02*
G75*
G03X107100000Y-129000000I-700000J0D01*
G01*
X106500000Y-129000000D02*
G75*
G03X105800000Y-129700000I0J-700000D01*
G01*
X105800000Y-131100000D02*
G75*
G03X106500000Y-131800000I700000J0D01*
G01*
X107100000Y-131800000D02*
G75*
G03X107800000Y-131100000I0J700000D01*
G01*
X106500000Y-131800000D02*
X107100000Y-131800000D01*
X105800000Y-129700000D02*
X105800000Y-131100000D01*
X107100000Y-129000000D02*
X106500000Y-129000000D01*
X107800000Y-131100000D02*
X107800000Y-129700000D01*
X110400000Y-129700000D02*
G75*
G03X109700000Y-129000000I-700000J0D01*
G01*
X109100000Y-129000000D02*
G75*
G03X108400000Y-129700000I0J-700000D01*
G01*
X108400000Y-131100000D02*
G75*
G03X109100000Y-131800000I700000J0D01*
G01*
X109700000Y-131800000D02*
G75*
G03X110400000Y-131100000I0J700000D01*
G01*
X109100000Y-131800000D02*
X109700000Y-131800000D01*
X108400000Y-129700000D02*
X108400000Y-131100000D01*
X109700000Y-129000000D02*
X109100000Y-129000000D01*
X110400000Y-131100000D02*
X110400000Y-129700000D01*
X113000000Y-131100000D02*
X113000000Y-129700000D01*
X112300000Y-129000000D02*
X111700000Y-129000000D01*
X111000000Y-129700000D02*
X111000000Y-131100000D01*
X111700000Y-131800000D02*
X112300000Y-131800000D01*
X112300000Y-131800000D02*
G75*
G03X113000000Y-131100000I0J700000D01*
G01*
X111000000Y-131100000D02*
G75*
G03X111700000Y-131800000I700000J0D01*
G01*
X111700000Y-129000000D02*
G75*
G03X111000000Y-129700000I0J-700000D01*
G01*
X113000000Y-129700000D02*
G75*
G03X112300000Y-129000000I-700000J0D01*
G01*
X115600000Y-129700000D02*
G75*
G03X114900000Y-129000000I-700000J0D01*
G01*
X114300000Y-129000000D02*
G75*
G03X113600000Y-129700000I0J-700000D01*
G01*
X113600000Y-131100000D02*
G75*
G03X114300000Y-131800000I700000J0D01*
G01*
X114900000Y-131800000D02*
G75*
G03X115600000Y-131100000I0J700000D01*
G01*
X114300000Y-131800000D02*
X114900000Y-131800000D01*
X113600000Y-129700000D02*
X113600000Y-131100000D01*
X114900000Y-129000000D02*
X114300000Y-129000000D01*
X115600000Y-131100000D02*
X115600000Y-129700000D01*
X118200000Y-131100000D02*
X118200000Y-129700000D01*
X117500000Y-129000000D02*
X116900000Y-129000000D01*
X116200000Y-129700000D02*
X116200000Y-131100000D01*
X116900000Y-131800000D02*
X117500000Y-131800000D01*
X117500000Y-131800000D02*
G75*
G03X118200000Y-131100000I0J700000D01*
G01*
X116200000Y-131100000D02*
G75*
G03X116900000Y-131800000I700000J0D01*
G01*
X116900000Y-129000000D02*
G75*
G03X116200000Y-129700000I0J-700000D01*
G01*
X118200000Y-129700000D02*
G75*
G03X117500000Y-129000000I-700000J0D01*
G01*
D12*
X85652380Y-120333333D02*
X85176190Y-120000000D01*
X85652380Y-119761904D02*
X84652380Y-119761904D01*
X84652380Y-120142857D01*
X84700000Y-120238095D01*
X84747619Y-120285714D01*
X84842857Y-120333333D01*
X84985714Y-120333333D01*
X85080952Y-120285714D01*
X85128571Y-120238095D01*
X85176190Y-120142857D01*
X85176190Y-119761904D01*
X85652380Y-121285714D02*
X85652380Y-120714285D01*
X85652380Y-121000000D02*
X84652380Y-121000000D01*
X84795238Y-120904761D01*
X84890476Y-120809523D01*
X84938095Y-120714285D01*
X87352380Y-120333333D02*
X86876190Y-120000000D01*
X87352380Y-119761904D02*
X86352380Y-119761904D01*
X86352380Y-120142857D01*
X86400000Y-120238095D01*
X86447619Y-120285714D01*
X86542857Y-120333333D01*
X86685714Y-120333333D01*
X86780952Y-120285714D01*
X86828571Y-120238095D01*
X86876190Y-120142857D01*
X86876190Y-119761904D01*
X86447619Y-120714285D02*
X86400000Y-120761904D01*
X86352380Y-120857142D01*
X86352380Y-121095238D01*
X86400000Y-121190476D01*
X86447619Y-121238095D01*
X86542857Y-121285714D01*
X86638095Y-121285714D01*
X86780952Y-121238095D01*
X87352380Y-120666666D01*
X87352380Y-121285714D01*
X129452380Y-100666666D02*
X130166666Y-100666666D01*
X130309523Y-100619047D01*
X130404761Y-100523809D01*
X130452380Y-100380952D01*
X130452380Y-100285714D01*
X129547619Y-101095238D02*
X129500000Y-101142857D01*
X129452380Y-101238095D01*
X129452380Y-101476190D01*
X129500000Y-101571428D01*
X129547619Y-101619047D01*
X129642857Y-101666666D01*
X129738095Y-101666666D01*
X129880952Y-101619047D01*
X130452380Y-101047619D01*
X130452380Y-101666666D01*
X105033333Y-127652380D02*
X105033333Y-128366666D01*
X105080952Y-128509523D01*
X105176190Y-128604761D01*
X105319047Y-128652380D01*
X105414285Y-128652380D01*
X104557142Y-128652380D02*
X104557142Y-127652380D01*
X104176190Y-127652380D01*
X104080952Y-127700000D01*
X104033333Y-127747619D01*
X103985714Y-127842857D01*
X103985714Y-127985714D01*
X104033333Y-128080952D01*
X104080952Y-128128571D01*
X104176190Y-128176190D01*
X104557142Y-128176190D01*
X103033333Y-128652380D02*
X103604761Y-128652380D01*
X103319047Y-128652380D02*
X103319047Y-127652380D01*
X103414285Y-127795238D01*
X103509523Y-127890476D01*
X103604761Y-127938095D01*
X107633333Y-127652380D02*
X107633333Y-128366666D01*
X107680952Y-128509523D01*
X107776190Y-128604761D01*
X107919047Y-128652380D01*
X108014285Y-128652380D01*
X107157142Y-128652380D02*
X107157142Y-127652380D01*
X106776190Y-127652380D01*
X106680952Y-127700000D01*
X106633333Y-127747619D01*
X106585714Y-127842857D01*
X106585714Y-127985714D01*
X106633333Y-128080952D01*
X106680952Y-128128571D01*
X106776190Y-128176190D01*
X107157142Y-128176190D01*
X106204761Y-127747619D02*
X106157142Y-127700000D01*
X106061904Y-127652380D01*
X105823809Y-127652380D01*
X105728571Y-127700000D01*
X105680952Y-127747619D01*
X105633333Y-127842857D01*
X105633333Y-127938095D01*
X105680952Y-128080952D01*
X106252380Y-128652380D01*
X105633333Y-128652380D01*
X110233333Y-127652380D02*
X110233333Y-128366666D01*
X110280952Y-128509523D01*
X110376190Y-128604761D01*
X110519047Y-128652380D01*
X110614285Y-128652380D01*
X109757142Y-128652380D02*
X109757142Y-127652380D01*
X109376190Y-127652380D01*
X109280952Y-127700000D01*
X109233333Y-127747619D01*
X109185714Y-127842857D01*
X109185714Y-127985714D01*
X109233333Y-128080952D01*
X109280952Y-128128571D01*
X109376190Y-128176190D01*
X109757142Y-128176190D01*
X108852380Y-127652380D02*
X108233333Y-127652380D01*
X108566666Y-128033333D01*
X108423809Y-128033333D01*
X108328571Y-128080952D01*
X108280952Y-128128571D01*
X108233333Y-128223809D01*
X108233333Y-128461904D01*
X108280952Y-128557142D01*
X108328571Y-128604761D01*
X108423809Y-128652380D01*
X108709523Y-128652380D01*
X108804761Y-128604761D01*
X108852380Y-128557142D01*
X112833333Y-127652380D02*
X112833333Y-128366666D01*
X112880952Y-128509523D01*
X112976190Y-128604761D01*
X113119047Y-128652380D01*
X113214285Y-128652380D01*
X112357142Y-128652380D02*
X112357142Y-127652380D01*
X111976190Y-127652380D01*
X111880952Y-127700000D01*
X111833333Y-127747619D01*
X111785714Y-127842857D01*
X111785714Y-127985714D01*
X111833333Y-128080952D01*
X111880952Y-128128571D01*
X111976190Y-128176190D01*
X112357142Y-128176190D01*
X110928571Y-127985714D02*
X110928571Y-128652380D01*
X111166666Y-127604761D02*
X111404761Y-128319047D01*
X110785714Y-128319047D01*
X115433333Y-127652380D02*
X115433333Y-128366666D01*
X115480952Y-128509523D01*
X115576190Y-128604761D01*
X115719047Y-128652380D01*
X115814285Y-128652380D01*
X114957142Y-128652380D02*
X114957142Y-127652380D01*
X114576190Y-127652380D01*
X114480952Y-127700000D01*
X114433333Y-127747619D01*
X114385714Y-127842857D01*
X114385714Y-127985714D01*
X114433333Y-128080952D01*
X114480952Y-128128571D01*
X114576190Y-128176190D01*
X114957142Y-128176190D01*
X113480952Y-127652380D02*
X113957142Y-127652380D01*
X114004761Y-128128571D01*
X113957142Y-128080952D01*
X113861904Y-128033333D01*
X113623809Y-128033333D01*
X113528571Y-128080952D01*
X113480952Y-128128571D01*
X113433333Y-128223809D01*
X113433333Y-128461904D01*
X113480952Y-128557142D01*
X113528571Y-128604761D01*
X113623809Y-128652380D01*
X113861904Y-128652380D01*
X113957142Y-128604761D01*
X114004761Y-128557142D01*
X117983333Y-127652380D02*
X117983333Y-128366666D01*
X118030952Y-128509523D01*
X118126190Y-128604761D01*
X118269047Y-128652380D01*
X118364285Y-128652380D01*
X117507142Y-128652380D02*
X117507142Y-127652380D01*
X117126190Y-127652380D01*
X117030952Y-127700000D01*
X116983333Y-127747619D01*
X116935714Y-127842857D01*
X116935714Y-127985714D01*
X116983333Y-128080952D01*
X117030952Y-128128571D01*
X117126190Y-128176190D01*
X117507142Y-128176190D01*
X116078571Y-127652380D02*
X116269047Y-127652380D01*
X116364285Y-127700000D01*
X116411904Y-127747619D01*
X116507142Y-127890476D01*
X116554761Y-128080952D01*
X116554761Y-128461904D01*
X116507142Y-128557142D01*
X116459523Y-128604761D01*
X116364285Y-128652380D01*
X116173809Y-128652380D01*
X116078571Y-128604761D01*
X116030952Y-128557142D01*
X115983333Y-128461904D01*
X115983333Y-128223809D01*
X116030952Y-128128571D01*
X116078571Y-128080952D01*
X116173809Y-128033333D01*
X116364285Y-128033333D01*
X116459523Y-128080952D01*
X116507142Y-128128571D01*
X116554761Y-128223809D01*
M02*
