G04 #@! TF.GenerationSoftware,KiCad,Pcbnew,5.0-dev-unknown-9241a39~61~ubuntu17.10.1*
G04 #@! TF.CreationDate,2018-07-25T16:03:07+02:00*
G04 #@! TF.ProjectId,tag-connect-hat,7461672D636F6E6E6563742D6861742E,rev?*
G04 #@! TF.SameCoordinates,Original*
G04 #@! TF.FileFunction,Soldermask,Top*
G04 #@! TF.FilePolarity,Negative*
%FSLAX46Y46*%
G04 Gerber Fmt 4.6, Leading zero omitted, Abs format (unit mm)*
G04 Created by KiCad (PCBNEW 5.0-dev-unknown-9241a39~61~ubuntu17.10.1) date Wed Jul 25 16:03:07 2018*
%MOMM*%
%LPD*%
G01*
G04 APERTURE LIST*
%ADD10C,0.010000*%
%ADD11C,3.600000*%
%ADD12R,0.650000X1.150000*%
%ADD13R,2.100000X2.100000*%
%ADD14O,2.100000X2.100000*%
%ADD15O,1.920000X2.400000*%
%ADD16C,0.100000*%
%ADD17C,1.350000*%
%ADD18R,2.200000X2.200000*%
%ADD19C,2.200000*%
%ADD20C,2.600000*%
%ADD21C,4.400000*%
%ADD22C,2.100000*%
%ADD23C,3.650000*%
%ADD24C,1.920000*%
%ADD25R,1.920000X1.920000*%
G04 APERTURE END LIST*
D10*
G36*
X81306148Y-105935709D02*
X81457675Y-106085617D01*
X81495591Y-106186409D01*
X81490035Y-106424006D01*
X81369597Y-106583970D01*
X81180419Y-106641067D01*
X80968640Y-106570063D01*
X80899714Y-106512285D01*
X80787686Y-106368433D01*
X80794031Y-106235259D01*
X80920089Y-106051290D01*
X81109649Y-105920204D01*
X81306148Y-105935709D01*
X81306148Y-105935709D01*
G37*
X81306148Y-105935709D02*
X81457675Y-106085617D01*
X81495591Y-106186409D01*
X81490035Y-106424006D01*
X81369597Y-106583970D01*
X81180419Y-106641067D01*
X80968640Y-106570063D01*
X80899714Y-106512285D01*
X80787686Y-106368433D01*
X80794031Y-106235259D01*
X80920089Y-106051290D01*
X81109649Y-105920204D01*
X81306148Y-105935709D01*
G36*
X80181477Y-105946842D02*
X80332006Y-106090593D01*
X80422698Y-106244418D01*
X80428000Y-106279044D01*
X80364510Y-106406230D01*
X80221001Y-106547052D01*
X80067909Y-106637457D01*
X80025214Y-106645333D01*
X79895490Y-106590710D01*
X79799047Y-106512285D01*
X79691094Y-106356386D01*
X79666000Y-106264333D01*
X79731721Y-106100494D01*
X79880867Y-105949034D01*
X80039925Y-105883333D01*
X80181477Y-105946842D01*
X80181477Y-105946842D01*
G37*
X80181477Y-105946842D02*
X80332006Y-106090593D01*
X80422698Y-106244418D01*
X80428000Y-106279044D01*
X80364510Y-106406230D01*
X80221001Y-106547052D01*
X80067909Y-106637457D01*
X80025214Y-106645333D01*
X79895490Y-106590710D01*
X79799047Y-106512285D01*
X79691094Y-106356386D01*
X79666000Y-106264333D01*
X79731721Y-106100494D01*
X79880867Y-105949034D01*
X80039925Y-105883333D01*
X80181477Y-105946842D01*
G36*
X87887919Y-103412640D02*
X88833817Y-103725473D01*
X89117897Y-103850277D01*
X89761726Y-104213902D01*
X90263271Y-104647037D01*
X90641455Y-105167376D01*
X90749105Y-105375333D01*
X90842579Y-105587867D01*
X90905184Y-105783714D01*
X90942999Y-106005008D01*
X90962106Y-106293888D01*
X90968583Y-106692488D01*
X90969000Y-106899333D01*
X90956755Y-107490491D01*
X90909333Y-107975422D01*
X90810705Y-108385255D01*
X90644844Y-108751121D01*
X90395719Y-109104150D01*
X90047301Y-109475471D01*
X89583563Y-109896215D01*
X89302718Y-110135456D01*
X89024360Y-110401906D01*
X88783992Y-110688996D01*
X88649370Y-110903020D01*
X88523194Y-111251007D01*
X88476915Y-111580932D01*
X88512718Y-111846732D01*
X88598333Y-111979333D01*
X88714614Y-112117107D01*
X88670273Y-112202538D01*
X88466241Y-112234024D01*
X88450167Y-112234160D01*
X88217125Y-112270896D01*
X87917622Y-112364176D01*
X87730500Y-112441932D01*
X87286000Y-112648876D01*
X87286000Y-112429447D01*
X87277846Y-112305307D01*
X87225923Y-112246079D01*
X87089037Y-112237194D01*
X86825998Y-112264083D01*
X86820333Y-112264749D01*
X86514506Y-112282497D01*
X86361604Y-112250446D01*
X86355241Y-112176196D01*
X86489036Y-112067347D01*
X86756602Y-111931499D01*
X87151557Y-111776252D01*
X87263331Y-111737379D01*
X87921000Y-111513666D01*
X87946269Y-110982089D01*
X87953571Y-110681290D01*
X87927955Y-110488641D01*
X87851626Y-110343637D01*
X87714247Y-110193221D01*
X87446932Y-110002804D01*
X87199540Y-109970999D01*
X86984188Y-110087266D01*
X86812992Y-110341062D01*
X86698071Y-110721848D01*
X86654605Y-111115035D01*
X86633200Y-111598333D01*
X86308198Y-111651171D01*
X85962159Y-111785425D01*
X85788352Y-111947504D01*
X85593508Y-112191000D01*
X85593087Y-111910127D01*
X85579886Y-111722971D01*
X85518368Y-111664741D01*
X85402167Y-111687025D01*
X85197207Y-111787971D01*
X85021167Y-111919156D01*
X84830667Y-112093517D01*
X84830667Y-111915921D01*
X84907019Y-111666871D01*
X85108837Y-111425469D01*
X85395265Y-111231145D01*
X85632423Y-111142147D01*
X85814137Y-111093428D01*
X85935376Y-111034764D01*
X86015647Y-110932372D01*
X86074460Y-110752469D01*
X86131324Y-110461271D01*
X86175594Y-110201541D01*
X86212082Y-109886404D01*
X86192707Y-109711178D01*
X86171301Y-109684660D01*
X86065110Y-109654500D01*
X85819487Y-109601391D01*
X85461940Y-109530762D01*
X85019976Y-109448042D01*
X84521102Y-109358660D01*
X84506883Y-109356167D01*
X83564163Y-109181097D01*
X82772947Y-109011267D01*
X82115737Y-108841284D01*
X81575039Y-108665755D01*
X81133355Y-108479289D01*
X80773190Y-108276494D01*
X80597333Y-108151269D01*
X80401039Y-107955169D01*
X80212215Y-107696924D01*
X80067981Y-107435106D01*
X80005460Y-107228285D01*
X80005100Y-107216833D01*
X79943216Y-107098638D01*
X79784533Y-107068666D01*
X79553633Y-106995691D01*
X79286937Y-106790870D01*
X79265963Y-106770230D01*
X79090051Y-106579764D01*
X79008506Y-106421632D01*
X78995587Y-106230024D01*
X79102813Y-106230024D01*
X79203708Y-106533192D01*
X79389163Y-106772767D01*
X79630426Y-106926685D01*
X79898748Y-106972883D01*
X80165377Y-106889295D01*
X80292341Y-106788689D01*
X80447001Y-106614080D01*
X80542492Y-106471189D01*
X80597585Y-106391335D01*
X80652174Y-106471189D01*
X80829948Y-106721103D01*
X81081726Y-106907797D01*
X81343005Y-106983919D01*
X81350763Y-106984000D01*
X81656393Y-106912585D01*
X81888308Y-106723742D01*
X82039752Y-106455575D01*
X82103974Y-106146186D01*
X82074220Y-105833679D01*
X81943737Y-105556155D01*
X81705771Y-105351719D01*
X81645131Y-105323141D01*
X81323880Y-105257522D01*
X81034827Y-105350749D01*
X80766296Y-105601843D01*
X80624116Y-105744384D01*
X80542985Y-105748853D01*
X80536833Y-105736299D01*
X80362030Y-105469682D01*
X80090309Y-105282756D01*
X79956577Y-105241087D01*
X79686300Y-105266958D01*
X79421085Y-105417878D01*
X79210862Y-105655613D01*
X79115228Y-105885328D01*
X79102813Y-106230024D01*
X78995587Y-106230024D01*
X78994912Y-106220027D01*
X79009552Y-106034425D01*
X79060090Y-105732176D01*
X79163069Y-105522132D01*
X79317791Y-105359195D01*
X79547827Y-105212143D01*
X79808488Y-105128325D01*
X80045057Y-105117069D01*
X80202815Y-105187708D01*
X80216323Y-105205982D01*
X80306317Y-105207174D01*
X80481535Y-105111292D01*
X80610841Y-105015482D01*
X80757584Y-104901958D01*
X80889168Y-104823600D01*
X81041881Y-104772300D01*
X81252015Y-104739947D01*
X81555860Y-104718432D01*
X81989706Y-104699645D01*
X82031565Y-104698000D01*
X83110087Y-104655666D01*
X83568210Y-104305289D01*
X84357482Y-103800826D01*
X85190098Y-103458836D01*
X86060049Y-103279814D01*
X86961326Y-103264251D01*
X87887919Y-103412640D01*
X87887919Y-103412640D01*
G37*
X87887919Y-103412640D02*
X88833817Y-103725473D01*
X89117897Y-103850277D01*
X89761726Y-104213902D01*
X90263271Y-104647037D01*
X90641455Y-105167376D01*
X90749105Y-105375333D01*
X90842579Y-105587867D01*
X90905184Y-105783714D01*
X90942999Y-106005008D01*
X90962106Y-106293888D01*
X90968583Y-106692488D01*
X90969000Y-106899333D01*
X90956755Y-107490491D01*
X90909333Y-107975422D01*
X90810705Y-108385255D01*
X90644844Y-108751121D01*
X90395719Y-109104150D01*
X90047301Y-109475471D01*
X89583563Y-109896215D01*
X89302718Y-110135456D01*
X89024360Y-110401906D01*
X88783992Y-110688996D01*
X88649370Y-110903020D01*
X88523194Y-111251007D01*
X88476915Y-111580932D01*
X88512718Y-111846732D01*
X88598333Y-111979333D01*
X88714614Y-112117107D01*
X88670273Y-112202538D01*
X88466241Y-112234024D01*
X88450167Y-112234160D01*
X88217125Y-112270896D01*
X87917622Y-112364176D01*
X87730500Y-112441932D01*
X87286000Y-112648876D01*
X87286000Y-112429447D01*
X87277846Y-112305307D01*
X87225923Y-112246079D01*
X87089037Y-112237194D01*
X86825998Y-112264083D01*
X86820333Y-112264749D01*
X86514506Y-112282497D01*
X86361604Y-112250446D01*
X86355241Y-112176196D01*
X86489036Y-112067347D01*
X86756602Y-111931499D01*
X87151557Y-111776252D01*
X87263331Y-111737379D01*
X87921000Y-111513666D01*
X87946269Y-110982089D01*
X87953571Y-110681290D01*
X87927955Y-110488641D01*
X87851626Y-110343637D01*
X87714247Y-110193221D01*
X87446932Y-110002804D01*
X87199540Y-109970999D01*
X86984188Y-110087266D01*
X86812992Y-110341062D01*
X86698071Y-110721848D01*
X86654605Y-111115035D01*
X86633200Y-111598333D01*
X86308198Y-111651171D01*
X85962159Y-111785425D01*
X85788352Y-111947504D01*
X85593508Y-112191000D01*
X85593087Y-111910127D01*
X85579886Y-111722971D01*
X85518368Y-111664741D01*
X85402167Y-111687025D01*
X85197207Y-111787971D01*
X85021167Y-111919156D01*
X84830667Y-112093517D01*
X84830667Y-111915921D01*
X84907019Y-111666871D01*
X85108837Y-111425469D01*
X85395265Y-111231145D01*
X85632423Y-111142147D01*
X85814137Y-111093428D01*
X85935376Y-111034764D01*
X86015647Y-110932372D01*
X86074460Y-110752469D01*
X86131324Y-110461271D01*
X86175594Y-110201541D01*
X86212082Y-109886404D01*
X86192707Y-109711178D01*
X86171301Y-109684660D01*
X86065110Y-109654500D01*
X85819487Y-109601391D01*
X85461940Y-109530762D01*
X85019976Y-109448042D01*
X84521102Y-109358660D01*
X84506883Y-109356167D01*
X83564163Y-109181097D01*
X82772947Y-109011267D01*
X82115737Y-108841284D01*
X81575039Y-108665755D01*
X81133355Y-108479289D01*
X80773190Y-108276494D01*
X80597333Y-108151269D01*
X80401039Y-107955169D01*
X80212215Y-107696924D01*
X80067981Y-107435106D01*
X80005460Y-107228285D01*
X80005100Y-107216833D01*
X79943216Y-107098638D01*
X79784533Y-107068666D01*
X79553633Y-106995691D01*
X79286937Y-106790870D01*
X79265963Y-106770230D01*
X79090051Y-106579764D01*
X79008506Y-106421632D01*
X78995587Y-106230024D01*
X79102813Y-106230024D01*
X79203708Y-106533192D01*
X79389163Y-106772767D01*
X79630426Y-106926685D01*
X79898748Y-106972883D01*
X80165377Y-106889295D01*
X80292341Y-106788689D01*
X80447001Y-106614080D01*
X80542492Y-106471189D01*
X80597585Y-106391335D01*
X80652174Y-106471189D01*
X80829948Y-106721103D01*
X81081726Y-106907797D01*
X81343005Y-106983919D01*
X81350763Y-106984000D01*
X81656393Y-106912585D01*
X81888308Y-106723742D01*
X82039752Y-106455575D01*
X82103974Y-106146186D01*
X82074220Y-105833679D01*
X81943737Y-105556155D01*
X81705771Y-105351719D01*
X81645131Y-105323141D01*
X81323880Y-105257522D01*
X81034827Y-105350749D01*
X80766296Y-105601843D01*
X80624116Y-105744384D01*
X80542985Y-105748853D01*
X80536833Y-105736299D01*
X80362030Y-105469682D01*
X80090309Y-105282756D01*
X79956577Y-105241087D01*
X79686300Y-105266958D01*
X79421085Y-105417878D01*
X79210862Y-105655613D01*
X79115228Y-105885328D01*
X79102813Y-106230024D01*
X78995587Y-106230024D01*
X78994912Y-106220027D01*
X79009552Y-106034425D01*
X79060090Y-105732176D01*
X79163069Y-105522132D01*
X79317791Y-105359195D01*
X79547827Y-105212143D01*
X79808488Y-105128325D01*
X80045057Y-105117069D01*
X80202815Y-105187708D01*
X80216323Y-105205982D01*
X80306317Y-105207174D01*
X80481535Y-105111292D01*
X80610841Y-105015482D01*
X80757584Y-104901958D01*
X80889168Y-104823600D01*
X81041881Y-104772300D01*
X81252015Y-104739947D01*
X81555860Y-104718432D01*
X81989706Y-104699645D01*
X82031565Y-104698000D01*
X83110087Y-104655666D01*
X83568210Y-104305289D01*
X84357482Y-103800826D01*
X85190098Y-103458836D01*
X86060049Y-103279814D01*
X86961326Y-103264251D01*
X87887919Y-103412640D01*
D11*
X78000000Y-149000000D03*
D12*
X115150000Y-116650000D03*
X115650000Y-116650000D03*
X116150000Y-116650000D03*
X116650000Y-116650000D03*
X116650000Y-119750000D03*
X116150000Y-119750000D03*
X115650000Y-119750000D03*
X115150000Y-119750000D03*
X108650000Y-116650000D03*
X109150000Y-116650000D03*
X109650000Y-116650000D03*
X110150000Y-116650000D03*
X110150000Y-119750000D03*
X109650000Y-119750000D03*
X109150000Y-119750000D03*
X108650000Y-119750000D03*
X102150000Y-119750000D03*
X102650000Y-119750000D03*
X103150000Y-119750000D03*
X103650000Y-119750000D03*
X103650000Y-116650000D03*
X103150000Y-116650000D03*
X102650000Y-116650000D03*
X102150000Y-116650000D03*
D13*
X105200000Y-100900000D03*
D14*
X107740000Y-100900000D03*
X110280000Y-100900000D03*
X112820000Y-100900000D03*
D15*
X115360000Y-100900000D03*
D11*
X98700000Y-101250000D03*
X119400000Y-124450000D03*
X98700000Y-124450000D03*
X119400000Y-101250000D03*
D16*
G36*
X118470581Y-118351625D02*
X118503343Y-118356485D01*
X118535471Y-118364533D01*
X118566656Y-118375691D01*
X118596596Y-118389852D01*
X118625005Y-118406879D01*
X118651608Y-118426609D01*
X118676149Y-118448851D01*
X118698391Y-118473392D01*
X118718121Y-118499995D01*
X118735148Y-118528404D01*
X118749309Y-118558344D01*
X118760467Y-118589529D01*
X118768515Y-118621657D01*
X118773375Y-118654419D01*
X118775000Y-118687500D01*
X118775000Y-119462500D01*
X118773375Y-119495581D01*
X118768515Y-119528343D01*
X118760467Y-119560471D01*
X118749309Y-119591656D01*
X118735148Y-119621596D01*
X118718121Y-119650005D01*
X118698391Y-119676608D01*
X118676149Y-119701149D01*
X118651608Y-119723391D01*
X118625005Y-119743121D01*
X118596596Y-119760148D01*
X118566656Y-119774309D01*
X118535471Y-119785467D01*
X118503343Y-119793515D01*
X118470581Y-119798375D01*
X118437500Y-119800000D01*
X117762500Y-119800000D01*
X117729419Y-119798375D01*
X117696657Y-119793515D01*
X117664529Y-119785467D01*
X117633344Y-119774309D01*
X117603404Y-119760148D01*
X117574995Y-119743121D01*
X117548392Y-119723391D01*
X117523851Y-119701149D01*
X117501609Y-119676608D01*
X117481879Y-119650005D01*
X117464852Y-119621596D01*
X117450691Y-119591656D01*
X117439533Y-119560471D01*
X117431485Y-119528343D01*
X117426625Y-119495581D01*
X117425000Y-119462500D01*
X117425000Y-118687500D01*
X117426625Y-118654419D01*
X117431485Y-118621657D01*
X117439533Y-118589529D01*
X117450691Y-118558344D01*
X117464852Y-118528404D01*
X117481879Y-118499995D01*
X117501609Y-118473392D01*
X117523851Y-118448851D01*
X117548392Y-118426609D01*
X117574995Y-118406879D01*
X117603404Y-118389852D01*
X117633344Y-118375691D01*
X117664529Y-118364533D01*
X117696657Y-118356485D01*
X117729419Y-118351625D01*
X117762500Y-118350000D01*
X118437500Y-118350000D01*
X118470581Y-118351625D01*
X118470581Y-118351625D01*
G37*
D17*
X118100000Y-119075000D03*
D16*
G36*
X118470581Y-116601625D02*
X118503343Y-116606485D01*
X118535471Y-116614533D01*
X118566656Y-116625691D01*
X118596596Y-116639852D01*
X118625005Y-116656879D01*
X118651608Y-116676609D01*
X118676149Y-116698851D01*
X118698391Y-116723392D01*
X118718121Y-116749995D01*
X118735148Y-116778404D01*
X118749309Y-116808344D01*
X118760467Y-116839529D01*
X118768515Y-116871657D01*
X118773375Y-116904419D01*
X118775000Y-116937500D01*
X118775000Y-117712500D01*
X118773375Y-117745581D01*
X118768515Y-117778343D01*
X118760467Y-117810471D01*
X118749309Y-117841656D01*
X118735148Y-117871596D01*
X118718121Y-117900005D01*
X118698391Y-117926608D01*
X118676149Y-117951149D01*
X118651608Y-117973391D01*
X118625005Y-117993121D01*
X118596596Y-118010148D01*
X118566656Y-118024309D01*
X118535471Y-118035467D01*
X118503343Y-118043515D01*
X118470581Y-118048375D01*
X118437500Y-118050000D01*
X117762500Y-118050000D01*
X117729419Y-118048375D01*
X117696657Y-118043515D01*
X117664529Y-118035467D01*
X117633344Y-118024309D01*
X117603404Y-118010148D01*
X117574995Y-117993121D01*
X117548392Y-117973391D01*
X117523851Y-117951149D01*
X117501609Y-117926608D01*
X117481879Y-117900005D01*
X117464852Y-117871596D01*
X117450691Y-117841656D01*
X117439533Y-117810471D01*
X117431485Y-117778343D01*
X117426625Y-117745581D01*
X117425000Y-117712500D01*
X117425000Y-116937500D01*
X117426625Y-116904419D01*
X117431485Y-116871657D01*
X117439533Y-116839529D01*
X117450691Y-116808344D01*
X117464852Y-116778404D01*
X117481879Y-116749995D01*
X117501609Y-116723392D01*
X117523851Y-116698851D01*
X117548392Y-116676609D01*
X117574995Y-116656879D01*
X117603404Y-116639852D01*
X117633344Y-116625691D01*
X117664529Y-116614533D01*
X117696657Y-116606485D01*
X117729419Y-116601625D01*
X117762500Y-116600000D01*
X118437500Y-116600000D01*
X118470581Y-116601625D01*
X118470581Y-116601625D01*
G37*
D17*
X118100000Y-117325000D03*
D16*
G36*
X111970581Y-116601625D02*
X112003343Y-116606485D01*
X112035471Y-116614533D01*
X112066656Y-116625691D01*
X112096596Y-116639852D01*
X112125005Y-116656879D01*
X112151608Y-116676609D01*
X112176149Y-116698851D01*
X112198391Y-116723392D01*
X112218121Y-116749995D01*
X112235148Y-116778404D01*
X112249309Y-116808344D01*
X112260467Y-116839529D01*
X112268515Y-116871657D01*
X112273375Y-116904419D01*
X112275000Y-116937500D01*
X112275000Y-117712500D01*
X112273375Y-117745581D01*
X112268515Y-117778343D01*
X112260467Y-117810471D01*
X112249309Y-117841656D01*
X112235148Y-117871596D01*
X112218121Y-117900005D01*
X112198391Y-117926608D01*
X112176149Y-117951149D01*
X112151608Y-117973391D01*
X112125005Y-117993121D01*
X112096596Y-118010148D01*
X112066656Y-118024309D01*
X112035471Y-118035467D01*
X112003343Y-118043515D01*
X111970581Y-118048375D01*
X111937500Y-118050000D01*
X111262500Y-118050000D01*
X111229419Y-118048375D01*
X111196657Y-118043515D01*
X111164529Y-118035467D01*
X111133344Y-118024309D01*
X111103404Y-118010148D01*
X111074995Y-117993121D01*
X111048392Y-117973391D01*
X111023851Y-117951149D01*
X111001609Y-117926608D01*
X110981879Y-117900005D01*
X110964852Y-117871596D01*
X110950691Y-117841656D01*
X110939533Y-117810471D01*
X110931485Y-117778343D01*
X110926625Y-117745581D01*
X110925000Y-117712500D01*
X110925000Y-116937500D01*
X110926625Y-116904419D01*
X110931485Y-116871657D01*
X110939533Y-116839529D01*
X110950691Y-116808344D01*
X110964852Y-116778404D01*
X110981879Y-116749995D01*
X111001609Y-116723392D01*
X111023851Y-116698851D01*
X111048392Y-116676609D01*
X111074995Y-116656879D01*
X111103404Y-116639852D01*
X111133344Y-116625691D01*
X111164529Y-116614533D01*
X111196657Y-116606485D01*
X111229419Y-116601625D01*
X111262500Y-116600000D01*
X111937500Y-116600000D01*
X111970581Y-116601625D01*
X111970581Y-116601625D01*
G37*
D17*
X111600000Y-117325000D03*
D16*
G36*
X111970581Y-118351625D02*
X112003343Y-118356485D01*
X112035471Y-118364533D01*
X112066656Y-118375691D01*
X112096596Y-118389852D01*
X112125005Y-118406879D01*
X112151608Y-118426609D01*
X112176149Y-118448851D01*
X112198391Y-118473392D01*
X112218121Y-118499995D01*
X112235148Y-118528404D01*
X112249309Y-118558344D01*
X112260467Y-118589529D01*
X112268515Y-118621657D01*
X112273375Y-118654419D01*
X112275000Y-118687500D01*
X112275000Y-119462500D01*
X112273375Y-119495581D01*
X112268515Y-119528343D01*
X112260467Y-119560471D01*
X112249309Y-119591656D01*
X112235148Y-119621596D01*
X112218121Y-119650005D01*
X112198391Y-119676608D01*
X112176149Y-119701149D01*
X112151608Y-119723391D01*
X112125005Y-119743121D01*
X112096596Y-119760148D01*
X112066656Y-119774309D01*
X112035471Y-119785467D01*
X112003343Y-119793515D01*
X111970581Y-119798375D01*
X111937500Y-119800000D01*
X111262500Y-119800000D01*
X111229419Y-119798375D01*
X111196657Y-119793515D01*
X111164529Y-119785467D01*
X111133344Y-119774309D01*
X111103404Y-119760148D01*
X111074995Y-119743121D01*
X111048392Y-119723391D01*
X111023851Y-119701149D01*
X111001609Y-119676608D01*
X110981879Y-119650005D01*
X110964852Y-119621596D01*
X110950691Y-119591656D01*
X110939533Y-119560471D01*
X110931485Y-119528343D01*
X110926625Y-119495581D01*
X110925000Y-119462500D01*
X110925000Y-118687500D01*
X110926625Y-118654419D01*
X110931485Y-118621657D01*
X110939533Y-118589529D01*
X110950691Y-118558344D01*
X110964852Y-118528404D01*
X110981879Y-118499995D01*
X111001609Y-118473392D01*
X111023851Y-118448851D01*
X111048392Y-118426609D01*
X111074995Y-118406879D01*
X111103404Y-118389852D01*
X111133344Y-118375691D01*
X111164529Y-118364533D01*
X111196657Y-118356485D01*
X111229419Y-118351625D01*
X111262500Y-118350000D01*
X111937500Y-118350000D01*
X111970581Y-118351625D01*
X111970581Y-118351625D01*
G37*
D17*
X111600000Y-119075000D03*
D16*
G36*
X114070581Y-116601625D02*
X114103343Y-116606485D01*
X114135471Y-116614533D01*
X114166656Y-116625691D01*
X114196596Y-116639852D01*
X114225005Y-116656879D01*
X114251608Y-116676609D01*
X114276149Y-116698851D01*
X114298391Y-116723392D01*
X114318121Y-116749995D01*
X114335148Y-116778404D01*
X114349309Y-116808344D01*
X114360467Y-116839529D01*
X114368515Y-116871657D01*
X114373375Y-116904419D01*
X114375000Y-116937500D01*
X114375000Y-117712500D01*
X114373375Y-117745581D01*
X114368515Y-117778343D01*
X114360467Y-117810471D01*
X114349309Y-117841656D01*
X114335148Y-117871596D01*
X114318121Y-117900005D01*
X114298391Y-117926608D01*
X114276149Y-117951149D01*
X114251608Y-117973391D01*
X114225005Y-117993121D01*
X114196596Y-118010148D01*
X114166656Y-118024309D01*
X114135471Y-118035467D01*
X114103343Y-118043515D01*
X114070581Y-118048375D01*
X114037500Y-118050000D01*
X113362500Y-118050000D01*
X113329419Y-118048375D01*
X113296657Y-118043515D01*
X113264529Y-118035467D01*
X113233344Y-118024309D01*
X113203404Y-118010148D01*
X113174995Y-117993121D01*
X113148392Y-117973391D01*
X113123851Y-117951149D01*
X113101609Y-117926608D01*
X113081879Y-117900005D01*
X113064852Y-117871596D01*
X113050691Y-117841656D01*
X113039533Y-117810471D01*
X113031485Y-117778343D01*
X113026625Y-117745581D01*
X113025000Y-117712500D01*
X113025000Y-116937500D01*
X113026625Y-116904419D01*
X113031485Y-116871657D01*
X113039533Y-116839529D01*
X113050691Y-116808344D01*
X113064852Y-116778404D01*
X113081879Y-116749995D01*
X113101609Y-116723392D01*
X113123851Y-116698851D01*
X113148392Y-116676609D01*
X113174995Y-116656879D01*
X113203404Y-116639852D01*
X113233344Y-116625691D01*
X113264529Y-116614533D01*
X113296657Y-116606485D01*
X113329419Y-116601625D01*
X113362500Y-116600000D01*
X114037500Y-116600000D01*
X114070581Y-116601625D01*
X114070581Y-116601625D01*
G37*
D17*
X113700000Y-117325000D03*
D16*
G36*
X114070581Y-118351625D02*
X114103343Y-118356485D01*
X114135471Y-118364533D01*
X114166656Y-118375691D01*
X114196596Y-118389852D01*
X114225005Y-118406879D01*
X114251608Y-118426609D01*
X114276149Y-118448851D01*
X114298391Y-118473392D01*
X114318121Y-118499995D01*
X114335148Y-118528404D01*
X114349309Y-118558344D01*
X114360467Y-118589529D01*
X114368515Y-118621657D01*
X114373375Y-118654419D01*
X114375000Y-118687500D01*
X114375000Y-119462500D01*
X114373375Y-119495581D01*
X114368515Y-119528343D01*
X114360467Y-119560471D01*
X114349309Y-119591656D01*
X114335148Y-119621596D01*
X114318121Y-119650005D01*
X114298391Y-119676608D01*
X114276149Y-119701149D01*
X114251608Y-119723391D01*
X114225005Y-119743121D01*
X114196596Y-119760148D01*
X114166656Y-119774309D01*
X114135471Y-119785467D01*
X114103343Y-119793515D01*
X114070581Y-119798375D01*
X114037500Y-119800000D01*
X113362500Y-119800000D01*
X113329419Y-119798375D01*
X113296657Y-119793515D01*
X113264529Y-119785467D01*
X113233344Y-119774309D01*
X113203404Y-119760148D01*
X113174995Y-119743121D01*
X113148392Y-119723391D01*
X113123851Y-119701149D01*
X113101609Y-119676608D01*
X113081879Y-119650005D01*
X113064852Y-119621596D01*
X113050691Y-119591656D01*
X113039533Y-119560471D01*
X113031485Y-119528343D01*
X113026625Y-119495581D01*
X113025000Y-119462500D01*
X113025000Y-118687500D01*
X113026625Y-118654419D01*
X113031485Y-118621657D01*
X113039533Y-118589529D01*
X113050691Y-118558344D01*
X113064852Y-118528404D01*
X113081879Y-118499995D01*
X113101609Y-118473392D01*
X113123851Y-118448851D01*
X113148392Y-118426609D01*
X113174995Y-118406879D01*
X113203404Y-118389852D01*
X113233344Y-118375691D01*
X113264529Y-118364533D01*
X113296657Y-118356485D01*
X113329419Y-118351625D01*
X113362500Y-118350000D01*
X114037500Y-118350000D01*
X114070581Y-118351625D01*
X114070581Y-118351625D01*
G37*
D17*
X113700000Y-119075000D03*
D16*
G36*
X107570581Y-116601625D02*
X107603343Y-116606485D01*
X107635471Y-116614533D01*
X107666656Y-116625691D01*
X107696596Y-116639852D01*
X107725005Y-116656879D01*
X107751608Y-116676609D01*
X107776149Y-116698851D01*
X107798391Y-116723392D01*
X107818121Y-116749995D01*
X107835148Y-116778404D01*
X107849309Y-116808344D01*
X107860467Y-116839529D01*
X107868515Y-116871657D01*
X107873375Y-116904419D01*
X107875000Y-116937500D01*
X107875000Y-117712500D01*
X107873375Y-117745581D01*
X107868515Y-117778343D01*
X107860467Y-117810471D01*
X107849309Y-117841656D01*
X107835148Y-117871596D01*
X107818121Y-117900005D01*
X107798391Y-117926608D01*
X107776149Y-117951149D01*
X107751608Y-117973391D01*
X107725005Y-117993121D01*
X107696596Y-118010148D01*
X107666656Y-118024309D01*
X107635471Y-118035467D01*
X107603343Y-118043515D01*
X107570581Y-118048375D01*
X107537500Y-118050000D01*
X106862500Y-118050000D01*
X106829419Y-118048375D01*
X106796657Y-118043515D01*
X106764529Y-118035467D01*
X106733344Y-118024309D01*
X106703404Y-118010148D01*
X106674995Y-117993121D01*
X106648392Y-117973391D01*
X106623851Y-117951149D01*
X106601609Y-117926608D01*
X106581879Y-117900005D01*
X106564852Y-117871596D01*
X106550691Y-117841656D01*
X106539533Y-117810471D01*
X106531485Y-117778343D01*
X106526625Y-117745581D01*
X106525000Y-117712500D01*
X106525000Y-116937500D01*
X106526625Y-116904419D01*
X106531485Y-116871657D01*
X106539533Y-116839529D01*
X106550691Y-116808344D01*
X106564852Y-116778404D01*
X106581879Y-116749995D01*
X106601609Y-116723392D01*
X106623851Y-116698851D01*
X106648392Y-116676609D01*
X106674995Y-116656879D01*
X106703404Y-116639852D01*
X106733344Y-116625691D01*
X106764529Y-116614533D01*
X106796657Y-116606485D01*
X106829419Y-116601625D01*
X106862500Y-116600000D01*
X107537500Y-116600000D01*
X107570581Y-116601625D01*
X107570581Y-116601625D01*
G37*
D17*
X107200000Y-117325000D03*
D16*
G36*
X107570581Y-118351625D02*
X107603343Y-118356485D01*
X107635471Y-118364533D01*
X107666656Y-118375691D01*
X107696596Y-118389852D01*
X107725005Y-118406879D01*
X107751608Y-118426609D01*
X107776149Y-118448851D01*
X107798391Y-118473392D01*
X107818121Y-118499995D01*
X107835148Y-118528404D01*
X107849309Y-118558344D01*
X107860467Y-118589529D01*
X107868515Y-118621657D01*
X107873375Y-118654419D01*
X107875000Y-118687500D01*
X107875000Y-119462500D01*
X107873375Y-119495581D01*
X107868515Y-119528343D01*
X107860467Y-119560471D01*
X107849309Y-119591656D01*
X107835148Y-119621596D01*
X107818121Y-119650005D01*
X107798391Y-119676608D01*
X107776149Y-119701149D01*
X107751608Y-119723391D01*
X107725005Y-119743121D01*
X107696596Y-119760148D01*
X107666656Y-119774309D01*
X107635471Y-119785467D01*
X107603343Y-119793515D01*
X107570581Y-119798375D01*
X107537500Y-119800000D01*
X106862500Y-119800000D01*
X106829419Y-119798375D01*
X106796657Y-119793515D01*
X106764529Y-119785467D01*
X106733344Y-119774309D01*
X106703404Y-119760148D01*
X106674995Y-119743121D01*
X106648392Y-119723391D01*
X106623851Y-119701149D01*
X106601609Y-119676608D01*
X106581879Y-119650005D01*
X106564852Y-119621596D01*
X106550691Y-119591656D01*
X106539533Y-119560471D01*
X106531485Y-119528343D01*
X106526625Y-119495581D01*
X106525000Y-119462500D01*
X106525000Y-118687500D01*
X106526625Y-118654419D01*
X106531485Y-118621657D01*
X106539533Y-118589529D01*
X106550691Y-118558344D01*
X106564852Y-118528404D01*
X106581879Y-118499995D01*
X106601609Y-118473392D01*
X106623851Y-118448851D01*
X106648392Y-118426609D01*
X106674995Y-118406879D01*
X106703404Y-118389852D01*
X106733344Y-118375691D01*
X106764529Y-118364533D01*
X106796657Y-118356485D01*
X106829419Y-118351625D01*
X106862500Y-118350000D01*
X107537500Y-118350000D01*
X107570581Y-118351625D01*
X107570581Y-118351625D01*
G37*
D17*
X107200000Y-119075000D03*
D18*
X81200000Y-123300000D03*
D19*
X81200000Y-120760000D03*
X90800000Y-120760000D03*
D18*
X90800000Y-123300000D03*
D20*
X88540000Y-132920000D03*
X82190000Y-135460000D03*
D21*
X86000000Y-138000000D03*
D22*
X80920000Y-138000000D03*
X91080000Y-138000000D03*
D13*
X125000000Y-101000000D03*
D14*
X127540000Y-101000000D03*
X125000000Y-103540000D03*
X127540000Y-103540000D03*
X125000000Y-106080000D03*
X127540000Y-106080000D03*
X125000000Y-108620000D03*
X127540000Y-108620000D03*
X125000000Y-111160000D03*
X127540000Y-111160000D03*
X125000000Y-113700000D03*
X127540000Y-113700000D03*
X125000000Y-116240000D03*
X127540000Y-116240000D03*
X125000000Y-118780000D03*
X127540000Y-118780000D03*
X125000000Y-121320000D03*
X127540000Y-121320000D03*
X125000000Y-123860000D03*
X127540000Y-123860000D03*
X125000000Y-126400000D03*
X127540000Y-126400000D03*
X125000000Y-128940000D03*
X127540000Y-128940000D03*
X125000000Y-131480000D03*
X127540000Y-131480000D03*
X125000000Y-134020000D03*
X127540000Y-134020000D03*
X125000000Y-136560000D03*
X127540000Y-136560000D03*
X125000000Y-139100000D03*
X127540000Y-139100000D03*
X125000000Y-141640000D03*
X127540000Y-141640000D03*
X125000000Y-144180000D03*
X127540000Y-144180000D03*
X125000000Y-146720000D03*
X127540000Y-146720000D03*
X125000000Y-149260000D03*
X127540000Y-149260000D03*
D23*
X115750000Y-142790000D03*
D24*
X113850000Y-136440000D03*
X112580000Y-133900000D03*
X111310000Y-136440000D03*
X110040000Y-133900000D03*
X108770000Y-136440000D03*
D23*
X105590000Y-142790000D03*
D25*
X107500000Y-133900000D03*
D16*
G36*
X105470581Y-118351625D02*
X105503343Y-118356485D01*
X105535471Y-118364533D01*
X105566656Y-118375691D01*
X105596596Y-118389852D01*
X105625005Y-118406879D01*
X105651608Y-118426609D01*
X105676149Y-118448851D01*
X105698391Y-118473392D01*
X105718121Y-118499995D01*
X105735148Y-118528404D01*
X105749309Y-118558344D01*
X105760467Y-118589529D01*
X105768515Y-118621657D01*
X105773375Y-118654419D01*
X105775000Y-118687500D01*
X105775000Y-119462500D01*
X105773375Y-119495581D01*
X105768515Y-119528343D01*
X105760467Y-119560471D01*
X105749309Y-119591656D01*
X105735148Y-119621596D01*
X105718121Y-119650005D01*
X105698391Y-119676608D01*
X105676149Y-119701149D01*
X105651608Y-119723391D01*
X105625005Y-119743121D01*
X105596596Y-119760148D01*
X105566656Y-119774309D01*
X105535471Y-119785467D01*
X105503343Y-119793515D01*
X105470581Y-119798375D01*
X105437500Y-119800000D01*
X104762500Y-119800000D01*
X104729419Y-119798375D01*
X104696657Y-119793515D01*
X104664529Y-119785467D01*
X104633344Y-119774309D01*
X104603404Y-119760148D01*
X104574995Y-119743121D01*
X104548392Y-119723391D01*
X104523851Y-119701149D01*
X104501609Y-119676608D01*
X104481879Y-119650005D01*
X104464852Y-119621596D01*
X104450691Y-119591656D01*
X104439533Y-119560471D01*
X104431485Y-119528343D01*
X104426625Y-119495581D01*
X104425000Y-119462500D01*
X104425000Y-118687500D01*
X104426625Y-118654419D01*
X104431485Y-118621657D01*
X104439533Y-118589529D01*
X104450691Y-118558344D01*
X104464852Y-118528404D01*
X104481879Y-118499995D01*
X104501609Y-118473392D01*
X104523851Y-118448851D01*
X104548392Y-118426609D01*
X104574995Y-118406879D01*
X104603404Y-118389852D01*
X104633344Y-118375691D01*
X104664529Y-118364533D01*
X104696657Y-118356485D01*
X104729419Y-118351625D01*
X104762500Y-118350000D01*
X105437500Y-118350000D01*
X105470581Y-118351625D01*
X105470581Y-118351625D01*
G37*
D17*
X105100000Y-119075000D03*
D16*
G36*
X105470581Y-116601625D02*
X105503343Y-116606485D01*
X105535471Y-116614533D01*
X105566656Y-116625691D01*
X105596596Y-116639852D01*
X105625005Y-116656879D01*
X105651608Y-116676609D01*
X105676149Y-116698851D01*
X105698391Y-116723392D01*
X105718121Y-116749995D01*
X105735148Y-116778404D01*
X105749309Y-116808344D01*
X105760467Y-116839529D01*
X105768515Y-116871657D01*
X105773375Y-116904419D01*
X105775000Y-116937500D01*
X105775000Y-117712500D01*
X105773375Y-117745581D01*
X105768515Y-117778343D01*
X105760467Y-117810471D01*
X105749309Y-117841656D01*
X105735148Y-117871596D01*
X105718121Y-117900005D01*
X105698391Y-117926608D01*
X105676149Y-117951149D01*
X105651608Y-117973391D01*
X105625005Y-117993121D01*
X105596596Y-118010148D01*
X105566656Y-118024309D01*
X105535471Y-118035467D01*
X105503343Y-118043515D01*
X105470581Y-118048375D01*
X105437500Y-118050000D01*
X104762500Y-118050000D01*
X104729419Y-118048375D01*
X104696657Y-118043515D01*
X104664529Y-118035467D01*
X104633344Y-118024309D01*
X104603404Y-118010148D01*
X104574995Y-117993121D01*
X104548392Y-117973391D01*
X104523851Y-117951149D01*
X104501609Y-117926608D01*
X104481879Y-117900005D01*
X104464852Y-117871596D01*
X104450691Y-117841656D01*
X104439533Y-117810471D01*
X104431485Y-117778343D01*
X104426625Y-117745581D01*
X104425000Y-117712500D01*
X104425000Y-116937500D01*
X104426625Y-116904419D01*
X104431485Y-116871657D01*
X104439533Y-116839529D01*
X104450691Y-116808344D01*
X104464852Y-116778404D01*
X104481879Y-116749995D01*
X104501609Y-116723392D01*
X104523851Y-116698851D01*
X104548392Y-116676609D01*
X104574995Y-116656879D01*
X104603404Y-116639852D01*
X104633344Y-116625691D01*
X104664529Y-116614533D01*
X104696657Y-116606485D01*
X104729419Y-116601625D01*
X104762500Y-116600000D01*
X105437500Y-116600000D01*
X105470581Y-116601625D01*
X105470581Y-116601625D01*
G37*
D17*
X105100000Y-117325000D03*
D16*
G36*
X101070581Y-118351625D02*
X101103343Y-118356485D01*
X101135471Y-118364533D01*
X101166656Y-118375691D01*
X101196596Y-118389852D01*
X101225005Y-118406879D01*
X101251608Y-118426609D01*
X101276149Y-118448851D01*
X101298391Y-118473392D01*
X101318121Y-118499995D01*
X101335148Y-118528404D01*
X101349309Y-118558344D01*
X101360467Y-118589529D01*
X101368515Y-118621657D01*
X101373375Y-118654419D01*
X101375000Y-118687500D01*
X101375000Y-119462500D01*
X101373375Y-119495581D01*
X101368515Y-119528343D01*
X101360467Y-119560471D01*
X101349309Y-119591656D01*
X101335148Y-119621596D01*
X101318121Y-119650005D01*
X101298391Y-119676608D01*
X101276149Y-119701149D01*
X101251608Y-119723391D01*
X101225005Y-119743121D01*
X101196596Y-119760148D01*
X101166656Y-119774309D01*
X101135471Y-119785467D01*
X101103343Y-119793515D01*
X101070581Y-119798375D01*
X101037500Y-119800000D01*
X100362500Y-119800000D01*
X100329419Y-119798375D01*
X100296657Y-119793515D01*
X100264529Y-119785467D01*
X100233344Y-119774309D01*
X100203404Y-119760148D01*
X100174995Y-119743121D01*
X100148392Y-119723391D01*
X100123851Y-119701149D01*
X100101609Y-119676608D01*
X100081879Y-119650005D01*
X100064852Y-119621596D01*
X100050691Y-119591656D01*
X100039533Y-119560471D01*
X100031485Y-119528343D01*
X100026625Y-119495581D01*
X100025000Y-119462500D01*
X100025000Y-118687500D01*
X100026625Y-118654419D01*
X100031485Y-118621657D01*
X100039533Y-118589529D01*
X100050691Y-118558344D01*
X100064852Y-118528404D01*
X100081879Y-118499995D01*
X100101609Y-118473392D01*
X100123851Y-118448851D01*
X100148392Y-118426609D01*
X100174995Y-118406879D01*
X100203404Y-118389852D01*
X100233344Y-118375691D01*
X100264529Y-118364533D01*
X100296657Y-118356485D01*
X100329419Y-118351625D01*
X100362500Y-118350000D01*
X101037500Y-118350000D01*
X101070581Y-118351625D01*
X101070581Y-118351625D01*
G37*
D17*
X100700000Y-119075000D03*
D16*
G36*
X101070581Y-116601625D02*
X101103343Y-116606485D01*
X101135471Y-116614533D01*
X101166656Y-116625691D01*
X101196596Y-116639852D01*
X101225005Y-116656879D01*
X101251608Y-116676609D01*
X101276149Y-116698851D01*
X101298391Y-116723392D01*
X101318121Y-116749995D01*
X101335148Y-116778404D01*
X101349309Y-116808344D01*
X101360467Y-116839529D01*
X101368515Y-116871657D01*
X101373375Y-116904419D01*
X101375000Y-116937500D01*
X101375000Y-117712500D01*
X101373375Y-117745581D01*
X101368515Y-117778343D01*
X101360467Y-117810471D01*
X101349309Y-117841656D01*
X101335148Y-117871596D01*
X101318121Y-117900005D01*
X101298391Y-117926608D01*
X101276149Y-117951149D01*
X101251608Y-117973391D01*
X101225005Y-117993121D01*
X101196596Y-118010148D01*
X101166656Y-118024309D01*
X101135471Y-118035467D01*
X101103343Y-118043515D01*
X101070581Y-118048375D01*
X101037500Y-118050000D01*
X100362500Y-118050000D01*
X100329419Y-118048375D01*
X100296657Y-118043515D01*
X100264529Y-118035467D01*
X100233344Y-118024309D01*
X100203404Y-118010148D01*
X100174995Y-117993121D01*
X100148392Y-117973391D01*
X100123851Y-117951149D01*
X100101609Y-117926608D01*
X100081879Y-117900005D01*
X100064852Y-117871596D01*
X100050691Y-117841656D01*
X100039533Y-117810471D01*
X100031485Y-117778343D01*
X100026625Y-117745581D01*
X100025000Y-117712500D01*
X100025000Y-116937500D01*
X100026625Y-116904419D01*
X100031485Y-116871657D01*
X100039533Y-116839529D01*
X100050691Y-116808344D01*
X100064852Y-116778404D01*
X100081879Y-116749995D01*
X100101609Y-116723392D01*
X100123851Y-116698851D01*
X100148392Y-116676609D01*
X100174995Y-116656879D01*
X100203404Y-116639852D01*
X100233344Y-116625691D01*
X100264529Y-116614533D01*
X100296657Y-116606485D01*
X100329419Y-116601625D01*
X100362500Y-116600000D01*
X101037500Y-116600000D01*
X101070581Y-116601625D01*
X101070581Y-116601625D01*
G37*
D17*
X100700000Y-117325000D03*
D11*
X78000000Y-101000000D03*
M02*
